<svg width="120" height="74" fill="none" xmlns="http://www.w3.org/2000/svg"><path d="M84.978 1C82.9 1.808 29.485 28.139 3.037 41.203l-.4 3.03v2.223c-1.764.757-1.998 1.608-1.199 3.838l42.17 22.02c1.778.926 2.778.903 4.597 0l70.749-60.203c.162-1.105-.073-1.636-1.199-2.424l-1.999-.606-.999-.606L84.978 1z" fill="#4F4F4F" fill-opacity=".2"/><path d="M3.037 41.203C29.485 28.139 82.9 1.808 84.978 1l29.779 7.475M3.037 41.203l-.4 3.03v2.223m.4-5.253c16.236 8.313 25.537 12.852 42.37 20.808m0 0v6.263m0-6.263c27.34-20.762 42.469-32.516 69.35-53.536m0 0l.999.606 1.999.606m0 0S45.406 69.284 45.406 68.274m72.349-58.587c1.126.788 1.361 1.319 1.199 2.424l-70.75 60.204c-1.818.902-2.818.925-4.596 0L1.438 50.294c-.799-2.23-.565-3.081 1.2-3.838m0 0c-.217.23 25.717 13.67 42.768 21.818" stroke="#4F4F4F" stroke-opacity=".6"/></svg>