<svg width="118" height="88" viewBox="0 0 118 88" fill="none" xmlns="http://www.w3.org/2000/svg">
<g clip-path="url(#clip0)">
<path d="M83.9781 8C81.8996 8.8081 28.4845 35.1386 2.03689 48.2028L1.6373 51.2332V53.4555C-0.126572 54.2127 -0.361023 55.0642 0.438164 57.2939L42.6078 79.3146C44.3857 80.2401 45.3864 80.2168 47.2045 79.3146L117.954 19.1113C118.116 18.0058 117.881 17.4753 116.755 16.687L114.756 16.081L113.757 15.4749L83.9781 8Z" fill="#4F4F4F" fill-opacity="0.2"/>
<path d="M2.03689 48.2028C28.4845 35.1386 81.8996 8.8081 83.9781 8L113.757 15.4749M2.03689 48.2028L1.6373 51.2332V53.4555M2.03689 48.2028C18.2734 56.5163 27.5737 61.0553 44.4065 69.0113M44.4065 69.0113V72.6478C44.4065 72.6478 44.4065 74.2485 44.4065 75.2741M44.4065 69.0113C71.7479 48.2488 86.876 36.4951 113.757 15.4749M113.757 15.4749L114.756 16.081L116.755 16.687M116.755 16.687C116.755 16.687 44.4065 76.2842 44.4065 75.2741M116.755 16.687C117.881 17.4753 118.116 18.0058 117.954 19.1113L47.2045 79.3146C45.3864 80.2168 44.3857 80.24 42.6078 79.3146C26.1396 70.715 16.9064 65.8935 0.438164 57.2939C-0.361019 55.0642 -0.126574 54.2127 1.6373 53.4555M1.6373 53.4555C1.4213 53.6864 27.3554 67.1266 44.4065 75.2741" stroke="#4F4F4F" stroke-opacity="0.6"/>
</g>
<defs>
<clipPath id="clip0">
<rect width="118" height="88" fill="white"/>
</clipPath>
</defs>
</svg>
