<svg width="148" height="60" fill="none" xmlns="http://www.w3.org/2000/svg"><path d="M1 23.812L92.067 1 147 15.44l-.244 5.338-88.33 36.987a14.079 14.079 0 01-12.84-1.01L1.122 29.271 1 23.812z" fill="#4F4F4F" fill-opacity=".2"/><path d="M1 23.812L92.067 1 147 15.44M1 23.811l.122 5.46 44.464 27.483a14.078 14.078 0 007.901 2.093v0a14.075 14.075 0 004.938-1.083l88.331-36.987.244-5.339M1 23.812l44.796 26.941a14.391 14.391 0 007.417 2.059v0a14.39 14.39 0 005.47-1.08L147 15.439" stroke="#4F4F4F" stroke-opacity=".6"/></svg>