<svg width="76" height="44" fill="none" xmlns="http://www.w3.org/2000/svg"><path d="M74.889 25.208L33.764 43 1.68 35.125 1 12.958 45.528 1l24.5 3.57.098 1.525a5.762 5.762 0 004.763 5.308v13.805z" fill="#D2D2D2"/><path d="M33.764 43l41.125-17.792V11.403M33.764 43L1.68 35.125 1 12.958M33.764 43V26.278M1 12.958L45.528 1l24.5 3.57M1 12.958l26.542 5.12m6.222 8.2l41.125-14.875M33.764 26.278a6.79 6.79 0 01-6.072-6.236l-.15-1.964m0 0L70.028 4.57m0 0l.098 1.525a5.762 5.762 0 004.763 5.308" stroke="#838383"/></svg>