<svg width="76" height="44" fill="none" xmlns="http://www.w3.org/2000/svg"><path d="M1 12.903L45.672 1l22.05 3.164c1.92.275 4.464 1.515 5.656 3.043C74.907 9.166 75 10.917 75 13.401v11.89L33.727 43 1.583 34.871 1 12.903z" fill="#D2D2D2"/><path d="M1 12.903L45.672 1l22.05 3.164c1.92.275 4.464 1.515 5.656 3.043v0C74.907 9.166 75 10.917 75 13.401v11.89L33.727 43M1 12.903l.583 21.968L33.727 43M1 12.903l23.098 4.539c2.954.58 6.104 1.519 7.744 4.044v0c1.209 1.863 1.43 4.16 1.488 6.38L33.727 43" stroke="#838383"/></svg>