<svg width="76" height="44" fill="none" xmlns="http://www.w3.org/2000/svg"><path d="M74.889 25.208L33.764 43 1.68 35.125 1 12.958 45.528 1l16.625 2.422v5.161a16.396 16.396 0 0112.736 15.983v.642z" fill="#D2D2D2"/><path d="M33.764 43l41.125-17.792v-.642A16.396 16.396 0 0062.153 8.583M33.763 43L1.682 35.125 1 12.958M33.764 43v-5c0-6.991-4.647-13.13-11.375-15.028M1 12.958L45.528 1l16.625 2.422M1 12.958l21.389 4.126m0 0v5.888m0-5.888L62.153 3.422m-39.764 19.55L62.153 8.583m0 0v-5.16" stroke="#838383"/></svg>