<svg width="76" height="44" fill="none" xmlns="http://www.w3.org/2000/svg"><path d="M74.889 25.208L33.764 43 1.68 35.125 1 12.958 45.528 1 61.18 3.28v3.262l1.598.3a10.699 10.699 0 018.707 11.175l3.403.483v6.708z" fill="#D2D2D2"/><path d="M33.764 43l41.125-17.792V18.5M33.764 43L1.68 35.125 1 12.958M33.764 43v-7.778M1 12.958L45.528 1 61.18 3.28M1 12.959l17.306 3.338m0 0v3.954m0-3.954L61.18 3.281M33.764 35.222l-3.986-.977m3.986.977L74.889 18.5M29.778 34.245l41.708-16.228M29.778 34.245a13.203 13.203 0 00-10.703-13.848l-.77-.147m0 0L61.182 6.542m0-3.261v3.26M74.889 18.5l-3.403-.483M61.181 6.542l1.598.3a10.699 10.699 0 018.707 11.175" stroke="#838383"/></svg>