<svg width="76" height="44" fill="none" xmlns="http://www.w3.org/2000/svg"><path d="M74.889 25.208L33.764 43 1.68 35.125 1 12.958 45.528 1l20.32 2.96v7.443l9.04 1.458v12.347z" fill="#D2D2D2"/><path d="M33.764 43l41.125-17.792V12.861M33.764 43L1.68 35.125 1 12.958M33.764 43V27.736m32.083-16.333V3.96m0 7.443l9.042 1.458m-9.042-1.458L22.681 25.694M1 12.958L45.528 1l20.32 2.96M1 12.958l21.68 4.182m0 8.554l11.084 2.042M22.68 25.694V17.14m11.083 10.596l41.125-14.875M22.68 17.14L65.847 3.96" stroke="#838383"/></svg>