<svg width="76" height="44" viewBox="0 0 76 44" fill="none" xmlns="http://www.w3.org/2000/svg">
<path d="M74.8889 25.2083L33.7639 43L1.68056 35.125L1 12.9583L45.5278 1L65.8472 3.96045V11.4028L74.8889 12.8611V25.2083Z" fill="#D2D2D2"/>
<path d="M33.7639 43L74.8889 25.2083V12.8611M33.7639 43L1.68056 35.125L1 12.9583M33.7639 43V27.7361M65.8472 11.4028V3.96045M65.8472 11.4028L74.8889 12.8611M65.8472 11.4028L22.6806 25.6944M1 12.9583L45.5278 1L65.8472 3.96045M1 12.9583L22.6806 17.14M22.6806 25.6944L33.7639 27.7361M22.6806 25.6944V17.14M33.7639 27.7361L74.8889 12.8611M22.6806 17.14L65.8472 3.96045" stroke="#838383"/>
</svg>
