<svg width="76" height="44" fill="none" xmlns="http://www.w3.org/2000/svg"><path d="M74.889 25.208L33.764 43 1.68 35.125 1 12.958 45.528 1l10.889 1.586a5.583 5.583 0 004.34 5.19l2.27.516v3.5l6.147 3.026a10.343 10.343 0 015.715 10.39z" fill="#D2D2D2"/><path d="M33.764 43l41.125-17.792a10.343 10.343 0 00-5.715-10.39l-6.146-3.026M33.764 43L1.68 35.125 1 12.958M33.764 43a13.38 13.38 0 00-6.816-12.598l-6.504-3.638M1 12.958L45.528 1l10.889 1.586M1 12.958l11.958 2.307m0 0L56.417 2.586M12.958 15.265a6.97 6.97 0 004.484 6.367l3.002 1.146m0 0v3.986m0-3.986L63.028 8.292M20.444 26.764l42.584-14.972m-6.611-9.206a5.583 5.583 0 004.34 5.19l2.27.516m0 3.5v-3.5" stroke="#838383"/></svg>