<svg width="77" height="44" fill="none" xmlns="http://www.w3.org/2000/svg"><path d="M1.694 35.788L1 13.191l19.327 3.728 13.527 19.088c.356.503.547 1.104.547 1.72v2.298a2.97 2.97 0 01-3.682 2.888L1.694 35.789z" fill="#D2D2D2"/><path d="M34.401 37.726v2.3a2.97 2.97 0 01-1.741 2.706L74.542 24.87a2.577 2.577 0 001.784-2.453v-2.041c0-.867-.284-1.71-.809-2.4L64.63 3.657 20.327 16.919l13.527 19.088c.356.503.547 1.104.547 1.72z" fill="#D2D2D2"/><path d="M46.394 1L1 13.19l19.327 3.729L64.63 3.657 46.394 1z" fill="#D2D2D2"/><path d="M1 13.19L46.394 1 64.63 3.657M1 13.191l.694 22.597 29.025 7.125a2.95 2.95 0 001.799-.12M1 13.19l19.327 3.728m0 0l13.527 19.088c.356.503.547 1.104.547 1.72v2.298a2.97 2.97 0 01-1.741 2.707M20.327 16.92L64.63 3.657m0 0l10.887 14.318c.525.69.809 1.533.809 2.4v2.04a2.577 2.577 0 01-1.784 2.454L32.66 42.732m-.142.06l.142-.06m-.142.06c.048-.018.095-.038.142-.06" stroke="#838383"/></svg>