<svg width="78" height="44" fill="none" xmlns="http://www.w3.org/2000/svg"><path d="M1.697 35.97L1 13.254l26.63 5.137a8.568 8.568 0 016.945 8.413v12.408a3.78 3.78 0 01-2.192 3.435 3.755 3.755 0 01-2.496.242l-28.19-6.92z" fill="#D2D2D2"/><path d="M71.261 4.589L46.631 1 1 13.254l26.63 5.137a8.568 8.568 0 016.945 8.413v12.408a3.78 3.78 0 01-2.192 3.435L74.526 24.73a3.584 3.584 0 002.192-3.306V10.898a6.376 6.376 0 00-5.457-6.31z" fill="#D2D2D2"/><path d="M1 13.254L46.63 1l24.631 3.589a6.376 6.376 0 015.457 6.31v10.525c0 1.51-.92 2.767-2.192 3.306L32.383 42.647M1 13.254l.697 22.716 28.19 6.919c.88.216 1.75.106 2.496-.242M1 13.254l26.63 5.137a8.568 8.568 0 016.945 8.413v12.408a3.78 3.78 0 01-2.192 3.435" stroke="#838383"/></svg>