<svg width="76" height="44" viewBox="0 0 76 44" fill="none" xmlns="http://www.w3.org/2000/svg">
<path d="M74.8889 25.2083L33.7639 43L1.68056 35.125L1 12.9583L45.5278 1L56.4167 2.58646C56.5315 5.09544 58.3076 7.21889 60.7567 7.77552L63.0278 8.29167V11.7917L69.1744 14.8177C73.0728 16.7369 75.3559 20.8883 74.8889 25.2083Z" fill="#D2D2D2"/>
<path d="M33.7639 43L74.8889 25.2083C75.3559 20.8883 73.0728 16.7369 69.1744 14.8177L63.0278 11.7917M33.7639 43L1.68056 35.125L1 12.9583M33.7639 43C34.12 37.8358 31.4655 32.9295 26.948 30.4022L20.4444 26.7639M1 12.9583L45.5278 1L56.4167 2.58646M1 12.9583L12.9583 15.2648M12.9583 15.2648L56.4167 2.58646M12.9583 15.2648C13.0171 18.102 14.7903 20.6203 17.4416 21.632L20.4444 22.7778M20.4444 22.7778V26.7639M20.4444 22.7778L63.0278 8.29167M20.4444 26.7639L63.0278 11.7917M56.4167 2.58646C56.5315 5.09544 58.3076 7.21889 60.7567 7.77552L63.0278 8.29167M63.0278 11.7917V8.29167" stroke="#838383"/>
</svg>
