<svg width="120" height="57" fill="none" xmlns="http://www.w3.org/2000/svg"><path d="M33 53.333C51.637 57.801 62.29 56.436 78 48m-45 5.333l4.898-.889m-4.898.89L36.673 56M78 48l-5.51.593M78 48l-3.061 3.556" stroke="#926A31"/><path d="M29.48 48.29L1 38.489v-4.43L75.618 1 119 7.134v3.587a1 1 0 01-.405.803l-41.61 30.793c-3.899 2.885-8.164 5.308-12.843 6.586-7.671 2.094-14.367 2.521-24.018 1.717-3.633-.303-7.198-1.143-10.645-2.33z" fill="#4F4F4F" fill-opacity=".2"/><path d="M119 7.134v3.587a1 1 0 01-.405.803l-41.61 30.793c-3.899 2.885-8.164 5.308-12.843 6.586-7.671 2.094-14.367 2.521-24.018 1.717-3.633-.303-7.198-1.143-10.645-2.33L1 38.489v-4.43M119 7.134L75.618 1 1 34.058M119 7.134L76.389 38.062c-3.507 2.546-7.304 4.715-11.445 5.991-9.133 2.814-16.263 3.05-26.76 1.48-2.345-.35-4.651-.936-6.907-1.667L1 34.058" stroke="#4F4F4F" stroke-opacity=".6"/></svg>