<svg width="126" height="90" fill="none" xmlns="http://www.w3.org/2000/svg"><path d="M125 17.712L55.075 1 38.314 3.936l.379 10.012-17.898 3.312.454 10.69L1 32.465l1.062 10.84L59.777 89l25.406-13.4.304-14.302 20.249-9.56 1.062-13.776 16.989-6.85 1.213-13.4z" fill="#4F4F4F" fill-opacity=".2"/><path d="M125 17.712L55.075 1 38.314 3.936M125 17.712l-1.213 13.4-16.989 6.85M125 17.712l-17.823 5.796M38.314 3.936l.379 10.012m-.38-10.012l68.864 19.572m-68.484-9.56L20.795 17.26m17.898-3.312l67.347 24.014M20.794 17.26l.456 10.69m-.456-10.69l64.769 29.208M21.249 27.949L1 32.467m20.25-4.517l63.554 33.349M1 32.466l1.062 10.84L59.777 89M1 32.466l58.7 41.102M59.778 89l25.406-13.4.304-14.302M59.777 89L59.7 73.568m25.786-12.27l20.249-9.56 1.062-13.776m-21.31 23.335h-.683m.683 0L59.7 73.568m47.097-35.606h-.758m.758 0c-.243.24-14.258 5.77-21.235 8.506m21.614-22.96l-1.137 14.454m-20.477 8.506l-.759 14.83" stroke="#4F4F4F" stroke-opacity=".6"/></svg>