<svg width="64" height="64" fill="none" xmlns="http://www.w3.org/2000/svg"><path d="M55.04 9.4a4.058 4.058 0 00-3.094-1.43h-3.917V6.748A2.751 2.751 0 0045.28 4H18.72a2.751 2.751 0 00-2.749 2.747V7.97h-3.917A4.058 4.058 0 008.96 9.4a4 4 0 00-.907 3.24c1.03 6.321 5.011 11.906 10.663 14.97a27.64 27.64 0 001.753 3.51c2.08 3.497 4.667 5.914 7.514 7.083.288 2.914-1.653 5.675-4.576 6.333l-.017.005c-.57.136-.995.647-.995 1.259v5.946h-2.407a3.894 3.894 0 00-3.892 3.888v3.069c0 .716.58 1.296 1.297 1.296h29.34c.716 0 1.297-.58 1.297-1.296v-3.069a3.894 3.894 0 00-3.892-3.888H41.73V45.8c0-.613-.426-1.125-.998-1.26l-.016-.004c-2.945-.663-4.89-3.451-4.571-6.387 2.797-1.188 5.338-3.584 7.387-7.03a27.652 27.652 0 001.753-3.51c5.652-3.063 9.634-8.648 10.663-14.97a4 4 0 00-.908-3.24zm-44.427 2.824c-.067-.414.047-.82.323-1.145.28-.328.687-.517 1.118-.517h3.917v2.385c0 3.74.478 7.361 1.383 10.673-3.558-2.808-6.007-6.888-6.741-11.396zM44.137 54.34c.716 0 1.298.582 1.298 1.296v1.773H18.689v-1.773c0-.714.582-1.296 1.298-1.296h24.15zm-5.002-7.242v4.65H24.99v-4.65h14.146zm-10.744-2.592c.32-.353.614-.735.876-1.144a8.426 8.426 0 001.339-4.449 10.28 10.28 0 002.911-.017 8.528 8.528 0 002.228 5.61h-7.354zm17.043-31.558c0 6.385-1.467 12.37-4.132 16.85-2.54 4.268-5.843 6.62-9.301 6.62-3.46 0-6.763-2.352-9.303-6.62-2.665-4.48-4.132-10.465-4.132-16.85v-6.2c0-.086.07-.155.154-.155h26.56c.085 0 .154.07.154.155v6.2zm7.953-.723c-.734 4.507-3.183 8.587-6.74 11.396.904-3.312 1.382-6.934 1.382-10.673v-2.384h3.917c.43 0 .838.188 1.118.516.276.324.39.73.323 1.145z" fill="#926A31"/><path d="M39.876 17.306a1.298 1.298 0 00-1.047-.882l-3.915-.568-1.75-3.544a1.298 1.298 0 00-2.327 0l-1.751 3.544-3.915.568a1.297 1.297 0 00-.719 2.211l2.833 2.759-.669 3.895a1.295 1.295 0 001.882 1.366L32 24.816l3.501 1.84a1.297 1.297 0 001.883-1.367l-.67-3.895 2.834-2.759c.353-.344.48-.86.328-1.329zm-5.46 2.707a1.295 1.295 0 00-.373 1.147l.34 1.979-1.78-.934a1.297 1.297 0 00-1.207 0l-1.778.934.34-1.979c.072-.42-.068-.85-.374-1.147l-1.439-1.401 1.989-.289c.422-.061.788-.326.977-.709l.889-1.8.89 1.8c.188.383.553.648.976.71l1.988.288-1.438 1.401z" fill="#926A31"/></svg>