<svg width="28" height="28" fill="inherit" xmlns="http://www.w3.org/2000/svg"><path d="M25.786 19.487c-.064-.11-.463-.997-2.384-2.819-2.01-1.908-1.74-1.598.681-4.897 1.475-2.009 2.065-3.236 1.88-3.76-.175-.5-1.26-.368-1.26-.368l-3.606.021s-.267-.037-.467.085c-.193.12-.318.395-.318.395s-.571 1.555-1.333 2.877c-1.607 2.79-2.25 2.937-2.513 2.764-.61-.403-.458-1.623-.458-2.488 0-2.703.4-3.83-.781-4.122-.393-.097-.681-.161-1.685-.172-1.287-.014-2.377.005-2.994.313-.411.206-.728.664-.534.69.238.032.779.149 1.065.548.37.513.357 1.67.357 1.67s.213 3.182-.496 3.578c-.488.271-1.156-.282-2.588-2.814-.734-1.296-1.289-2.73-1.289-2.73s-.106-.267-.297-.41a1.47 1.47 0 00-.555-.228l-3.43.021s-.514.016-.703.244c-.168.204-.013.624-.013.624s2.685 6.422 5.724 9.66c2.789 2.967 5.954 2.772 5.954 2.772h1.434s.434-.05.654-.293c.204-.224.197-.644.197-.644s-.029-1.968.865-2.258c.881-.285 2.012 1.902 3.21 2.744.907.637 1.595.497 1.595.497l3.206-.046s1.677-.106.882-1.454z"/></svg>