<svg width="28" height="28" fill="inherit" xmlns="http://www.w3.org/2000/svg"><path fill-rule="evenodd" clip-rule="evenodd" d="M14 2.412c3.909 0 4.372.014 5.915.084 1.427.066 2.202.304 2.718.504a4.54 4.54 0 011.682 1.095c.512.513.83 1 1.096 1.684.2.516.439 1.29.504 2.718.07 1.543.085 2.006.085 5.913 0 3.907-.015 4.371-.085 5.914-.066 1.428-.304 2.202-.504 2.718a4.527 4.527 0 01-1.096 1.682c-.512.512-.999.83-1.682 1.095-.515.2-1.29.439-2.718.504-1.543.07-2.006.085-5.915.085-3.908 0-4.372-.015-5.915-.085-1.427-.066-2.202-.304-2.718-.505a4.535 4.535 0 01-1.683-1.095 4.53 4.53 0 01-1.096-1.682c-.2-.516-.439-1.29-.504-2.718C2.014 18.78 2 18.316 2 14.407c0-3.91.014-4.37.084-5.914.065-1.428.304-2.202.504-2.718A4.535 4.535 0 013.684 4.09c.512-.512 1-.83 1.683-1.095.516-.202 1.29-.44 2.718-.505L14 2.412zM20.057 6.6a1.757 1.757 0 113.513 0 1.757 1.757 0 01-3.513 0zM14 6.896a7.518 7.518 0 000 15.034 7.516 7.516 0 007.516-7.516A7.517 7.517 0 0014 6.896z"/><path d="M14 9.534a4.88 4.88 0 110 9.76 4.88 4.88 0 010-9.76z"/></svg>