<svg width="50" height="50" viewBox="0 0 50 50" fill="none" xmlns="http://www.w3.org/2000/svg">
<path d="M21.7063 41.2759C21.2947 41.1928 20.8402 41.3982 20.6571 41.8366C20.4912 42.2357 20.6165 42.7103 21.0025 42.9751C21.5133 43.3091 22.1667 43.0868 22.389 42.554C22.6175 41.9966 22.2787 41.392 21.7063 41.2759Z" fill="#B0894E"/>
<path d="M48.4788 27.7374C48.192 25.7243 46.458 24.1716 44.3673 24.1716H44.0348C44.0348 23.5249 44.0348 18.9839 44.0348 18.3287C44.0348 16.498 42.5458 15.0086 40.7151 15.0086H40.0885L41.8082 12.5437C42.8827 11.0038 42.4736 8.88487 40.903 7.85545C30.4011 0.972882 31.1189 1.40904 30.6772 1.23363C29.2604 0.670026 27.5773 1.14537 26.6888 2.45201C26.6749 2.47252 24.181 6.14085 24.0635 6.3137L20.7599 4.14866C19.4456 3.28734 17.6581 3.64403 16.7748 4.94334L9.9314 15.0086H5.95581C3.77429 15.0086 2 16.7833 2 18.9645C2 18.993 2.00146 19.0212 2.0022 19.0502C2.00146 19.0644 2 19.0787 2 19.093V44.9643C2 47.1898 3.81055 49 6.03564 49H39.9995C42.2246 49 44.0348 47.1898 44.0348 44.9643V42.7195H44.2241C46.5935 42.7195 48.5209 40.7917 48.5209 38.4223C48.5209 27.0548 48.5417 27.9396 48.4788 27.7374ZM44.3673 26.0466C45.6238 26.0466 46.6459 27.0687 46.6459 28.3252C46.6404 28.3721 46.7001 29.0543 46.3104 29.6955C45.5275 30.9824 44.0996 30.7953 44.0352 30.8106V26.0466H44.3673ZM25.6371 7.33433C28.4646 8.9951 32.1099 8.29527 34.0991 5.63878L36.136 6.97361C34.5807 9.66014 35.2479 13.1351 37.7967 15.0163L36.233 17.2575H18.8904C19.072 16.9898 24.7443 8.64756 25.6371 7.33433ZM28.2397 3.50633C28.6825 2.85484 29.579 2.67576 30.2378 3.10789L32.527 4.60826C31.1259 6.38145 28.6554 6.86265 26.694 5.77977L28.2397 3.50633ZM39.875 9.42393C40.5609 9.87327 40.7396 10.7983 40.2705 11.4707L38.8705 13.4772C37.1632 12.1833 36.6985 9.84654 37.7074 8.00303L39.875 9.42393ZM18.3257 5.9973C18.6373 5.5388 19.2683 5.41319 19.7319 5.71714L23.0088 7.86461L16.6228 17.2575H10.67L18.3257 5.9973ZM5.95581 16.884H8.65625C8.23144 17.5619 7.98535 17.7281 7.96265 18.1434C7.93298 18.6806 8.36108 19.1329 8.89868 19.1329H36.7223C37.0288 19.1329 37.3159 18.9828 37.491 18.7315L38.78 16.884H40.7151C41.5116 16.884 42.1598 17.5322 42.1598 18.3287V21.0449H5.95581C3.151 21.0449 3.25793 16.884 5.95581 16.884ZM42.1598 44.9643C42.1598 46.1556 41.1904 47.1246 39.9995 47.1246H6.03564C4.84436 47.1246 3.87537 46.1556 3.87537 44.9643V43.1329H17.7734C18.2909 43.1329 18.7109 42.7129 18.7109 42.1954C18.7109 41.6776 18.2909 41.2575 17.7734 41.2575H3.87537V22.3329C4.27197 22.5775 4.71326 22.7481 5.15564 22.8386C6.13159 23.0397 5.68591 22.854 42.1598 22.9199V30.8106H38.7284C35.4453 30.8106 32.7742 33.4818 32.7742 36.7649C32.7742 40.0483 35.4453 42.7195 38.7284 42.7195H42.1598V44.9643ZM46.6459 38.4223C46.6459 39.7575 45.5593 40.8441 44.2241 40.8441H38.7284C36.4795 40.8441 34.6495 39.0141 34.6495 36.7649C34.6495 34.516 36.4795 32.686 38.7284 32.686H44.3318C45.1792 32.686 45.9823 32.4286 46.6459 31.9873V38.4223Z" fill="#B0894E"/>
<path d="M39.0582 33.4672C37.2367 33.4672 35.755 34.9489 35.755 36.7704C35.755 38.5919 37.2371 40.0736 39.0582 40.0736C40.8798 40.0736 42.3618 38.5919 42.3618 36.7704C42.3618 34.9489 40.8798 33.4672 39.0582 33.4672ZM39.0582 38.1986C38.2709 38.1986 37.6304 37.5578 37.6304 36.7704C37.6304 35.983 38.2709 35.3422 39.0582 35.3422C39.846 35.3422 40.4865 35.983 40.4865 36.7704C40.4865 37.5578 39.846 38.1986 39.0582 38.1986Z" fill="#B0894E"/>
</svg>
