<svg width="50" height="50" viewBox="0 0 50 50" fill="none" xmlns="http://www.w3.org/2000/svg">
<path d="M43.0788 12.2847L24.9538 6.03469C24.8219 5.98844 24.6781 5.98844 24.5462 6.03469L6.42125 12.2847C6.29832 12.3271 6.19167 12.4068 6.11616 12.5126C6.04065 12.6185 6.00005 12.7453 6 12.8753V42.8753C6 43.0411 6.06585 43.2001 6.18306 43.3173C6.30027 43.4345 6.45924 43.5003 6.625 43.5003H9.125C9.29076 43.5003 9.44973 43.4345 9.56694 43.3173C9.68415 43.2001 9.75 43.0411 9.75 42.8753V21.0003H39.75V42.8753C39.75 43.0411 39.8158 43.2001 39.9331 43.3173C40.0503 43.4345 40.2092 43.5003 40.375 43.5003H42.875C43.0408 43.5003 43.1997 43.4345 43.3169 43.3173C43.4342 43.2001 43.5 43.0411 43.5 42.8753V12.8753C43.5 12.7453 43.4593 12.6185 43.3838 12.5126C43.3083 12.4068 43.2017 12.3271 43.0788 12.2847V12.2847ZM7.25 13.3209L24.75 7.28657L42.25 13.3209V16.0003H7.25V13.3209ZM8.5 42.2503H7.25V17.2503H8.5V42.2503ZM9.75 19.7503V17.2503H39.75V19.7503H9.75ZM42.25 42.2503H41V17.2503H42.25V42.2503Z" fill="#B0894E"/>
<path d="M24.75 14.7502C25.2445 14.7502 25.7278 14.6036 26.1389 14.3289C26.5501 14.0542 26.8705 13.6638 27.0597 13.207C27.2489 12.7501 27.2984 12.2475 27.202 11.7625C27.1055 11.2776 26.8674 10.8321 26.5178 10.4825C26.1681 10.1328 25.7227 9.89475 25.2377 9.79828C24.7528 9.70182 24.2501 9.75133 23.7933 9.94055C23.3365 10.1298 22.946 10.4502 22.6713 10.8613C22.3966 11.2724 22.25 11.7558 22.25 12.2502C22.25 12.9133 22.5134 13.5492 22.9822 14.018C23.4511 14.4869 24.087 14.7502 24.75 14.7502ZM24.75 11.0002C24.9972 11.0002 25.2389 11.0736 25.4445 11.2109C25.65 11.3483 25.8102 11.5435 25.9049 11.7719C25.9995 12.0003 26.0242 12.2516 25.976 12.4941C25.9278 12.7366 25.8087 12.9593 25.6339 13.1341C25.4591 13.3089 25.2363 13.428 24.9939 13.4762C24.7514 13.5245 24.5001 13.4997 24.2716 13.4051C24.0432 13.3105 23.848 13.1503 23.7107 12.9447C23.5733 12.7391 23.5 12.4975 23.5 12.2502C23.5 11.9187 23.6317 11.6008 23.8661 11.3664C24.1005 11.1319 24.4185 11.0002 24.75 11.0002V11.0002Z" fill="#B0894E"/>
<path d="M37.875 42.2502H35.375V32.8752C35.375 32.7095 35.3092 32.5505 35.1919 32.4333C35.0747 32.3161 34.9158 32.2502 34.75 32.2502H30.375V22.8752C30.375 22.7095 30.3092 22.5505 30.1919 22.4333C30.0747 22.3161 29.9158 22.2502 29.75 22.2502H19.75C19.5842 22.2502 19.4253 22.3161 19.3081 22.4333C19.1908 22.5505 19.125 22.7095 19.125 22.8752V32.2502H14.75C14.5842 32.2502 14.4253 32.3161 14.3081 32.4333C14.1908 32.5505 14.125 32.7095 14.125 32.8752V42.2502H11.625C11.4592 42.2502 11.3003 42.3161 11.1831 42.4333C11.0658 42.5505 11 42.7095 11 42.8752C11 43.041 11.0658 43.2 11.1831 43.3172C11.3003 43.4344 11.4592 43.5002 11.625 43.5002H37.875C38.0408 43.5002 38.1997 43.4344 38.3169 43.3172C38.4342 43.2 38.5 43.041 38.5 42.8752C38.5 42.7095 38.4342 42.5505 38.3169 42.4333C38.1997 42.3161 38.0408 42.2502 37.875 42.2502ZM29.125 33.5002H30.375V36.864L30.0294 36.6909C29.9426 36.6475 29.847 36.625 29.75 36.625C29.653 36.625 29.5574 36.6475 29.4706 36.6909L29.125 36.864V33.5002ZM25.375 23.5002V26.864L25.0294 26.6909C24.9426 26.6475 24.847 26.625 24.75 26.625C24.653 26.625 24.5574 26.6475 24.4706 26.6909L24.125 26.864V23.5002H25.375ZM20.375 23.5002H22.875V27.8752C22.8744 27.9821 22.9012 28.0872 22.9528 28.1807C23.0045 28.2743 23.0792 28.353 23.1699 28.4094C23.2606 28.4658 23.3642 28.498 23.4709 28.503C23.5776 28.508 23.6838 28.4855 23.7794 28.4377L24.75 27.949L25.7206 28.4346C25.8159 28.4822 25.9218 28.5047 26.0283 28.4999C26.1347 28.4951 26.2382 28.4631 26.3288 28.4071C26.4194 28.351 26.4942 28.2727 26.546 28.1797C26.5979 28.0866 26.625 27.9818 26.625 27.8752V23.5002H29.125V32.2502H20.375V23.5002ZM19.75 33.5002H20.375V36.864L20.0294 36.6909C19.9426 36.6475 19.847 36.625 19.75 36.625C19.653 36.625 19.5574 36.6475 19.4706 36.6909L19.125 36.864V33.5002H19.75ZM15.375 33.5002H17.875V37.8752C17.8744 37.9821 17.9012 38.0872 17.9528 38.1807C18.0045 38.2743 18.0792 38.353 18.1699 38.4094C18.2606 38.4658 18.3642 38.498 18.4709 38.503C18.5776 38.508 18.6838 38.4855 18.7794 38.4377L19.75 37.949L20.7206 38.4346C20.8159 38.4822 20.9218 38.5047 21.0283 38.4999C21.1347 38.4951 21.2382 38.4631 21.3288 38.4071C21.4194 38.351 21.4942 38.2727 21.546 38.1797C21.5979 38.0866 21.625 37.9818 21.625 37.8752V33.5002H24.125V42.2502H15.375V33.5002ZM25.375 33.5002H27.875V37.8752C27.8744 37.9821 27.9012 38.0872 27.9528 38.1807C28.0045 38.2743 28.0792 38.353 28.1699 38.4094C28.2606 38.4658 28.3642 38.498 28.4709 38.503C28.5776 38.508 28.6838 38.4855 28.7794 38.4377L29.75 37.949L30.7206 38.4346C30.8159 38.4822 30.9218 38.5047 31.0283 38.4999C31.1347 38.4951 31.2382 38.4631 31.3288 38.4071C31.4194 38.351 31.4942 38.2727 31.546 38.1797C31.5979 38.0866 31.625 37.9818 31.625 37.8752V33.5002H34.125V42.2502H25.375V33.5002Z" fill="#B0894E"/>
</svg>
