<svg width="12" height="12" viewBox="0 0 12 12" fill="none" xmlns="http://www.w3.org/2000/svg">
<path fill-rule="evenodd" clip-rule="evenodd" d="M2 2.5C1.72614 2.5 1.5 2.72614 1.5 3V9C1.5 9.27386 1.72614 9.5 2 9.5H10C10.2739 9.5 10.5 9.27386 10.5 9V3C10.5 2.72614 10.2739 2.5 10 2.5H2ZM0.5 3C0.5 2.17386 1.17386 1.5 2 1.5H10C10.8261 1.5 11.5 2.17386 11.5 3V9C11.5 9.82614 10.8261 10.5 10 10.5H2C1.17386 10.5 0.5 9.82614 0.5 9V3Z" fill="#4F4F4F"/>
<path fill-rule="evenodd" clip-rule="evenodd" d="M0.590427 2.71331C0.748784 2.48709 1.06055 2.43207 1.28677 2.59043L6.00004 5.88972L10.7133 2.59043C10.9395 2.43207 11.2513 2.48709 11.4097 2.71331C11.568 2.93954 11.513 3.2513 11.2868 3.40966L6.28677 6.90966C6.11461 7.03017 5.88547 7.03017 5.71331 6.90966L0.713312 3.40966C0.487087 3.2513 0.43207 2.93954 0.590427 2.71331Z" fill="#4F4F4F"/>
</svg>
