<svg width="12" height="12" viewBox="0 0 12 12" fill="none" xmlns="http://www.w3.org/2000/svg">
<path fill-rule="evenodd" clip-rule="evenodd" d="M6 1C4.93913 1 3.92172 1.42143 3.17157 2.17157C2.42143 2.92172 2 3.93913 2 5C2 6.54903 3.00787 8.05213 4.11298 9.21863C4.65531 9.79109 5.19933 10.2597 5.60834 10.5854C5.76056 10.7066 5.89351 10.8076 6 10.8863C6.10649 10.8076 6.23944 10.7066 6.39166 10.5854C6.80067 10.2597 7.34469 9.79109 7.88702 9.21863C8.99213 8.05213 10 6.54903 10 5C10 3.93913 9.57857 2.92172 8.82843 2.17157C8.07828 1.42143 7.06087 1 6 1ZM6 11.5C5.72265 11.916 5.72252 11.9159 5.72238 11.9158L5.72095 11.9149L5.71762 11.9127L5.70616 11.9049C5.69642 11.8983 5.68254 11.8888 5.66478 11.8765C5.62926 11.8519 5.57823 11.8161 5.5139 11.7696C5.38527 11.6767 5.20318 11.5411 4.98541 11.3677C4.55067 11.0215 3.96969 10.5214 3.38702 9.90637C2.24213 8.69788 1 6.95097 1 5C1 3.67392 1.52678 2.40215 2.46447 1.46447C3.40215 0.526784 4.67392 0 6 0C7.32608 0 8.59785 0.526784 9.53553 1.46447C10.4732 2.40215 11 3.67392 11 5C11 6.95097 9.75787 8.69788 8.61298 9.90637C8.03031 10.5214 7.44933 11.0215 7.01459 11.3677C6.79682 11.5411 6.61473 11.6767 6.4861 11.7696C6.42177 11.8161 6.37074 11.8519 6.33522 11.8765C6.31746 11.8888 6.30358 11.8983 6.29384 11.9049L6.28238 11.9127L6.27905 11.9149L6.27799 11.9156C6.27785 11.9157 6.27735 11.916 6 11.5ZM6 11.5L6.27735 11.916C6.1094 12.028 5.89033 12.0278 5.72238 11.9158L6 11.5Z" fill="#4F4F4F"/>
<path fill-rule="evenodd" clip-rule="evenodd" d="M6 4C5.44772 4 5 4.44772 5 5C5 5.55228 5.44772 6 6 6C6.55228 6 7 5.55228 7 5C7 4.44772 6.55228 4 6 4ZM4 5C4 3.89543 4.89543 3 6 3C7.10457 3 8 3.89543 8 5C8 6.10457 7.10457 7 6 7C4.89543 7 4 6.10457 4 5Z" fill="#4F4F4F"/>
</svg>
