<svg width="50" height="50" viewBox="0 0 50 50" fill="none" xmlns="http://www.w3.org/2000/svg">
<path d="M34.9808 21.7666C34.1223 21.7666 33.2831 22.0619 32.608 22.5934C31.952 22.0816 31.1322 21.7666 30.2448 21.7666C28.0648 21.7666 26.29 23.5776 26.29 25.802C26.29 28.0264 28.0648 29.8375 30.2448 29.8375C31.1418 29.8375 31.952 29.5225 32.6176 29.0107C33.3024 29.5422 34.132 29.8375 34.9904 29.8375C37.1704 29.8375 38.9452 28.0264 38.9452 25.802C38.9355 23.5776 37.1607 21.7666 34.9808 21.7666ZM30.2448 28.2233C28.933 28.2233 27.8719 27.1406 27.8719 25.802C27.8719 24.4635 28.933 23.3808 30.2448 23.3808C31.5566 23.3808 32.6176 24.4635 32.6176 25.802C32.6079 27.1308 31.5469 28.2233 30.2448 28.2233ZM34.9808 28.2233C34.4985 28.2233 34.0452 28.0757 33.6593 27.8001C34.0066 27.1898 34.1898 26.5009 34.1898 25.802C34.1898 25.1032 34.0066 24.4142 33.6593 23.804C34.0452 23.5284 34.4985 23.3808 34.9808 23.3808C36.2926 23.3808 37.3536 24.4635 37.3536 25.802C37.3536 27.1308 36.2926 28.2233 34.9808 28.2233Z" fill="#B0894E"/>
<path d="M10.4908 37.8987H5.74512V39.5129H10.4908V37.8987Z" fill="#B0894E"/>
<path d="M19.1822 37.8987H14.4365V39.5129H19.1822V37.8987Z" fill="#B0894E"/>
<path d="M27.8726 37.8987H23.127V39.5129H27.8726V37.8987Z" fill="#B0894E"/>
<path d="M36.5631 37.8987H31.8174V39.5129H36.5631V37.8987Z" fill="#B0894E"/>
<path d="M15.2268 24.9951H5.74512V26.6093H15.2268V24.9951Z" fill="#B0894E"/>
<path d="M26.2904 31.4419H5.74512V33.0561H26.2904V31.4419Z" fill="#B0894E"/>
<path d="M46.0453 4.83765H11.2726C9.09272 4.83765 7.31791 6.64867 7.31791 8.87308V17.7412H4.95472C2.7748 17.7412 1 19.5522 1 21.7766V41.127C1 43.3514 2.7748 45.1624 4.95472 45.1624H39.7274C41.9073 45.1624 43.6821 43.3514 43.6821 41.127V32.2589H46.0453C48.2252 32.2589 50 30.4479 50 28.2235V8.86324C50 6.63883 48.2252 4.83765 46.0453 4.83765ZM42.1002 41.127C42.1002 42.4656 41.0392 43.5483 39.7274 43.5483H4.95472C3.64291 43.5483 2.58189 42.4656 2.58189 41.127V21.7668C2.58189 20.4282 3.64291 19.3455 4.95472 19.3455H39.7274C41.0392 19.3455 42.1002 20.4282 42.1002 21.7668V41.127ZM48.4181 28.2235C48.4181 29.5621 47.3571 30.6447 46.0453 30.6447H43.6724V21.7766C43.6724 19.5522 41.8976 17.7412 39.7177 17.7412H8.8998V14.5128H48.4181V28.2235ZM48.4181 12.8987H8.8998V11.2845H48.4181V12.8987ZM48.4181 9.67032H8.8998V8.86324C8.8998 7.52465 9.96083 6.44198 11.2726 6.44198H46.0453C47.3571 6.44198 48.4181 7.52465 48.4181 8.86324V9.67032Z" fill="#B0894E"/>
</svg>
