<svg width="23" height="20" fill="none" xmlns="http://www.w3.org/2000/svg"><path d="M20.316 6.89V6.8c.002-3.754-2.915-6.798-6.514-6.8-2.19-.001-4.233 1.144-5.44 3.049-2.414-.84-5.023.519-5.828 3.035-.157.489-.237 1-.237 1.515v.103c-1.64.444-2.624 2.19-2.198 3.9.351 1.408 1.57 2.392 2.965 2.394l4.125-.012c.211 0 .455-.167.455-.387 0-.221-.244-.4-.455-.4H3.064c-1.27-.008-2.295-1.088-2.287-2.413.007-1.188.846-2.192 1.973-2.36a.396.396 0 00.331-.431 4.925 4.925 0 01-.017-.394c.002-2.21 1.723-4 3.843-3.998.503.001 1 .105 1.465.305.176.077.38.007.477-.164 1.617-2.85 5.144-3.795 7.878-2.108 1.75 1.08 2.824 3.044 2.822 5.166 0 .132-.003.26-.013.39a.396.396 0 00.337.43c1.47.19 2.515 1.588 2.333 3.122-.166 1.4-1.304 2.451-2.657 2.455-1.484.002-2.968 0-4.453 0-.212 0-.431.179-.431.4 0 .22.22.387.431.387l4.453.012c1.906 0 3.451-1.61 3.451-3.598 0-1.68-1.114-3.135-2.684-3.508z" fill="#161615"/><path d="M14.669 16.041l-2.633 2.633V7.771a.388.388 0 00-.776 0v10.903l-2.633-2.633a.388.388 0 00-.55.55l3.296 3.295a.388.388 0 00.55 0l3.295-3.295a.388.388 0 00-.549-.55z" fill="#161615"/></svg>