<svg width="50" height="50" viewBox="0 0 50 50" fill="none" xmlns="http://www.w3.org/2000/svg">
<path d="M37.1897 3C32.5052 3 28.5075 6.05667 27.0098 10.1496H8.11018C7.69152 10.1496 7.35168 10.527 7.34871 10.9453L7.16875 37.6578H1.78155C1.36103 37.6578 1 37.9623 1 38.3836V41.7734C1.00967 44.9647 3.52312 47.5863 6.71105 47.7306V47.7473H30.2215V47.725C30.4119 47.7321 30.4903 47.7473 30.6108 47.7473H30.6272C33.9266 47.7421 36.5989 45.0658 36.5989 41.7663V24.6272C36.7892 24.6377 36.9908 24.6432 37.1878 24.6432C43.1491 24.6432 48.0001 19.7829 48.0001 13.8212C48.0001 7.85997 43.1513 3 37.1897 3V3ZM7.00069 46.2244H6.99586C4.53259 46.221 2.5341 44.2292 2.52295 41.7656V39.1807H24.6057V41.7548C24.6068 43.3439 25.2415 44.8672 26.3688 45.9875C26.4487 46.0675 26.548 46.1292 26.6317 46.2244H7.00069ZM35.0759 41.7656C35.0763 44.2248 33.0852 46.2195 30.6264 46.2244H30.6119C28.1431 46.2199 26.1409 44.224 26.1286 41.7555V38.3836C26.1349 38.1887 26.0606 38.0002 25.9226 37.8627C25.7847 37.7251 25.5962 37.6511 25.4017 37.6578H8.69169L8.86645 11.6725H26.5871C26.4521 12.3697 26.3822 13.0776 26.3785 13.7874C26.377 15.2884 26.69 16.7727 27.2976 18.1451H20.1052C19.6843 18.1451 19.3438 18.486 19.3438 18.9065C19.3438 19.327 19.6843 19.668 20.1052 19.668H28.1238C29.6947 22.1383 32.2059 23.8606 35.0759 24.4369V41.7656ZM37.1897 23.1207C32.0601 23.1207 27.9014 18.9623 27.9018 13.8324C27.9018 8.70249 32.0601 4.54414 37.19 4.54414C42.3196 4.54414 46.4779 8.70287 46.4779 13.8324C46.4724 18.9597 42.3173 23.1151 37.1897 23.1207Z" fill="#B0894E"/>
<path d="M15.2175 23.2129C13.8734 23.2129 12.7803 24.2714 12.7803 25.5728C12.7803 26.8741 13.8734 27.9327 15.2175 27.9327C16.5616 27.9327 17.6551 26.8741 17.6551 25.5728C17.6551 24.2714 16.5616 23.2129 15.2175 23.2129V23.2129ZM15.2175 26.4097C14.713 26.4097 14.3032 26.0342 14.3032 25.5728C14.3032 25.111 14.7133 24.7358 15.2175 24.7358C15.7217 24.7358 16.1322 25.1114 16.1322 25.5728C16.1322 26.0342 15.7217 26.4097 15.2175 26.4097Z" fill="#B0894E"/>
<path d="M19.3438 25.5693C19.3438 25.9899 19.6843 26.3308 20.1052 26.3308H30.2572C30.6777 26.3308 31.0187 25.9899 31.0187 25.5693C31.0187 25.1488 30.6777 24.8079 30.2572 24.8079H20.1052C19.6843 24.8079 19.3438 25.1488 19.3438 25.5693Z" fill="#B0894E"/>
<path d="M15.2175 16.5935C13.8734 16.5935 12.7803 17.6524 12.7803 18.9538C12.7803 20.2551 13.8734 21.3137 15.2175 21.3137C16.5616 21.3137 17.6551 20.2551 17.6551 18.9538C17.6551 17.6524 16.5616 16.5935 15.2175 16.5935ZM15.2175 19.7907C14.713 19.7907 14.3032 19.4152 14.3032 18.9538C14.3032 18.4924 14.7133 18.1165 15.2175 18.1165C15.7217 18.1165 16.1322 18.492 16.1322 18.9538C16.1322 19.4152 15.7217 19.7911 15.2175 19.7911V19.7907Z" fill="#B0894E"/>
<path d="M15.2175 29.8313C13.8734 29.8313 12.7803 30.8898 12.7803 32.1912C12.7803 33.4925 13.8734 34.5511 15.2175 34.5511C16.5616 34.5511 17.6551 33.4925 17.6551 32.1912C17.6551 30.8898 16.5616 29.8313 15.2175 29.8313ZM15.2175 33.0281C14.713 33.0281 14.3032 32.653 14.3032 32.1912C14.3032 31.7298 14.7133 31.3542 15.2175 31.3542C15.7217 31.3542 16.1322 31.7298 16.1322 32.1912C16.1322 32.6526 15.7217 33.0281 15.2175 33.0281V33.0281Z" fill="#B0894E"/>
<path d="M30.2572 31.4707H20.1052C19.6843 31.4707 19.3438 31.8117 19.3438 32.2322C19.3438 32.6527 19.6843 32.9936 20.1052 32.9936H30.2572C30.6777 32.9936 31.0187 32.6527 31.0187 32.2322C31.0187 31.8117 30.6777 31.4707 30.2572 31.4707Z" fill="#B0894E"/>
<path d="M35.358 18.8787V16.9747H34.14V16.0647H35.358V14.8187H34.14V13.7547H35.358V8.88266H37.99C39.2127 8.88266 40.118 9.12999 40.706 9.62466C41.3033 10.1193 41.602 10.838 41.602 11.7807C41.602 12.7327 41.28 13.4793 40.636 14.0207C39.992 14.5527 39.0447 14.8187 37.794 14.8187H36.618V16.0647H38.928V16.9747H36.618V18.8787H35.358ZM37.612 13.7547C38.4613 13.7547 39.1193 13.6147 39.586 13.3347C40.062 13.0547 40.3 12.5507 40.3 11.8227C40.3 11.188 40.104 10.7167 39.712 10.4087C39.32 10.1007 38.7087 9.94666 37.878 9.94666H36.618V13.7547H37.612Z" fill="#B0894E"/>
</svg>
