<svg width="160" height="65" fill="none" xmlns="http://www.w3.org/2000/svg"><path d="M59.04 32.36c0 5.92-.987 11.093-2.96 15.52-1.92 4.373-4.88 7.787-8.88 10.24-4 2.453-9.12 3.68-15.36 3.68-6.187 0-11.307-1.227-15.36-3.68-4-2.453-6.987-5.893-8.96-10.32-1.92-4.427-2.88-9.6-2.88-15.52s.96-11.067 2.88-15.44c1.973-4.373 4.96-7.76 8.96-10.16C20.533 4.227 25.68 3 31.92 3 38.106 3 43.2 4.227 47.2 6.68c4 2.4 6.96 5.813 8.88 10.24 1.973 4.373 2.96 9.52 2.96 15.44zm-41.68 0c0 5.973 1.146 10.693 3.44 14.16 2.293 3.413 5.973 5.12 11.04 5.12 5.173 0 8.88-1.707 11.12-5.12 2.24-3.467 3.36-8.187 3.36-14.16 0-6.027-1.12-10.747-3.36-14.16-2.24-3.413-5.92-5.12-11.04-5.12-5.12 0-8.827 1.707-11.12 5.12-2.294 3.413-3.44 8.133-3.44 14.16z" fill="#161615"/><path d="M86.48 65H71L47.69 32.42V65H34.1V.74h13.59v31.14L70.73.74h14.49l-23.4 30.87L86.48 65z" fill="#926A31"/><path d="M81.064 23.74c1.83 0 3.183.401 4.06 1.204.877.803 1.316 2.081 1.316 3.836V39h-1.792l-.476-2.128h-.112c-.653.821-1.344 1.428-2.072 1.82-.71.392-1.699.588-2.968.588-1.363 0-2.492-.355-3.388-1.064-.896-.728-1.344-1.857-1.344-3.388 0-1.493.588-2.641 1.764-3.444 1.176-.821 2.987-1.27 5.432-1.344l2.548-.084v-.896c0-1.25-.27-2.119-.812-2.604-.541-.485-1.307-.728-2.296-.728-.784 0-1.53.121-2.24.364a14.69 14.69 0 00-1.988.784l-.756-1.848c.653-.355 1.428-.653 2.324-.896a9.95 9.95 0 012.8-.392zm.728 8.008c-1.867.075-3.164.373-3.892.896-.71.523-1.064 1.26-1.064 2.212 0 .84.252 1.456.756 1.848.523.392 1.185.588 1.988.588 1.27 0 2.324-.345 3.164-1.036.84-.71 1.26-1.792 1.26-3.248v-1.344l-2.212.084zm25.383-7.756V39h-2.212v-9.576c0-.392.01-.803.028-1.232l.112-1.26h-.084L100.119 39h-2.072l-4.76-12.068h-.084c.056.84.084 1.699.084 2.576V39h-2.212V23.992h3.276l4.732 12.068 4.816-12.068h3.276zm10.587-.28c1.288 0 2.389.28 3.304.84.933.56 1.643 1.353 2.128 2.38.504 1.008.756 2.193.756 3.556v1.484h-10.276c.037 1.699.467 2.996 1.288 3.892.84.877 2.007 1.316 3.5 1.316.952 0 1.792-.084 2.52-.252a15.185 15.185 0 002.296-.784V38.3c-.765.336-1.521.579-2.268.728-.747.168-1.633.252-2.66.252-1.419 0-2.679-.29-3.78-.868-1.083-.579-1.932-1.437-2.548-2.576-.597-1.157-.896-2.567-.896-4.228 0-1.643.271-3.052.812-4.228.56-1.176 1.335-2.081 2.324-2.716 1.008-.635 2.175-.952 3.5-.952zm-.028 2.016c-1.176 0-2.109.383-2.8 1.148-.672.747-1.073 1.792-1.204 3.136h7.644c-.019-1.27-.317-2.296-.896-3.08-.579-.803-1.493-1.204-2.744-1.204zm12.501-1.736v6.244h8.148v-6.244h2.464V39h-2.464v-6.692h-8.148V39h-2.464V23.992h2.464zm22.28 6.16c3.901 0 5.852 1.419 5.852 4.256 0 1.4-.476 2.52-1.428 3.36-.952.821-2.464 1.232-4.536 1.232h-6.804V23.992h2.464v6.16h4.452zm3.388 4.396c0-.915-.327-1.53-.98-1.848-.635-.336-1.531-.504-2.688-.504h-4.172v4.816h4.228c1.045 0 1.904-.187 2.576-.56.691-.373 1.036-1.008 1.036-1.904z" fill="#161615"/></svg>