<svg width="52" height="32" viewBox="0 0 52 32" xmlns="http://www.w3.org/2000/svg">
<path d="M12.8186 31.7154V29.6226C12.831 29.4466 12.8052 29.27 12.7432 29.1046C12.6811 28.9392 12.5841 28.7888 12.4586 28.6633C12.3332 28.5379 12.1821 28.4404 12.0156 28.3772C11.849 28.3141 11.6708 28.2868 11.4927 28.2971C11.2596 28.282 11.0267 28.3291 10.8183 28.4334C10.6099 28.5377 10.4336 28.6954 10.3078 28.8901C10.1932 28.7012 10.0292 28.5465 9.83307 28.4421C9.63695 28.3377 9.416 28.2877 9.1935 28.2971C8.99956 28.2874 8.80642 28.328 8.63322 28.4149C8.46003 28.5018 8.3128 28.6319 8.20612 28.7924V28.3808H7.47263V31.7154H8.21317V29.8807C8.19742 29.7667 8.20733 29.6506 8.24219 29.5408C8.27706 29.431 8.33601 29.3302 8.41485 29.2455C8.49369 29.1609 8.59046 29.0945 8.69824 29.0512C8.80602 29.0078 8.92216 28.9885 9.03834 28.9947C9.52499 28.9947 9.77183 29.3087 9.77183 29.8737V31.7294H10.5124V29.8807C10.4973 29.7668 10.5076 29.651 10.5427 29.5415C10.5778 29.4319 10.6368 29.3314 10.7155 29.2469C10.7942 29.1624 10.8907 29.096 10.9982 29.0524C11.1057 29.0089 11.2215 28.9892 11.3376 28.9947C11.8383 28.9947 12.0781 29.3087 12.0781 29.8737V31.7294L12.8186 31.7154ZM23.7751 28.3808H22.5691V27.3693H21.8286V28.3808H21.1586V29.0436H21.8427V30.5783C21.8427 31.3527 22.1459 31.8131 23.0134 31.8131C23.3375 31.814 23.6553 31.7245 23.9303 31.555L23.7187 30.9341C23.522 31.0502 23.2988 31.115 23.0699 31.1225C22.7172 31.1225 22.5832 30.8992 22.5832 30.5644V29.0436H23.7822L23.7751 28.3808ZM30.031 28.2971C29.8521 28.2919 29.6752 28.3345 29.5188 28.4205C29.3624 28.5064 29.2323 28.6325 29.1423 28.7854V28.3808H28.4159V31.7154H29.1494V29.8458C29.1494 29.2947 29.3892 28.9878 29.8546 28.9878C30.0115 28.9856 30.1673 29.0141 30.3131 29.0715L30.5388 28.3738C30.3713 28.3145 30.1948 28.2838 30.0168 28.2832L30.031 28.2971ZM20.5732 28.6459C20.158 28.4017 19.6806 28.2807 19.1979 28.2971C18.3445 28.2971 17.7873 28.7017 17.7873 29.3645C17.7873 29.9086 18.1964 30.2435 18.951 30.3481L19.3037 30.3969C19.7057 30.4527 19.8961 30.5574 19.8961 30.7457C19.8961 31.0039 19.6281 31.1504 19.1274 31.1504C18.7246 31.1619 18.3296 31.039 18.006 30.8016L17.6533 31.3666C18.0806 31.6617 18.5923 31.8133 19.1132 31.7991C20.0865 31.7991 20.6508 31.3457 20.6508 30.7109C20.6508 30.076 20.2064 29.8179 19.4729 29.7133L19.1203 29.6644C18.8029 29.6226 18.549 29.5598 18.549 29.3366C18.549 29.1133 18.7888 28.9459 19.1908 28.9459C19.5624 28.9502 19.9266 29.0486 20.2487 29.2319L20.5732 28.6459ZM40.2187 28.2971C40.0399 28.2919 39.8629 28.3345 39.7065 28.4205C39.5501 28.5064 39.4201 28.6325 39.3301 28.7854V28.3808H38.6248V31.7154H39.3547V29.8458C39.3547 29.2947 39.5945 28.9878 40.06 28.9878C40.2169 28.9856 40.3727 29.0141 40.5184 29.0715L40.7441 28.3738C40.5766 28.3145 40.4001 28.2838 40.2222 28.2832L40.2187 28.2971ZM30.7715 30.0412C30.7628 30.2755 30.8036 30.509 30.8914 30.7269C30.9791 30.9447 31.1119 31.142 31.2812 31.3062C31.4505 31.4703 31.6525 31.5977 31.8745 31.6802C32.0964 31.7627 32.3333 31.7985 32.57 31.7852C33.0104 31.8074 33.4432 31.6655 33.783 31.3876L33.4304 30.8016C33.1768 30.9928 32.8676 31.098 32.5488 31.1015C32.2777 31.0798 32.0247 30.958 31.8403 30.7602C31.6559 30.5624 31.5535 30.3032 31.5535 30.0342C31.5535 29.7651 31.6559 29.5059 31.8403 29.3082C32.0247 29.1104 32.2777 28.9885 32.5488 28.9668C32.8676 28.9703 33.1768 29.0755 33.4304 29.2668L33.783 28.6808C33.4432 28.4029 33.0104 28.261 32.57 28.2832C32.3333 28.2699 32.0964 28.3056 31.8745 28.3881C31.6525 28.4706 31.4505 28.598 31.2812 28.7622C31.1119 28.9263 30.9791 29.1236 30.8914 29.3415C30.8036 29.5593 30.7628 29.7929 30.7715 30.0272V30.0412ZM37.6409 30.0412V28.3808H36.9074V28.7854C36.7829 28.6269 36.622 28.4999 36.438 28.415C36.2541 28.3301 36.0524 28.2897 35.8495 28.2971C35.3819 28.2971 34.9334 28.4809 34.6027 28.8079C34.2721 29.135 34.0863 29.5786 34.0863 30.0412C34.0863 30.5037 34.2721 30.9473 34.6027 31.2744C34.9334 31.6014 35.3819 31.7852 35.8495 31.7852C36.0524 31.7926 36.2541 31.7522 36.438 31.6673C36.622 31.5824 36.7829 31.4554 36.9074 31.2969V31.7015H37.6409V30.0412ZM34.9115 30.0412C34.9232 29.8449 34.9927 29.6563 35.1114 29.4985C35.2301 29.3408 35.3928 29.2209 35.5795 29.1535C35.7663 29.0861 35.9689 29.0742 36.1624 29.1192C36.3559 29.1643 36.5318 29.2643 36.6686 29.407C36.8053 29.5498 36.8969 29.7289 36.932 29.9225C36.9671 30.116 36.9442 30.3155 36.8661 30.4963C36.7881 30.6771 36.6582 30.8314 36.4927 30.9402C36.3271 31.049 36.1329 31.1075 35.9341 31.1085C35.7945 31.1103 35.656 31.0834 35.5274 31.0296C35.3988 30.9759 35.2828 30.8964 35.1867 30.7961C35.0907 30.6959 35.0166 30.577 34.9693 30.4471C34.9219 30.3172 34.9022 30.179 34.9115 30.0412ZM26.0602 28.2971C25.5926 28.3036 25.1467 28.4935 24.8207 28.8252C24.4947 29.1568 24.3152 29.603 24.3217 30.0656C24.3283 30.5281 24.5203 30.9691 24.8556 31.2916C25.1909 31.6141 25.642 31.7917 26.1096 31.7852C26.6158 31.8101 27.1133 31.6485 27.5061 31.3317L27.1534 30.7946C26.875 31.0155 26.53 31.1382 26.1731 31.1434C25.9308 31.1631 25.6903 31.089 25.5021 30.9368C25.314 30.7845 25.193 30.566 25.1645 30.3272H27.6683C27.6683 30.2365 27.6683 30.1458 27.6683 30.0481C27.6683 29.0017 27.0124 28.3041 26.0673 28.3041L26.0602 28.2971ZM26.0602 28.9459C26.17 28.9436 26.2791 28.9627 26.3814 29.0021C26.4837 29.0415 26.5772 29.1005 26.6564 29.1756C26.7357 29.2508 26.7992 29.3406 26.8433 29.4401C26.8874 29.5395 26.9113 29.6466 26.9136 29.7551H25.1504C25.1632 29.5312 25.2641 29.3211 25.4315 29.1699C25.5989 29.0187 25.8195 28.9382 26.0461 28.9459H26.0602ZM44.4327 30.0481V27.0414H43.7275V28.7854C43.6029 28.6269 43.442 28.4999 43.2581 28.415C43.0741 28.3301 42.8724 28.2897 42.6695 28.2971C42.2019 28.2971 41.7534 28.4809 41.4228 28.8079C41.0921 29.135 40.9063 29.5786 40.9063 30.0412C40.9063 30.5037 41.0921 30.9473 41.4228 31.2744C41.7534 31.6014 42.2019 31.7852 42.6695 31.7852C42.8724 31.7926 43.0741 31.7522 43.2581 31.6673C43.442 31.5824 43.6029 31.4554 43.7275 31.2969V31.7015H44.4327V30.0481ZM41.7033 30.0481C41.715 29.8518 41.7845 29.6632 41.9032 29.5055C42.0219 29.3478 42.1846 29.2278 42.3714 29.1604C42.5581 29.0931 42.7607 29.0812 42.9542 29.1262C43.1477 29.1713 43.3236 29.2713 43.4604 29.414C43.5971 29.5567 43.6887 29.7359 43.7238 29.9294C43.7589 30.123 43.736 30.3224 43.6579 30.5033C43.5799 30.6841 43.4501 30.8384 43.2845 30.9472C43.1189 31.056 42.9247 31.1145 42.726 31.1155C42.5863 31.1172 42.4479 31.0904 42.3192 31.0366C42.1906 30.9829 42.0746 30.9034 41.9786 30.8031C41.8825 30.7028 41.8085 30.584 41.7611 30.4541C41.7137 30.3242 41.6941 30.1859 41.7033 30.0481ZM16.9375 30.0481V28.3808H16.2216V28.7854C16.097 28.6269 15.9361 28.4999 15.7522 28.415C15.5683 28.3301 15.3665 28.2897 15.1637 28.2971C14.6961 28.2971 14.2476 28.4809 13.9169 28.8079C13.5863 29.135 13.4005 29.5786 13.4005 30.0412C13.4005 30.5037 13.5863 30.9473 13.9169 31.2744C14.2476 31.6014 14.6961 31.7852 15.1637 31.7852C15.3665 31.7926 15.5683 31.7522 15.7522 31.6673C15.9361 31.5824 16.097 31.4554 16.2216 31.2969V31.7015H16.9551L16.9375 30.0481ZM14.208 30.0481C14.2197 29.8518 14.2892 29.6632 14.4079 29.5055C14.5266 29.3478 14.6893 29.2278 14.8761 29.1604C15.0628 29.0931 15.2654 29.0812 15.4589 29.1262C15.6524 29.1713 15.8284 29.2713 15.9651 29.414C16.1018 29.5567 16.1934 29.7359 16.2285 29.9294C16.2636 30.123 16.2407 30.3224 16.1627 30.5033C16.0846 30.6841 15.9548 30.8384 15.7892 30.9472C15.6236 31.056 15.4295 31.1145 15.2307 31.1155C15.0919 31.1158 14.9546 31.0879 14.8273 31.0335C14.6999 30.9791 14.5852 30.8993 14.4903 30.7992C14.3954 30.6991 14.3223 30.5808 14.2755 30.4516C14.2288 30.3224 14.2094 30.1851 14.2186 30.0481H14.208ZM45.6564 31.2306C45.7025 31.2311 45.748 31.2406 45.7904 31.2585C45.8296 31.2752 45.8655 31.2989 45.8962 31.3283C45.9272 31.3583 45.9523 31.3938 45.9702 31.4329C45.9879 31.4737 45.9974 31.5176 45.9985 31.562C45.9983 31.6065 45.9887 31.6504 45.9702 31.691C45.954 31.731 45.9286 31.7668 45.8962 31.7957C45.8664 31.827 45.8304 31.8519 45.7904 31.8689C45.7478 31.8856 45.7022 31.8939 45.6564 31.8933C45.6112 31.8945 45.5663 31.8864 45.5244 31.8696C45.4826 31.8528 45.4446 31.8276 45.4131 31.7957C45.3806 31.7668 45.3553 31.731 45.339 31.691C45.3217 31.6502 45.3133 31.6062 45.3143 31.562C45.3137 31.5177 45.3221 31.4738 45.339 31.4329C45.357 31.3938 45.3821 31.3583 45.4131 31.3283C45.4453 31.2991 45.4822 31.2755 45.5224 31.2585C45.5681 31.2392 45.6173 31.2297 45.667 31.2306H45.6564ZM45.6564 31.8201C45.6903 31.8254 45.7248 31.8254 45.7587 31.8201C45.7878 31.8047 45.8151 31.786 45.8398 31.7643C45.8637 31.7401 45.8828 31.7117 45.8962 31.6806C45.9018 31.6471 45.9018 31.6129 45.8962 31.5794C45.9015 31.5459 45.9015 31.5118 45.8962 31.4782C45.8828 31.4482 45.8636 31.4209 45.8398 31.398C45.816 31.3752 45.7886 31.3564 45.7587 31.3422C45.6925 31.3191 45.6203 31.3191 45.5541 31.3422C45.5227 31.3554 45.494 31.3744 45.4695 31.398C45.4456 31.4209 45.4265 31.4482 45.4131 31.4782C45.4018 31.5108 45.3959 31.545 45.3954 31.5794C45.3955 31.6139 45.4015 31.6481 45.4131 31.6806C45.4265 31.7117 45.4456 31.7401 45.4695 31.7643C45.4948 31.7868 45.5233 31.8056 45.5541 31.8201C45.5915 31.8265 45.6296 31.8265 45.667 31.8201H45.6564ZM45.6776 31.4085C45.7101 31.4059 45.7425 31.4145 45.7692 31.4329C45.7798 31.4419 45.7882 31.4532 45.7937 31.4659C45.7992 31.4786 45.8017 31.4924 45.801 31.5061C45.8015 31.5177 45.7996 31.5293 45.7953 31.5401C45.7911 31.5509 45.7846 31.5607 45.7763 31.5689C45.756 31.5875 45.7299 31.5986 45.7022 31.6003L45.8045 31.7154H45.7234L45.6282 31.6003H45.6V31.7154H45.533V31.4085H45.6776ZM45.6 31.4643V31.548H45.674C45.6878 31.5521 45.7025 31.5521 45.7163 31.548C45.7214 31.5445 45.7256 31.5398 45.7285 31.5343C45.7313 31.5288 45.7328 31.5228 45.7328 31.5166C45.7328 31.5105 45.7313 31.5044 45.7285 31.4989C45.7256 31.4935 45.7214 31.4888 45.7163 31.4852C45.7025 31.4811 45.6878 31.4811 45.674 31.4852L45.6 31.4643ZM45.2015 20.6233V20.2187H45.3672V20.1385H44.9476V20.2187H45.138V20.6233H45.2015ZM46.0161 20.6233V20.1385H45.8891L45.741 20.4873L45.5929 20.1385H45.4907V20.6233H45.5823V20.2745L45.7199 20.5919H45.8151L45.9526 20.2745V20.6233H46.0161ZM24.7484 23.065L25.0552 23.3161C23.1425 24.5711 20.9215 25.2897 18.6287 25.3954C16.3359 25.501 14.057 24.9899 12.0346 23.9163C10.0121 22.8427 8.32179 21.2468 7.14343 19.2985C5.96506 17.3501 5.34277 15.1222 5.34277 12.8519C5.34277 10.5815 5.96506 8.35363 7.14343 6.4053C8.32179 4.45697 10.0121 2.86109 12.0346 1.78748C14.057 0.713874 16.3359 0.202714 18.6287 0.308396C20.9215 0.414077 23.1425 1.13265 25.0552 2.38763L24.7484 2.63878C23.2715 3.90821 22.0872 5.47641 21.2757 7.23744C20.4641 8.99847 20.0441 10.9113 20.0441 12.8466C20.0441 14.782 20.4641 16.6948 21.2757 18.4559C22.0872 20.2169 23.2715 21.7851 24.7484 23.0545V23.065ZM33.7301 0.287808C31.2297 0.282396 28.7839 1.01073 26.702 2.38066L27.0088 2.6318C28.4868 3.90059 29.672 5.46859 30.4842 7.22971C31.2965 8.99082 31.7168 10.904 31.7168 12.8397C31.7168 14.7754 31.2965 16.6885 30.4842 18.4496C29.672 20.2108 28.4868 21.7788 27.0088 23.0475L26.702 23.2987C28.3521 24.3813 30.2353 25.0672 32.2012 25.3014C34.1671 25.5356 36.1611 25.3118 38.0239 24.6477C39.8867 23.9836 41.5666 22.8977 42.9294 21.4768C44.2922 20.0559 45.3001 18.3394 45.8725 16.4644C46.4449 14.5894 46.5659 12.608 46.226 10.6785C45.886 8.74905 45.0945 6.92496 43.9146 5.35206C42.7347 3.77916 41.1992 2.50106 39.4309 1.61991C37.6625 0.738762 35.7102 0.278991 33.7301 0.277344V0.287808ZM25.8839 2.97712C25.7217 3.10269 25.5595 3.23524 25.4043 3.36778C24.034 4.54651 22.9353 6.00231 22.1824 7.63692C21.4295 9.27153 21.0398 11.0469 21.0398 12.8432C21.0398 14.6394 21.4295 16.4148 22.1824 18.0494C22.9353 19.684 24.034 21.1398 25.4043 22.3185C25.5595 22.4511 25.7217 22.5836 25.8839 22.7127C26.0497 22.5836 26.2083 22.4511 26.3635 22.3185C27.7338 21.1398 28.8325 19.684 29.5855 18.0494C30.3384 16.4148 30.728 14.6394 30.728 12.8432C30.728 11.0469 30.3384 9.27153 29.5855 7.63692C28.8325 6.00231 27.7338 4.54651 26.3635 3.36778C26.2083 3.23524 26.0497 3.10269 25.8839 2.97712Z"/>
</svg>
