<svg width="57" height="32" viewBox="0 0 57 32" xmlns="http://www.w3.org/2000/svg">
<path fill-rule="evenodd" clip-rule="evenodd" d="M15.3597 8V8.00699C15.3527 8.00699 13.1333 8 12.5414 10.1031C11.9989 12.0314 10.47 17.3555 10.4277 17.5022H10.0049C10.0049 17.5022 8.44079 12.0594 7.89122 10.0961C7.29938 7.99301 5.07293 8 5.07293 8H0V24H5.07293V14.4978H5.49567L8.45488 24H11.9777L14.937 14.5048H15.3597V24H20.4326V8H15.3597Z"/>
<path fill-rule="evenodd" clip-rule="evenodd" d="M33.89 8C33.89 8 32.4033 8.13276 31.7058 9.67686L28.1125 17.5022H27.6897V8H22.6168V24H27.4079C27.4079 24 28.965 23.8603 29.6625 22.3231L33.1854 14.4978H33.6082V24H38.6811V8H33.89Z" />
<path fill-rule="evenodd" clip-rule="evenodd" d="M40.9357 15.2664V24H46.0087V18.8996H51.5043C53.8999 18.8996 55.929 17.3834 56.6829 15.2664H40.9357Z"/>
<path fill-rule="evenodd" clip-rule="evenodd" d="M51.5043 8H40.2241C40.7878 11.0463 43.0917 13.4917 46.0721 14.2882C46.7485 14.4699 47.4601 14.5677 48.1928 14.5677H56.8873C56.9648 14.2044 57 13.8341 57 13.4498C57 10.4384 54.541 8 51.5043 8Z"/>
</svg>
