<svg width="129" height="57" fill="none" xmlns="http://www.w3.org/2000/svg"><path d="M31 48.4c.337.37 4.805 3.503 8.88 6.327 2.783 1.929 6.253 2.274 9.32.945L60 50.99M31 48.4l3.847.647M31 48.401l1.776 3.237M60 50.991l-2.96-.324m2.96.324l-1.776 2.266" stroke="#926A31"/><path d="M1 21.059L80.216 1 128 13.697l-.212 4.694-76.839 32.524a12.129 12.129 0 01-11.155-.883L1.106 25.86 1 21.059z" fill="#4F4F4F" fill-opacity=".2"/><path d="M1 21.059L80.216 1 128 13.697M1 21.059l.106 4.8 38.688 24.173a12.13 12.13 0 006.862 1.835v0a12.129 12.129 0 004.293-.952l76.839-32.524.212-4.694M1 21.059l38.976 23.695a12.4 12.4 0 006.441 1.805v0a12.4 12.4 0 004.757-.95L128 13.698" stroke="#4F4F4F" stroke-opacity=".6"/></svg>