<svg width="146" height="88" viewBox="0 0 146 88" fill="none" xmlns="http://www.w3.org/2000/svg">
<g clip-path="url(#clip0)">
<path d="M0 37.8117L91.0669 15L146 29.4393L145.756 34.7782L57.4253 71.7649C55.8582 72.4211 54.1852 72.7882 52.4873 72.8485C49.7044 72.9473 46.9548 72.2186 44.5861 70.7545L0.122074 43.272L0 37.8117Z" fill="#4F4F4F" fill-opacity="0.2"/>
<path d="M0 37.8117L91.0669 15L146 29.4393M0 37.8117L0.122074 43.272L44.5861 70.7545C46.9548 72.2186 49.7044 72.9473 52.4873 72.8485V72.8485C54.1852 72.7882 55.8582 72.4211 57.4253 71.7649L145.756 34.7782L146 29.4393M0 37.8117L44.7961 64.753C47.0357 66.1 49.5999 66.8117 52.2134 66.8117V66.8117C54.0898 66.8117 55.9481 66.4448 57.6836 65.7316L146 29.4393" stroke="#4F4F4F" stroke-opacity="0.6"/>
</g>
<defs>
<clipPath id="clip0">
<rect width="146" height="88" fill="white"/>
</clipPath>
</defs>
</svg>
