<svg width="124" height="88" viewBox="0 0 124 88" fill="none" xmlns="http://www.w3.org/2000/svg">
<g clip-path="url(#clip0)">
<path d="M124 16.7117L54.0746 0L37.3138 2.93584L37.693 12.9478L19.7945 16.2601L20.2495 26.9495L0 31.4662L1.06178 42.3062L58.7768 88L84.1835 74.6005L84.4869 60.2977L104.736 50.7374L105.798 36.9615L122.787 30.1112L124 16.7117Z" fill="#4F4F4F" fill-opacity="0.2"/>
<path d="M124 16.7117L54.0746 0L37.3138 2.93584M124 16.7117L122.787 30.1112L105.798 36.9615M124 16.7117L106.177 22.5081M37.3138 2.93584L37.693 12.9478M37.3138 2.93584L106.177 22.5081M37.693 12.9478L19.7945 16.2601M37.693 12.9478L105.04 36.9615M19.7945 16.2601L20.2495 26.9495M19.7945 16.2601L84.5627 45.4679M20.2495 26.9495L-1.99676e-06 31.4662M20.2495 26.9495L83.8043 60.2977M-1.99676e-06 31.4662L1.06177 42.3062L58.7768 88M-1.99676e-06 31.4662L58.7009 72.568M58.7768 88L84.1835 74.6005L84.4868 60.2977M58.7768 88L58.7009 72.568M84.4868 60.2977L104.736 50.7374L105.798 36.9615M84.4868 60.2977H83.8043M84.4868 60.2977L58.7009 72.568M105.798 36.9615H105.04M105.798 36.9615C105.555 37.2024 91.5401 42.7328 84.5627 45.4679M106.177 22.5081L105.04 36.9615M84.5627 45.4679L83.8043 60.2977" stroke="#4F4F4F" stroke-opacity="0.6"/>
</g>
<defs>
<clipPath id="clip0">
<rect width="124" height="88" fill="white"/>
</clipPath>
</defs>
</svg>
