<svg width="76" height="44" viewBox="0 0 76 44" fill="none" xmlns="http://www.w3.org/2000/svg">
<path d="M74.8889 25.2083L33.7639 43L1.68056 35.125L1 12.9583L45.5278 1L59.2361 3.24834C68.5859 6.37701 74.8889 15.1326 74.8889 24.992V25.2083Z" fill="#D2D2D2"/>
<path d="M33.7639 43L74.8889 25.2083V24.992C74.8889 15.1326 68.5859 6.37701 59.2361 3.24834M33.7639 43L1.68056 35.125L1 12.9583M33.7639 43L33.6975 42.0099C32.956 30.944 26.3915 21.1051 16.4583 16.1719M1 12.9583L45.5278 1L59.2361 3.24834M1 12.9583L16.4583 16.1719M16.4583 16.1719L59.2361 3.24834" stroke="#838383"/>
</svg>
