<svg width="76" height="44" viewBox="0 0 76 44" fill="none" xmlns="http://www.w3.org/2000/svg">
<path d="M74.8889 25.2083L33.7639 43L1.68056 35.125L1 12.9583L45.5278 1L70.0278 4.56954L70.1257 6.09498C70.2964 8.75225 72.2655 10.9465 74.8889 11.4028V25.2083Z" fill="#D2D2D2"/>
<path d="M33.7639 43L74.8889 25.2083V11.4028M33.7639 43L1.68056 35.125L1 12.9583M33.7639 43V26.2778M1 12.9583L45.5278 1L70.0278 4.56954M1 12.9583L27.5417 18.0776M33.7639 26.2778L74.8889 11.4028M33.7639 26.2778C30.4988 25.94 27.9428 23.315 27.6921 20.042L27.5417 18.0776M27.5417 18.0776L70.0278 4.56954M70.0278 4.56954L70.1257 6.09498C70.2964 8.75225 72.2655 10.9465 74.8889 11.4028" stroke="#838383"/>
</svg>
