<svg width="76" height="44" viewBox="0 0 76 44" fill="none" xmlns="http://www.w3.org/2000/svg">
<path d="M74.8889 25.2083L33.7639 43L1.68056 35.125L1 12.9583L45.5278 1L62.1528 3.42219V8.58333C69.6051 10.29 74.8889 16.9206 74.8889 24.5658V25.2083Z" fill="#D2D2D2"/>
<path d="M33.7639 43L74.8889 25.2083V24.5658C74.8889 16.9206 69.6051 10.29 62.1528 8.58333M33.7639 43L1.68056 35.125L1 12.9583M33.7639 43V37.9994C33.7639 31.0086 29.1171 24.8699 22.3889 22.9722M1 12.9583L45.5278 1L62.1528 3.42219M1 12.9583L22.3889 17.0838M22.3889 17.0838V22.9722M22.3889 17.0838L62.1528 3.42219M22.3889 22.9722L62.1528 8.58333M62.1528 8.58333V3.42219" stroke="#838383"/>
</svg>
