<?xml version="1.0" encoding="utf-8"?><svg viewBox="0 0 201 201" xmlns="http://www.w3.org/2000/svg" xmlns:xlink="http://www.w3.org/1999/xlink"><style>:root>svg{display:none}:root>svg:target{display:block}</style><svg fill="none" viewBox="0 0 201 7" id="arrow-horizon" xmlns="http://www.w3.org/2000/svg"><path fill-rule="evenodd" clip-rule="evenodd" d="M.095 3.5L4.496.583l.553.834L2.659 3H200.5v1H2.66l2.389 1.583-.553.834L.095 3.5z" fill="#161615"/></svg><svg fill="none" viewBox="0 0 7 201" id="arrow-vertical" xmlns="http://www.w3.org/2000/svg"><g clip-path="url(#bclip0)"><path fill-rule="evenodd" clip-rule="evenodd" d="M3.5.095l2.917 4.401-.834.553L4 2.659V200.5H3V2.66L1.417 5.049l-.834-.553L3.5.095z" fill="#161615"/></g><defs><clipPath id="bclip0"><path fill="#fff" transform="rotate(90 3.5 3.5)" d="M0 0h201v7H0z"/></clipPath></defs></svg><svg fill="none" viewBox="0 0 126 90" id="category-stage" xmlns="http://www.w3.org/2000/svg"><path d="M125 17.712L55.075 1 38.314 3.936l.379 10.012-17.898 3.312.454 10.69L1 32.465l1.062 10.84L59.777 89l25.406-13.4.304-14.302 20.249-9.56 1.062-13.776 16.989-6.85 1.213-13.4z" fill="#4F4F4F" fill-opacity=".2"/><path d="M125 17.712L55.075 1 38.314 3.936M125 17.712l-1.213 13.4-16.989 6.85M125 17.712l-17.823 5.796M38.314 3.936l.379 10.012m-.38-10.012l68.864 19.572m-68.484-9.56L20.795 17.26m17.898-3.312l67.347 24.014M20.794 17.26l.456 10.69m-.456-10.69l64.769 29.208M21.249 27.949L1 32.467m20.25-4.517l63.554 33.349M1 32.466l1.062 10.84L59.777 89M1 32.466l58.7 41.102M59.778 89l25.406-13.4.304-14.302M59.777 89L59.7 73.568m25.786-12.27l20.249-9.56 1.062-13.776M85.487 61.297h-.683m.683 0L59.7 73.568m47.097-35.606h-.758m.758 0c-.243.24-14.258 5.77-21.235 8.506m21.614-22.96l-1.137 14.454m-20.477 8.506l-.759 14.83" stroke="#4F4F4F" stroke-opacity=".6"/></svg><svg fill="none" viewBox="0 0 148 60" id="category-table" xmlns="http://www.w3.org/2000/svg"><path d="M1 23.812L92.067 1 147 15.44l-.244 5.338-88.33 36.987a14.079 14.079 0 01-12.84-1.01L1.122 29.271 1 23.812z" fill="#4F4F4F" fill-opacity=".2"/><path d="M1 23.812L92.067 1 147 15.44M1 23.811l.122 5.46 44.464 27.483a14.078 14.078 0 007.901 2.093v0c1.698-.06 3.371-.427 4.938-1.083l88.331-36.987.244-5.339M1 23.812l44.796 26.941a14.391 14.391 0 007.417 2.059v0c1.877 0 3.735-.367 5.47-1.08L147 15.439" stroke="#4F4F4F" stroke-opacity=".6"/></svg><svg fill="none" viewBox="0 0 120 74" id="category-windowsill" xmlns="http://www.w3.org/2000/svg"><path d="M84.978 1C82.9 1.808 29.485 28.139 3.037 41.203l-.4 3.03v2.223c-1.764.757-1.998 1.608-1.199 3.838l42.17 22.02c1.778.926 2.778.903 4.597 0l70.749-60.203c.162-1.105-.073-1.636-1.199-2.424l-1.999-.606-.999-.606L84.978 1z" fill="#4F4F4F" fill-opacity=".2"/><path d="M3.037 41.203C29.485 28.139 82.9 1.808 84.978 1l29.779 7.475M3.037 41.203l-.4 3.03v2.223m.4-5.253c16.236 8.313 25.537 12.852 42.37 20.808m0 0v6.263m0-6.263c27.34-20.762 42.469-32.516 69.35-53.536m0 0l.999.606 1.999.606m0 0S45.406 69.284 45.406 68.274m72.349-58.587c1.126.788 1.361 1.319 1.199 2.424l-70.75 60.204c-1.818.902-2.818.925-4.596 0L1.438 50.294c-.799-2.23-.565-3.081 1.2-3.838m0 0c-.217.23 25.717 13.67 42.768 21.818" stroke="#4F4F4F" stroke-opacity=".6"/></svg></svg>