<?xml version="1.0" encoding="utf-8"?><svg viewBox="0 0 201 201" xmlns="http://www.w3.org/2000/svg" xmlns:xlink="http://www.w3.org/1999/xlink"><style>:root>svg{display:none}:root>svg:target{display:block}</style><svg fill="none" viewBox="0 0 201 7" id="arrow-horizon" xmlns="http://www.w3.org/2000/svg"><path fill-rule="evenodd" clip-rule="evenodd" d="M.095 3.5L4.496.583l.553.834L2.659 3H200.5v1H2.66l2.389 1.583-.553.834L.095 3.5z" fill="#161615"/></svg><svg fill="none" viewBox="0 0 7 201" id="arrow-vertical" xmlns="http://www.w3.org/2000/svg"><g clip-path="url(#bclip0)"><path fill-rule="evenodd" clip-rule="evenodd" d="M3.5.095l2.917 4.401-.834.553L4 2.659V200.5H3V2.66L1.417 5.049l-.834-.553L3.5.095z" fill="#161615"/></g><defs><clipPath id="bclip0"><path fill="#fff" transform="rotate(90 3.5 3.5)" d="M0 0h201v7H0z"/></clipPath></defs></svg><svg fill="none" viewBox="0 0 126 90" id="category-stage" xmlns="http://www.w3.org/2000/svg"><path d="M125 17.712L55.075 1 38.314 3.936l.379 10.012-17.898 3.312.454 10.69L1 32.465l1.062 10.84L59.777 89l25.406-13.4.304-14.302 20.249-9.56 1.062-13.776 16.989-6.85 1.213-13.4z" fill="#4F4F4F" fill-opacity=".2"/><path d="M125 17.712L55.075 1 38.314 3.936M125 17.712l-1.213 13.4-16.989 6.85M125 17.712l-17.823 5.796M38.314 3.936l.379 10.012m-.38-10.012l68.864 19.572m-68.484-9.56L20.795 17.26m17.898-3.312l67.347 24.014M20.794 17.26l.456 10.69m-.456-10.69l64.769 29.208M21.249 27.949L1 32.467m20.25-4.517l63.554 33.349M1 32.466l1.062 10.84L59.777 89M1 32.466l58.7 41.102M59.778 89l25.406-13.4.304-14.302M59.777 89L59.7 73.568m25.786-12.27l20.249-9.56 1.062-13.776M85.487 61.297h-.683m.683 0L59.7 73.568m47.097-35.606h-.758m.758 0c-.243.24-14.258 5.77-21.235 8.506m21.614-22.96l-1.137 14.454m-20.477 8.506l-.759 14.83" stroke="#4F4F4F" stroke-opacity=".6"/></svg><svg fill="none" viewBox="0 0 148 60" id="category-table" xmlns="http://www.w3.org/2000/svg"><path d="M1 23.812L92.067 1 147 15.44l-.244 5.338-88.33 36.987a14.079 14.079 0 01-12.84-1.01L1.122 29.271 1 23.812z" fill="#4F4F4F" fill-opacity=".2"/><path d="M1 23.812L92.067 1 147 15.44M1 23.811l.122 5.46 44.464 27.483a14.078 14.078 0 007.901 2.093v0c1.698-.06 3.371-.427 4.938-1.083l88.331-36.987.244-5.339M1 23.812l44.796 26.941a14.391 14.391 0 007.417 2.059v0c1.877 0 3.735-.367 5.47-1.08L147 15.439" stroke="#4F4F4F" stroke-opacity=".6"/></svg><svg fill="none" viewBox="0 0 120 74" id="category-windowsill" xmlns="http://www.w3.org/2000/svg"><path d="M84.978 1C82.9 1.808 29.485 28.139 3.037 41.203l-.4 3.03v2.223c-1.764.757-1.998 1.608-1.199 3.838l42.17 22.02c1.778.926 2.778.903 4.597 0l70.749-60.203c.162-1.105-.073-1.636-1.199-2.424l-1.999-.606-.999-.606L84.978 1z" fill="#4F4F4F" fill-opacity=".2"/><path d="M3.037 41.203C29.485 28.139 82.9 1.808 84.978 1l29.779 7.475M3.037 41.203l-.4 3.03v2.223m.4-5.253c16.236 8.313 25.537 12.852 42.37 20.808m0 0v6.263m0-6.263c27.34-20.762 42.469-32.516 69.35-53.536m0 0l.999.606 1.999.606m0 0S45.406 69.284 45.406 68.274m72.349-58.587c1.126.788 1.361 1.319 1.199 2.424l-70.75 60.204c-1.818.902-2.818.925-4.596 0L1.438 50.294c-.799-2.23-.565-3.081 1.2-3.838m0 0c-.217.23 25.717 13.67 42.768 21.818" stroke="#4F4F4F" stroke-opacity=".6"/></svg><svg fill="none" viewBox="0 0 76 44" id="chamfer-01" xmlns="http://www.w3.org/2000/svg"><path d="M1 12.903L45.672 1l22.05 3.164c1.92.275 4.464 1.515 5.656 3.043C74.907 9.166 75 10.917 75 13.401v11.89L33.727 43 1.583 34.871 1 12.903z" fill="#4F4F4F" fill-opacity=".2"/><path d="M1 12.903L45.672 1l22.05 3.164c1.92.275 4.464 1.515 5.656 3.043v0C74.907 9.166 75 10.917 75 13.401v11.89L33.727 43M1 12.903l.583 21.968L33.727 43M1 12.903l23.098 4.539c2.954.58 6.104 1.519 7.744 4.044v0c1.209 1.863 1.43 4.16 1.488 6.38L33.727 43" stroke="#4F4F4F" stroke-opacity=".6"/></svg><svg fill="none" viewBox="0 0 76 44" id="chamfer-02" xmlns="http://www.w3.org/2000/svg"><path d="M1 13.014L44.738 1l27.779 4L75 7.5V25L34.275 43 1.383 35.023 1 13.013z" fill="#4F4F4F" fill-opacity=".2"/><path d="M1 13.014L44.738 1l27.779 4M1 13.014l.383 22.009L34.275 43M1 13.014L31.792 18M72.517 5L75 7.5M72.517 5L31.792 18M75 7.5V25L34.275 43M75 7.5l-40.725 14m0 21.5V21.5M31.792 18l2.483 3.5" stroke="#4F4F4F" stroke-opacity=".6"/></svg><svg fill="none" viewBox="0 0 129 57" id="rounding-0" xmlns="http://www.w3.org/2000/svg"><path d="M1 21.05L80.216 1 128 13.692l-.212 4.692L46 53 1.106 25.85 1 21.05z" fill="#4F4F4F" fill-opacity=".2"/><path d="M1 21.05L80.216 1 128 13.692M1 21.05l.106 4.8L46 53l81.788-34.615.212-4.693M1 21.05l45.5 26.851 81.5-34.21" stroke="#4F4F4F" stroke-opacity=".6"/></svg><svg fill="none" viewBox="0 0 129 57" id="rounding-1" xmlns="http://www.w3.org/2000/svg"><path d="M31 48.4c.337.37 4.805 3.503 8.88 6.327 2.783 1.929 6.253 2.274 9.32.945L60 50.99M31 48.4l3.847.647M31 48.401l1.776 3.237M60 50.991l-2.96-.324m2.96.324l-1.776 2.266" stroke="#926A31"/><path d="M1 21.059L80.216 1 128 13.697l-.212 4.694-76.839 32.524a12.129 12.129 0 01-11.155-.883L1.106 25.86 1 21.059z" fill="#4F4F4F" fill-opacity=".2"/><path d="M1 21.059L80.216 1 128 13.697M1 21.059l.106 4.8 38.688 24.173a12.13 12.13 0 006.862 1.835v0a12.129 12.129 0 004.293-.952l76.839-32.524.212-4.694M1 21.059l38.976 23.695a12.4 12.4 0 006.441 1.805v0a12.4 12.4 0 004.757-.95L128 13.698" stroke="#4F4F4F" stroke-opacity=".6"/></svg><svg fill="none" viewBox="0 0 120 57" id="rounding-2" xmlns="http://www.w3.org/2000/svg"><path d="M33 53.333C51.637 57.801 62.29 56.436 78 48m-45 5.333l4.898-.889m-4.898.89L36.673 56M78 48l-5.51.593M78 48l-3.061 3.556" stroke="#926A31"/><path d="M29.48 48.29L1 38.489v-4.43L75.618 1 119 7.134V10.721a1 1 0 01-.405.803l-41.61 30.793c-3.899 2.885-8.164 5.308-12.843 6.586-7.671 2.094-14.367 2.521-24.018 1.717-3.633-.303-7.198-1.143-10.645-2.33z" fill="#4F4F4F" fill-opacity=".2"/><path d="M119 7.134V10.721a1 1 0 01-.405.803l-41.61 30.793c-3.899 2.885-8.164 5.308-12.843 6.586-7.671 2.094-14.367 2.521-24.018 1.717-3.633-.303-7.198-1.143-10.645-2.33L1 38.489v-4.43M119 7.134L75.618 1 1 34.058M119 7.134L76.389 38.062c-3.507 2.546-7.304 4.715-11.445 5.991-9.133 2.814-16.263 3.05-26.76 1.48-2.345-.35-4.651-.936-6.907-1.667L1 34.058" stroke="#4F4F4F" stroke-opacity=".6"/></svg><svg fill="none" viewBox="0 0 12 6" id="select-arrow" xmlns="http://www.w3.org/2000/svg"><path d="M1 1l5 4 5-4" stroke="#161615" stroke-linecap="round" stroke-linejoin="round"/></svg></svg>