<?xml version="1.0" encoding="utf-8"?><svg viewBox="0 0 382 201" xmlns="http://www.w3.org/2000/svg" xmlns:xlink="http://www.w3.org/1999/xlink"><style>:root>svg{display:none}:root>svg:target{display:block}</style><svg fill="none" viewBox="0 0 201 7" id="arrow-horizon" xmlns="http://www.w3.org/2000/svg"><path fill-rule="evenodd" clip-rule="evenodd" d="M.095 3.5L4.496.583l.553.834L2.659 3H200.5v1H2.66l2.389 1.583-.553.834L.095 3.5z" fill="#161615"/></svg><svg fill="none" viewBox="0 0 26 8" id="arrow-mask" xmlns="http://www.w3.org/2000/svg"><path d="M25 3.5a.5.5 0 010 1v-1zM.646 4.354a.5.5 0 010-.708L3.828.464a.5.5 0 11.708.708L1.707 4l2.829 2.828a.5.5 0 11-.708.708L.646 4.354zM25 4.5H1v-1h24v1z" fill="#000"/></svg><svg fill="none" viewBox="0 0 7 201" id="arrow-vertical" xmlns="http://www.w3.org/2000/svg"><g clip-path="url(#cclip0)"><path fill-rule="evenodd" clip-rule="evenodd" d="M3.5.095l2.917 4.401-.834.553L4 2.659V200.5H3V2.66L1.417 5.049l-.834-.553L3.5.095z" fill="#161615"/></g><defs><clipPath id="cclip0"><path fill="#fff" transform="rotate(90 3.5 3.5)" d="M0 0h201v7H0z"/></clipPath></defs></svg><svg fill="none" viewBox="0 0 25 8" id="button-arrow" xmlns="http://www.w3.org/2000/svg"><path d="M.646 4.354a.5.5 0 010-.708L3.828.464a.5.5 0 11.708.708L1.707 4l2.829 2.828a.5.5 0 11-.708.708L.646 4.354zM25 4.5H13v-1h12v1zm-12 0H1v-1h12v1z" fill="#4F4F4F"/></svg><svg fill="none" viewBox="0 0 64 64" id="ficha-icon-1" xmlns="http://www.w3.org/2000/svg"><path d="M55.04 9.4a4.058 4.058 0 00-3.094-1.43h-3.917V6.748A2.751 2.751 0 0045.28 4H18.72a2.751 2.751 0 00-2.749 2.747V7.97h-3.917A4.058 4.058 0 008.96 9.4a4 4 0 00-.907 3.24c1.03 6.321 5.011 11.906 10.663 14.97a27.64 27.64 0 001.753 3.51c2.08 3.497 4.667 5.914 7.514 7.083.288 2.914-1.653 5.675-4.576 6.333l-.017.005c-.57.136-.995.647-.995 1.259v5.946h-2.407a3.894 3.894 0 00-3.892 3.888v3.069c0 .716.58 1.296 1.297 1.296h29.34c.716 0 1.297-.58 1.297-1.296v-3.069a3.894 3.894 0 00-3.892-3.888H41.73V45.8c0-.613-.426-1.125-.998-1.26l-.016-.004c-2.945-.663-4.89-3.451-4.571-6.387 2.797-1.188 5.338-3.584 7.387-7.03a27.652 27.652 0 001.753-3.51c5.652-3.063 9.634-8.648 10.663-14.97a4 4 0 00-.908-3.24zm-44.427 2.824c-.067-.414.047-.82.323-1.145.28-.328.687-.517 1.118-.517h3.917v2.385c0 3.74.478 7.361 1.383 10.673-3.558-2.808-6.007-6.888-6.741-11.396zM44.137 54.34c.716 0 1.298.582 1.298 1.296v1.773H18.689v-1.773c0-.714.582-1.296 1.298-1.296h24.15zm-5.002-7.242v4.65H24.99v-4.65h14.146zm-10.744-2.592c.32-.353.614-.735.876-1.144a8.426 8.426 0 001.339-4.449c.46.063.926.096 1.395.096.51 0 1.016-.039 1.516-.113a8.528 8.528 0 002.228 5.61h-7.354zm17.043-31.558c0 6.385-1.467 12.37-4.132 16.85-2.54 4.268-5.843 6.62-9.301 6.62-3.46 0-6.763-2.352-9.303-6.62-2.665-4.48-4.132-10.465-4.132-16.85v-6.2c0-.086.07-.155.154-.155h26.56c.085 0 .154.07.154.155v6.2zm7.953-.723c-.734 4.507-3.183 8.587-6.74 11.396.904-3.312 1.382-6.934 1.382-10.673v-2.384h3.917c.43 0 .838.188 1.118.516.276.324.39.73.323 1.145z" fill="#926A31"/><path d="M39.876 17.306a1.298 1.298 0 00-1.047-.882l-3.915-.568-1.75-3.544a1.298 1.298 0 00-2.327 0l-1.751 3.544-3.915.568a1.297 1.297 0 00-.719 2.211l2.833 2.759-.669 3.895a1.295 1.295 0 001.882 1.366L32 24.816l3.501 1.84a1.297 1.297 0 001.883-1.367l-.67-3.895 2.834-2.759c.353-.344.48-.86.328-1.329zm-5.46 2.707a1.295 1.295 0 00-.373 1.147l.34 1.979-1.78-.934a1.297 1.297 0 00-1.207 0l-1.778.934.34-1.979c.072-.42-.068-.85-.374-1.147l-1.439-1.401 1.989-.289c.422-.061.788-.326.977-.709l.889-1.8.89 1.8c.188.383.553.648.976.71l1.988.288-1.438 1.401z" fill="#926A31"/></svg><svg fill="none" viewBox="0 0 10 6" id="icon-arrow-drop" xmlns="http://www.w3.org/2000/svg"><path d="M1 1l4 4 4-4" stroke="#4F4F4F"/></svg><svg fill="none" viewBox="0 0 12 12" id="icon-con-clock" xmlns="http://www.w3.org/2000/svg"><path fill-rule="evenodd" clip-rule="evenodd" d="M6 1.5a4.5 4.5 0 100 9 4.5 4.5 0 000-9zM.5 6a5.5 5.5 0 1111 0 5.5 5.5 0 01-11 0z" fill="#4F4F4F"/><path fill-rule="evenodd" clip-rule="evenodd" d="M6 2.5a.5.5 0 01.5.5v2.691l1.724.862a.5.5 0 11-.448.894l-2-1A.5.5 0 015.5 6V3a.5.5 0 01.5-.5z" fill="#4F4F4F"/></svg><svg fill="none" viewBox="0 0 12 12" id="icon-con-mail" xmlns="http://www.w3.org/2000/svg"><path fill-rule="evenodd" clip-rule="evenodd" d="M2 2.5c-.274 0-.5.226-.5.5v6c0 .274.226.5.5.5h8c.274 0 .5-.226.5-.5V3c0-.274-.226-.5-.5-.5H2zM.5 3c0-.826.674-1.5 1.5-1.5h8c.826 0 1.5.674 1.5 1.5v6c0 .826-.674 1.5-1.5 1.5H2C1.174 10.5.5 9.826.5 9V3z" fill="#4F4F4F"/><path fill-rule="evenodd" clip-rule="evenodd" d="M.59 2.713a.5.5 0 01.697-.123L6 5.89l4.713-3.3a.5.5 0 01.574.82l-5 3.5a.5.5 0 01-.574 0l-5-3.5a.5.5 0 01-.123-.697z" fill="#4F4F4F"/></svg><svg fill="none" viewBox="0 0 12 12" id="icon-con-map-pin" xmlns="http://www.w3.org/2000/svg"><path fill-rule="evenodd" clip-rule="evenodd" d="M6 1a4 4 0 00-4 4c0 1.549 1.008 3.052 2.113 4.219A14.713 14.713 0 006 10.886a14.713 14.713 0 001.887-1.668C8.992 8.053 10 6.55 10 5a4 4 0 00-4-4zm0 10.5l-.278.416-.001-.001-.003-.002-.012-.008a5.091 5.091 0 01-.192-.135 15.716 15.716 0 01-2.127-1.863C2.242 8.696 1 6.95 1 5a5 5 0 1110 0c0 1.951-1.242 3.698-2.387 4.906a15.716 15.716 0 01-2.32 1.999l-.01.008-.004.002h-.001L6 11.5zm0 0l.277.416a.5.5 0 01-.555 0L6 11.5z" fill="#4F4F4F"/><path fill-rule="evenodd" clip-rule="evenodd" d="M6 4a1 1 0 100 2 1 1 0 000-2zM4 5a2 2 0 114 0 2 2 0 01-4 0z" fill="#4F4F4F"/></svg><svg fill="none" viewBox="0 0 12 12" id="icon-con-phone" xmlns="http://www.w3.org/2000/svg"><path d="M11 8.46v1.5a1 1 0 01-1.09 1 9.894 9.894 0 01-4.315-1.535 9.75 9.75 0 01-3-3A9.895 9.895 0 011.06 2.09 1 1 0 012.055 1h1.5a1 1 0 011 .86c.064.48.18.951.35 1.405A1 1 0 014.68 4.32l-.635.635a8 8 0 003 3l.635-.635a1 1 0 011.055-.225c.454.17.925.287 1.405.35A1 1 0 0111 8.46z" stroke="#4F4F4F" stroke-linecap="round" stroke-linejoin="round"/></svg><svg fill="inherit" viewBox="0 0 28 28" id="icon-facebook" xmlns="http://www.w3.org/2000/svg"><path d="M14.79 26V15.053h3.536l.53-4.267H14.79V8.062c0-1.235.329-2.077 2.036-2.077L19 5.984V2.167C18.624 2.117 17.333 2 15.831 2c-3.136 0-5.284 1.988-5.284 5.64v3.146H7v4.267h3.547V26h4.243z"/></svg><svg fill="inherit" viewBox="0 0 28 28" id="icon-insta" xmlns="http://www.w3.org/2000/svg"><path fill-rule="evenodd" clip-rule="evenodd" d="M14 2.412c3.909 0 4.372.014 5.915.084 1.427.066 2.202.304 2.718.504.683.266 1.17.583 1.682 1.095.512.513.83 1 1.096 1.684.2.516.439 1.29.504 2.718.07 1.543.085 2.006.085 5.913 0 3.907-.015 4.371-.085 5.914-.066 1.428-.304 2.202-.504 2.718a4.527 4.527 0 01-1.096 1.682c-.512.512-.999.83-1.682 1.095-.515.2-1.29.439-2.718.504-1.543.07-2.006.085-5.915.085-3.908 0-4.372-.015-5.915-.085-1.427-.066-2.202-.304-2.718-.505a4.535 4.535 0 01-1.683-1.095c-.513-.512-.83-.999-1.096-1.682-.2-.516-.439-1.29-.504-2.718C2.014 18.78 2 18.316 2 14.407c0-3.91.014-4.37.084-5.914.065-1.428.304-2.202.504-2.718A4.535 4.535 0 013.684 4.09c.512-.512 1-.83 1.683-1.095.516-.202 1.29-.44 2.718-.505L14 2.412zM20.057 6.6a1.757 1.757 0 113.513 0 1.757 1.757 0 01-3.513 0zM14 6.896a7.518 7.518 0 000 15.034 7.516 7.516 0 007.516-7.516A7.517 7.517 0 0014 6.896z"/><path d="M14 9.534a4.88 4.88 0 110 9.76 4.88 4.88 0 010-9.76z"/></svg><svg fill="none" viewBox="0 0 24 24" id="icon-search" xmlns="http://www.w3.org/2000/svg"><circle cx="10.5" cy="10.5" r="5" stroke="#000"/><path d="M18 18.576L13.5 14" stroke="#000"/></svg><svg fill="none" viewBox="0 0 23 20" id="icon-unload" xmlns="http://www.w3.org/2000/svg"><path d="M20.316 6.89V6.8c.002-3.754-2.915-6.798-6.514-6.8-2.19-.001-4.233 1.144-5.44 3.049-2.414-.84-5.023.519-5.828 3.035-.157.489-.237 1-.237 1.515v.103c-1.64.444-2.624 2.19-2.198 3.9.351 1.408 1.57 2.392 2.965 2.394l4.125-.012c.211 0 .455-.167.455-.387 0-.221-.244-.4-.455-.4H3.064c-1.27-.008-2.295-1.088-2.287-2.413.007-1.188.846-2.192 1.973-2.36a.396.396 0 00.331-.431 4.925 4.925 0 01-.017-.394c.002-2.21 1.723-4 3.843-3.998.503.001 1 .105 1.465.305.176.077.38.007.477-.164 1.617-2.85 5.144-3.795 7.878-2.108 1.75 1.08 2.824 3.044 2.822 5.166 0 .132-.003.26-.013.39a.396.396 0 00.337.43c1.47.19 2.515 1.588 2.333 3.122-.166 1.4-1.304 2.451-2.657 2.455-1.484.002-2.968 0-4.453 0-.212 0-.431.179-.431.4 0 .22.22.387.431.387l4.453.012c1.906 0 3.451-1.61 3.451-3.598 0-1.68-1.114-3.135-2.684-3.508z" fill="#161615"/><path d="M14.669 16.041l-2.633 2.633V7.771a.388.388 0 00-.776 0v10.903l-2.633-2.633a.388.388 0 00-.55.55l3.296 3.295a.388.388 0 00.55 0l3.295-3.295a.388.388 0 00-.549-.55z" fill="#161615"/></svg><svg fill="inherit" viewBox="0 0 28 28" id="icon-vk" xmlns="http://www.w3.org/2000/svg"><path d="M25.786 19.487c-.064-.11-.463-.997-2.384-2.819-2.01-1.908-1.74-1.598.681-4.897 1.475-2.009 2.065-3.236 1.88-3.76-.175-.5-1.26-.368-1.26-.368l-3.606.021s-.267-.037-.467.085c-.193.12-.318.395-.318.395s-.571 1.555-1.333 2.877c-1.607 2.79-2.25 2.937-2.513 2.764-.61-.403-.458-1.623-.458-2.488 0-2.703.4-3.83-.781-4.122-.393-.097-.681-.161-1.685-.172-1.287-.014-2.377.005-2.994.313-.411.206-.728.664-.534.69.238.032.779.149 1.065.548.37.513.357 1.67.357 1.67s.213 3.182-.496 3.578c-.488.271-1.156-.282-2.588-2.814-.734-1.296-1.289-2.73-1.289-2.73s-.106-.267-.297-.41c-.23-.173-.555-.228-.555-.228l-3.43.021s-.514.016-.703.244c-.168.204-.013.624-.013.624s2.685 6.422 5.724 9.66c2.789 2.967 5.954 2.772 5.954 2.772h1.434s.434-.05.654-.293c.204-.224.197-.644.197-.644s-.029-1.968.865-2.258c.881-.285 2.012 1.902 3.21 2.744.907.637 1.595.497 1.595.497l3.206-.046s1.677-.106.882-1.454z"/></svg><svg fill="inherit" viewBox="0 0 28 28" id="icon-yuotube" xmlns="http://www.w3.org/2000/svg"><path fill-rule="evenodd" clip-rule="evenodd" d="M23.39 6.52a3.025 3.025 0 012.116 2.14c.514 1.9.494 5.86.494 5.86s0 3.94-.494 5.84a3.025 3.025 0 01-2.116 2.14C21.512 23 14 23 14 23s-7.493 0-9.39-.52a3.025 3.025 0 01-2.116-2.14C2 18.46 2 14.5 2 14.5s0-3.94.494-5.84C2.771 7.62 3.601 6.78 4.61 6.5 6.488 6 14 6 14 6s7.513 0 9.391.52zm-5.535 7.98l-6.247 3.64v-7.28l6.247 3.64z"/></svg><svg fill="none" viewBox="0 0 223 50" id="logo" xmlns="http://www.w3.org/2000/svg"><g clip-path="url(#qclip0)"><path d="M61.67 20.856a5.757 5.757 0 01.391-2.133 4.63 4.63 0 011.175-1.741A5.528 5.528 0 0165.26 15.8a8.694 8.694 0 012.869-.432 16.292 16.292 0 014.724.715c.465.14.916.318 1.35.533.223.101.345.21.372.31.013.19-.02.38-.095.554l-.675 2.025c-.088.25-.175.398-.27.432a.857.857 0 01-.459 0 26.98 26.98 0 00-2.524-.621 12.48 12.48 0 00-2.362-.243 2.524 2.524 0 00-1.68.432 1.35 1.35 0 00-.487 1.053c-.006.235.05.468.162.675.133.228.312.426.526.58.305.228.633.423.98.58.404.203.904.428 1.498.676.918.364 1.761.729 2.537 1.1a8.612 8.612 0 011.985 1.255 5.197 5.197 0 011.302 1.647c.33.71.491 1.486.473 2.268a5.698 5.698 0 01-.58 2.43 4.852 4.852 0 01-1.438 1.755 6.37 6.37 0 01-2.228 1.053c-.938.243-1.905.36-2.875.35-.606.001-1.212-.03-1.815-.094a16.2 16.2 0 01-1.877-.297 14.082 14.082 0 01-1.822-.526 9.266 9.266 0 01-1.647-.783.498.498 0 01-.257-.297.919.919 0 01.095-.513l.918-2.167a.621.621 0 01.297-.378c.158-.028.32 0 .459.081.358.149.756.297 1.188.452a17.32 17.32 0 002.754.702c.47.08.946.121 1.424.122a5.21 5.21 0 001.404-.162c.327-.086.638-.228.917-.419.218-.148.386-.357.486-.6.09-.228.136-.47.135-.716.006-.25-.045-.5-.148-.729a2.129 2.129 0 00-.486-.634 3.997 3.997 0 00-.918-.594c-.391-.19-.87-.392-1.444-.608a29.483 29.483 0 01-2.599-1.107 10.124 10.124 0 01-2.025-1.255 4.92 4.92 0 01-1.282-1.546 4.218 4.218 0 01-.446-1.984M87.284 34.227c0 .08-.095.155-.297.23a9.82 9.82 0 01-2.025.37c-.67.055-1.237.082-1.7.082-1.553 0-2.66-.324-3.328-.986a3.92 3.92 0 01-1-2.902v-7.708h-1.889c-.196 0-.324-.047-.378-.148a.73.73 0 01-.08-.365v-1.458a.674.674 0 01.067-.364.743.743 0 01.364-.176l2.025-.459.189-2.537a.675.675 0 01.175-.46c.13-.106.282-.18.446-.215l2.477-.817a.5.5 0 01.391.054.527.527 0 01.149.432v3.624h2.97c.202 0 .323.04.364.122a.674.674 0 01.068.337V22.8a.944.944 0 01-.055.392c0 .08-.162.121-.377.121h-2.97v6.891a1.288 1.288 0 00.391 1.087c.35.22.762.325 1.175.297h.459l.553-.054.553-.054.46-.054c.29-.054.445.034.458.27l.324 2.247a2.01 2.01 0 010 .31M102.449 27.45c0 2.376-.567 4.218-1.707 5.514-1.141 1.296-2.862 1.944-5.184 1.944s-4.05-.675-5.136-1.944c-1.087-1.269-1.62-3.118-1.62-5.46a9.578 9.578 0 01.472-3.119 6.345 6.345 0 011.35-2.342 6 6 0 012.133-1.457 7.423 7.423 0 012.855-.513c2.25 0 3.955.652 5.116 1.957 1.148 1.31 1.721 3.111 1.721 5.4v.02zm-4.05.06a9.769 9.769 0 00-.135-1.673 3.719 3.719 0 00-.458-1.296 2.356 2.356 0 00-.837-.85 2.41 2.41 0 00-1.27-.318 2.343 2.343 0 00-2.125 1.1 5.508 5.508 0 00-.675 2.957 6.136 6.136 0 00.634 3.084 2.261 2.261 0 002.1 1.053c.447.011.889-.096 1.282-.31.356-.214.653-.513.864-.871a4.05 4.05 0 00.486-1.283 7.793 7.793 0 00.148-1.593M111.177 23.312h-.769a6.85 6.85 0 00-1.067.115v10.677a.577.577 0 01-.094.392.731.731 0 01-.473.094h-2.787a.726.726 0 01-.432-.094.448.448 0 01-.135-.392V22.53a2.75 2.75 0 01.324-1.444 1.974 1.974 0 011.35-.743 7.42 7.42 0 01.769-.094l1.06-.081 1.12-.068h.958a12.52 12.52 0 013.267.378 5.481 5.481 0 012.275 1.202 5.023 5.023 0 011.35 2.166c.32 1.054.47 2.152.445 3.254v7.053a.577.577 0 01-.094.391c-.061.068-.216.095-.466.095h-2.794a.748.748 0 01-.432-.095.448.448 0 01-.135-.391v-7.324a6.8 6.8 0 00-.149-1.538 2.566 2.566 0 00-.513-1.094 2.113 2.113 0 00-.999-.675 4.836 4.836 0 00-1.579-.222M128.037 20.073c2.11 0 3.685.526 4.725 1.58 1.039 1.052 1.566 2.562 1.579 4.528a2.6 2.6 0 01-.54 1.917 2.028 2.028 0 01-1.485.513h-6.898c.003.49.099.976.284 1.431.147.358.379.675.675.925.298.233.643.399 1.012.486.415.091.838.136 1.262.135a7.27 7.27 0 001.593-.19 9.66 9.66 0 001.512-.485.812.812 0 01.446-.068.46.46 0 01.229.257l.864 1.943a.433.433 0 01.04.378.67.67 0 01-.283.27 6.86 6.86 0 01-2.322.932c-.809.18-1.635.276-2.463.283-2.356 0-4.104-.58-5.238-1.755-1.134-1.174-1.708-3.023-1.708-5.568a9.76 9.76 0 01.48-3.172 6.561 6.561 0 011.35-2.37 5.716 5.716 0 012.105-1.47 7.33 7.33 0 012.768-.5h.013zm.068 3.24a2.324 2.324 0 00-1.809.79 3.37 3.37 0 00-.81 2.024h5.055a4.738 4.738 0 00-.121-1.107 2.428 2.428 0 00-.392-.877 1.894 1.894 0 00-.729-.58 2.75 2.75 0 00-1.194-.223M160.698 34.503a.844.844 0 01-.527.108h-2.834a.727.727 0 01-.486-.122.56.56 0 01-.135-.445v-7.566h-7.324v7.566a.597.597 0 01-.121.459.87.87 0 01-.533.108h-2.862a.746.746 0 01-.472-.122.542.542 0 01-.149-.445V16.246a.54.54 0 01.149-.446.747.747 0 01.472-.121h2.862a.919.919 0 01.533.108.633.633 0 01.121.459v6.749h7.324v-6.75a.56.56 0 01.135-.445.728.728 0 01.486-.121h2.834a.892.892 0 01.527.108.633.633 0 01.121.459V34.03a.616.616 0 01-.121.46M177.713 27.45c0 2.376-.567 4.218-1.701 5.514-1.134 1.296-2.868 1.944-5.19 1.944-2.322 0-4.05-.675-5.137-1.944-1.086-1.269-1.619-3.118-1.619-5.46a9.567 9.567 0 01.472-3.119 6.338 6.338 0 011.35-2.342 5.999 5.999 0 012.133-1.457 7.421 7.421 0 012.855-.513c2.25 0 3.957.652 5.123 1.957 1.14 1.31 1.714 3.111 1.714 5.4v.02zm-4.083.06a9.88 9.88 0 00-.135-1.673 3.741 3.741 0 00-.459-1.296 2.364 2.364 0 00-.837-.85 2.41 2.41 0 00-1.269-.318 2.348 2.348 0 00-2.126 1.1 5.5 5.5 0 00-.675 2.957 6.132 6.132 0 00.634 3.084 2.272 2.272 0 002.099 1.053c.448.011.89-.096 1.283-.31.356-.214.653-.513.864-.871a4.07 4.07 0 00.486-1.283 7.814 7.814 0 00.148-1.593M187.621 31.695h.77c.337 0 .675-.054 1.073-.108V20.91a.61.61 0 01.101-.404c.061-.075.216-.108.473-.108h2.781c.378 0 .567.168.567.512v11.535c.027.512-.1 1.02-.365 1.458a2.025 2.025 0 01-1.309.756c-.216.04-.486.074-.81.108-.324.034-.675.068-1.04.095-.364.027-.735.047-1.1.053h-.945a12.349 12.349 0 01-3.307-.377 4.995 4.995 0 01-2.221-1.215 4.876 4.876 0 01-1.228-2.174 12.226 12.226 0 01-.378-3.26V20.91a.67.67 0 01.095-.404c.06-.075.222-.108.472-.108h2.788c.378 0 .567.168.567.512v7.243c-.007.52.029 1.038.107 1.552.056.4.203.781.432 1.114.234.313.556.548.925.675.502.158 1.027.23 1.552.216M207.599 30.561a3.71 3.71 0 01-1.552 3.267 6.972 6.972 0 01-4.05 1.08 14.931 14.931 0 01-2.956-.31 8.685 8.685 0 01-2.747-1.013.556.556 0 01-.257-.284.62.62 0 01.102-.418l.783-1.863a.673.673 0 01.283-.364.546.546 0 01.446.067c.283.122.607.243.971.364.358.115.736.216 1.121.311s.763.162 1.12.216c.322.05.647.077.972.081.475.04.95-.079 1.35-.337a1.102 1.102 0 00.392-.85 1.118 1.118 0 00-.554-.926 10.23 10.23 0 00-1.91-.89 16.048 16.048 0 01-1.903-.837 7.093 7.093 0 01-1.391-.932 3.277 3.277 0 01-1.161-2.605 4.293 4.293 0 01.324-1.667c.216-.52.548-.982.972-1.35a4.802 4.802 0 011.634-.905 7.288 7.288 0 012.335-.337c.831 0 1.66.077 2.477.23.784.134 1.55.36 2.281.674.194.095.302.19.324.284.011.162-.016.324-.081.472l-.675 1.728c-.076.203-.157.317-.243.344a.81.81 0 01-.432-.067 21.63 21.63 0 00-1.835-.466 9.16 9.16 0 00-1.735-.162 1.418 1.418 0 00-1.053.338 1.02 1.02 0 00-.324.675 1.07 1.07 0 00.493.91 8.21 8.21 0 001.748.81c.675.25 1.255.507 1.836.77.537.24 1.041.548 1.498.918.42.345.765.772 1.013 1.256.264.548.394 1.152.378 1.761M216.495 20.073c2.106 0 3.681.526 4.725 1.58 1.044 1.052 1.57 2.562 1.579 4.528a2.582 2.582 0 01-.54 1.917 2.028 2.028 0 01-1.485.513h-6.904c.002.49.098.976.283 1.431.15.356.381.673.675.925.298.233.644.399 1.012.486.415.091.838.136 1.262.135a7.27 7.27 0 001.593-.19 9.66 9.66 0 001.512-.485.813.813 0 01.446-.068.457.457 0 01.229.257l.864 1.943a.433.433 0 01.041.378.678.678 0 01-.284.27 6.81 6.81 0 01-2.322.932c-.806.18-1.63.275-2.456.283-2.363 0-4.111-.58-5.245-1.755-1.134-1.174-1.707-3.023-1.707-5.568a9.733 9.733 0 01.479-3.172 6.561 6.561 0 011.35-2.37 5.763 5.763 0 012.106-1.47 7.357 7.357 0 012.774-.5h.013zm.068 3.24a2.323 2.323 0 00-1.816.79 3.37 3.37 0 00-.81 2.024h5.055a4.685 4.685 0 00-.121-1.107 2.428 2.428 0 00-.392-.877 1.894 1.894 0 00-.729-.58 2.737 2.737 0 00-1.187-.223" fill="#868789"/><path d="M48.488 0H37.783a2.275 2.275 0 00-1.566.614l-8.18 7.681a1.72 1.72 0 00.108 2.626L38.31 18.98a2.254 2.254 0 002.348.296l8.019-3.577a2.301 2.301 0 001.35-2.085V1.519A1.519 1.519 0 0048.506 0" fill="#C0AA82"/><path d="M32.182.817A1.249 1.249 0 0031 0H6.176a1.208 1.208 0 00-.803 2.113L17.123 12.6a1.816 1.816 0 002.39.034L31.81 2.207a1.248 1.248 0 00.372-1.39" fill="#8C7F72"/><path d="M7.924 6.081l-5.4-4.535A1.451 1.451 0 00.141 2.653v8.956a1.255 1.255 0 002.025.979l5.737-4.57a1.208 1.208 0 00.473-.958 1.242 1.242 0 00-.446-.979M49.001 38.02a1.026 1.026 0 00-.614.209l-8.18 6.364a1.188 1.188 0 00-.466.945v3.105a1.201 1.201 0 001.202 1.202h7.552a1.519 1.519 0 001.512-1.512v-9.308a1.006 1.006 0 00-1.006-1.005" fill="#A1B5BD"/><path d="M48.846 18.015c-.18 0-.358.041-.52.121l-7.343 3.631a2.214 2.214 0 00-1.242 1.991v17.083a1.094 1.094 0 001.094 1.087c.247-.003.485-.091.675-.25l7.647-6.21A2.287 2.287 0 0050 33.695V19.176a1.16 1.16 0 00-1.16-1.161" fill="#9F8574"/><path d="M36.325 40.395H14.37a2.024 2.024 0 00-1.74 1.026l-3.497 6.27a1.464 1.464 0 001.282 2.18h25.911a1.35 1.35 0 001.35-1.35V41.74a1.35 1.35 0 00-1.35-1.35" fill="#8C7F72"/><path d="M15.51 13.101l-4.4-3.908a1.525 1.525 0 00-1.964-.04l-8.248 6.75a2.025 2.025 0 00-.736 1.552v4.367a1.897 1.897 0 00.999 1.667l7.87 4.279c.168.09.356.139.547.142.302-.003.592-.121.81-.331a1.155 1.155 0 00.35-.83v-7.593a.755.755 0 01.304-.608l4.367-3.24a1.425 1.425 0 00.101-2.207z" fill="#9F8574"/><path d="M10.462 30.528l-8.363-4.576A1.418 1.418 0 000 27.194v21.213A1.593 1.593 0 001.593 50h2.93a2.16 2.16 0 001.869-1.08l4.394-7.6a3.476 3.476 0 00.465-1.748v-7.748a1.471 1.471 0 00-.762-1.296" fill="#C0AA82"/><path d="M36.434 20.066l-10.34-7.87a1.68 1.68 0 00-2.025 0L13.762 20.08a2.247 2.247 0 00-.877 1.782v15.45a1.175 1.175 0 001.174 1.174h6.918a.77.77 0 00.77-.776v-7.425a.884.884 0 01.884-.884h4.873a.884.884 0 01.884.884v7.424a.77.77 0 00.776.777h6.946a1.168 1.168 0 001.167-1.175V21.848a2.247 2.247 0 00-.877-1.782" fill="#868789"/></g><defs><clipPath id="qclip0"><path fill="#fff" d="M0 0h222.818v50H0z"/></clipPath></defs></svg><svg fill="none" viewBox="0 0 382 190" id="logo_ver" xmlns="http://www.w3.org/2000/svg"><path d="M1.715 155.536c-.014-1.732.3-3.451.923-5.066a10.993 10.993 0 012.77-4.135 13.01 13.01 0 014.774-2.806 20.367 20.367 0 016.764-1.026c1.178 0 2.42.065 3.724.193a37.87 37.87 0 013.82.577c1.257.256 2.45.577 3.597.93 1.095.33 2.16.754 3.183 1.266.525.24.812.497.875.737.03.45-.046.901-.223 1.315l-1.591 4.809c-.207.593-.414.946-.637 1.026a2.009 2.009 0 01-1.082 0 63.33 63.33 0 00-5.952-1.475c-1.835-.37-3.7-.564-5.57-.577a5.916 5.916 0 00-3.964 1.026 3.222 3.222 0 00-1.146 2.5 3.222 3.222 0 00.383 1.603 4.455 4.455 0 001.24 1.379 12.606 12.606 0 002.309 1.379 58.12 58.12 0 003.533 1.603 95.7 95.7 0 015.984 2.612 20.3 20.3 0 014.679 2.982 12.34 12.34 0 013.072 3.911 12.212 12.212 0 011.114 5.386 13.608 13.608 0 01-1.369 5.771 11.504 11.504 0 01-3.39 4.168 14.983 14.983 0 01-5.252 2.501 25.804 25.804 0 01-6.78.833c-1.43.002-2.86-.073-4.281-.224a38.022 38.022 0 01-4.425-.706 32.951 32.951 0 01-4.297-1.25 21.862 21.862 0 01-3.883-1.859 1.194 1.194 0 01-.605-.706 2.193 2.193 0 01.223-1.218l2.164-5.146a1.474 1.474 0 01.7-.897 1.58 1.58 0 011.083.192c.843.353 1.782.705 2.801 1.074 1.019.369 2.069.673 3.183.962 1.114.288 2.197.513 3.31.705 1.11.191 2.233.288 3.359.289 1.115.023 2.229-.106 3.31-.385a6.997 6.997 0 002.165-.994c.511-.353.91-.849 1.145-1.427.213-.54.32-1.117.319-1.699a4.047 4.047 0 00-.35-1.731 5.044 5.044 0 00-1.146-1.507 9.404 9.404 0 00-2.165-1.41 41.673 41.673 0 00-3.406-1.443 69.312 69.312 0 01-6.127-2.629 23.827 23.827 0 01-4.775-2.982 11.662 11.662 0 01-3.024-3.67 10.081 10.081 0 01-1.05-4.713M62.113 187.292c0 .192-.223.369-.7.545a23.006 23.006 0 01-4.775.882c-1.581.128-2.918.192-4.01.192-3.661 0-6.271-.769-7.847-2.34a9.34 9.34 0 01-2.355-6.893v-18.306h-4.457c-.461 0-.764-.113-.891-.353a1.742 1.742 0 01-.191-.866v-3.462a1.614 1.614 0 01.16-.866c.242-.216.54-.36.859-.417l4.774-1.09.446-6.027a1.609 1.609 0 01.414-1.09 2.478 2.478 0 011.05-.513l5.841-1.939a1.17 1.17 0 01.923.128 1.245 1.245 0 01.35 1.026v8.608h7.003c.477 0 .764.096.86.288.12.249.175.525.158.802v4.552c.024.316-.02.633-.127.93 0 .192-.382.289-.891.289h-7.003v16.366a3.08 3.08 0 00.923 2.581 4.589 4.589 0 002.77.705h1.082l2.61-.256 1.082-.128c.684-.129 1.05.08 1.082.641l.764 5.338c.02.245.02.492 0 .737M97.874 171.198c0 5.642-1.337 10.018-4.026 13.096-2.69 3.078-6.749 4.617-12.224 4.617-5.474 0-9.549-1.603-12.111-4.617-2.562-3.013-3.82-7.406-3.82-12.968a22.894 22.894 0 011.114-7.406 15.09 15.09 0 013.183-5.562 14.155 14.155 0 015.03-3.463 17.39 17.39 0 016.732-1.218c5.305 0 9.326 1.55 12.064 4.649 2.705 3.11 4.058 7.39 4.058 12.824v.048zm-9.55.144c.008-1.332-.098-2.662-.317-3.975a8.87 8.87 0 00-1.083-3.078 5.577 5.577 0 00-1.973-2.02 5.647 5.647 0 00-2.992-.753 5.487 5.487 0 00-2.863.612 5.537 5.537 0 00-2.15 2.001 13.155 13.155 0 00-1.592 7.021 14.658 14.658 0 001.496 7.325 5.343 5.343 0 002.127 1.949c.873.441 1.85.632 2.823.552a5.95 5.95 0 003.023-.737 5.88 5.88 0 002.038-2.068 9.656 9.656 0 001.146-3.046c.245-1.245.362-2.513.35-3.783M118.453 161.371h-1.814c-.844.024-1.685.115-2.515.272v25.36c.04.327-.039.657-.223.929a1.71 1.71 0 01-1.114.225h-6.573a1.704 1.704 0 01-1.018-.225 1.074 1.074 0 01-.319-.929v-27.492a6.595 6.595 0 01.764-3.43 4.697 4.697 0 011.414-1.207 4.633 4.633 0 011.769-.556 17.332 17.332 0 011.815-.225l2.499-.192 2.641-.16h2.26a29.286 29.286 0 017.703.897 12.884 12.884 0 015.364 2.854 11.925 11.925 0 013.183 5.145 24.819 24.819 0 011.05 7.727v16.751c.04.327-.039.657-.222.93-.144.16-.51.224-1.099.224h-6.589a1.757 1.757 0 01-1.018-.224 1.078 1.078 0 01-.318-.93v-17.393a16.313 16.313 0 00-.351-3.654 6.116 6.116 0 00-1.209-2.597 4.993 4.993 0 00-2.356-1.603 11.303 11.303 0 00-3.724-.529M158.21 153.677c4.976 0 8.69 1.251 11.141 3.751 2.451 2.501 3.692 6.086 3.724 10.756a6.197 6.197 0 01-1.273 4.553 4.768 4.768 0 01-3.502 1.218h-16.265a9.174 9.174 0 00.668 3.398 5.725 5.725 0 001.592 2.197 6.15 6.15 0 002.387 1.154c.977.217 1.976.325 2.976.32a16.963 16.963 0 003.756-.449 22.564 22.564 0 003.565-1.154 1.9 1.9 0 011.051-.16c.252.125.446.343.541.609l2.037 4.617a1.052 1.052 0 01.096.897 1.599 1.599 0 01-.669.642 16.152 16.152 0 01-5.475 2.212 27.625 27.625 0 01-5.809.673c-5.554 0-9.676-1.379-12.35-4.168-2.674-2.789-4.027-7.181-4.027-13.224a23.337 23.337 0 011.13-7.534 15.642 15.642 0 013.183-5.627 13.482 13.482 0 014.966-3.494 17.138 17.138 0 016.525-1.187h.032zm.159 7.695a5.429 5.429 0 00-2.34.458 5.473 5.473 0 00-1.925 1.417 8.045 8.045 0 00-1.91 4.809h11.921a11.346 11.346 0 00-.287-2.629 5.805 5.805 0 00-.923-2.084 4.474 4.474 0 00-1.719-1.378 6.445 6.445 0 00-2.817-.529M235.223 187.948c-.375.22-.81.31-1.241.257h-6.684a1.708 1.708 0 01-1.146-.289 1.363 1.363 0 01-.319-1.058v-17.969h-17.268v17.969a1.461 1.461 0 01-.286 1.09 2.04 2.04 0 01-1.258.257h-6.748a1.76 1.76 0 01-1.114-.289 1.306 1.306 0 01-.35-1.058v-42.271a1.303 1.303 0 01.35-1.058c.329-.218.721-.32 1.114-.288h6.748c.436-.045.874.045 1.258.256.232.313.334.703.286 1.09v16.03h17.268v-16.03a1.356 1.356 0 01.319-1.058 1.713 1.713 0 011.146-.288h6.684c.43-.045.864.044 1.241.256.232.313.335.703.287 1.09v42.239a1.462 1.462 0 01-.287 1.09M275.348 171.198c0 5.642-1.337 10.018-4.011 13.096-2.674 3.078-6.764 4.617-12.239 4.617-5.475 0-9.549-1.603-12.111-4.617-2.563-3.013-3.82-7.406-3.82-12.968a22.888 22.888 0 011.114-7.406 15.096 15.096 0 013.183-5.562 14.156 14.156 0 015.029-3.463 17.394 17.394 0 016.733-1.218c5.305 0 9.331 1.55 12.079 4.649 2.69 3.11 4.043 7.39 4.043 12.824v.048zm-9.629.144a23.414 23.414 0 00-.318-3.975 8.888 8.888 0 00-1.082-3.078 5.58 5.58 0 00-1.974-2.02 5.646 5.646 0 00-2.992-.753 5.503 5.503 0 00-2.862.615 5.54 5.54 0 00-2.151 1.998 13.151 13.151 0 00-1.592 7.021 14.654 14.654 0 001.496 7.325 5.367 5.367 0 002.128 1.946 5.316 5.316 0 002.822.555 5.95 5.95 0 003.024-.737 5.881 5.881 0 002.037-2.068 9.675 9.675 0 001.146-3.046c.245-1.245.362-2.513.35-3.783M298.711 181.28h1.815c.795 0 1.591-.128 2.53-.257v-25.359c-.036-.339.049-.68.239-.962.143-.176.509-.256 1.114-.256h6.557c.891 0 1.337.401 1.337 1.218v27.395a6.115 6.115 0 01-.859 3.463 4.773 4.773 0 01-3.088 1.795c-.509.096-1.146.176-1.91.256a78.5 78.5 0 01-2.451.225c-.859.064-1.735.112-2.594.128h-2.228a28.887 28.887 0 01-7.799-.898 11.739 11.739 0 01-5.236-2.885 11.593 11.593 0 01-2.896-5.162 29.188 29.188 0 01-.892-7.742v-16.575c-.028-.336.05-.673.223-.962.143-.176.525-.256 1.114-.256h6.573c.891 0 1.337.401 1.337 1.218v17.2a22.524 22.524 0 00.255 3.687c.13.95.478 1.855 1.018 2.645a4.573 4.573 0 002.181 1.603c1.183.375 2.42.548 3.66.513M345.82 178.587c.096 1.5-.19 3-.83 4.358a8.821 8.821 0 01-2.83 3.4 16.343 16.343 0 01-9.549 2.565 35.044 35.044 0 01-6.971-.737 20.377 20.377 0 01-6.478-2.405 1.313 1.313 0 01-.605-.673c-.04-.349.045-.702.239-.994l1.846-4.424c.115-.359.352-.665.669-.866a1.288 1.288 0 011.05.161c.669.288 1.433.577 2.292.865.844.273 1.735.513 2.642.738.907.224 1.798.384 2.642.513.758.119 1.524.184 2.292.192a5.047 5.047 0 003.183-.802 2.621 2.621 0 00.923-2.019 2.644 2.644 0 00-1.305-2.196 24.024 24.024 0 00-4.504-2.116 37.96 37.96 0 01-4.488-1.988 16.758 16.758 0 01-3.279-2.212 7.796 7.796 0 01-2.737-6.188 10.174 10.174 0 01.764-3.959 8.629 8.629 0 012.291-3.206 11.306 11.306 0 013.852-2.148c1.78-.567 3.64-.837 5.507-.802 1.959.002 3.914.184 5.841.545 1.849.32 3.655.858 5.379 1.603.456.225.711.449.764.674.026.384-.039.769-.191 1.122l-1.592 4.103c-.18.481-.371.754-.573.818-.347.042-.7-.014-1.018-.16a50.492 50.492 0 00-4.329-1.106 21.431 21.431 0 00-4.09-.385 3.322 3.322 0 00-2.483.801 2.43 2.43 0 00-.764 1.603 2.55 2.55 0 00.302 1.234c.204.379.499.699.86.93a19.289 19.289 0 004.122 1.924c1.591.593 2.96 1.202 4.329 1.827a15.928 15.928 0 013.533 2.18 9.391 9.391 0 012.387 2.982 9.109 9.109 0 01.892 4.184M366.796 153.677c4.965 0 8.679 1.251 11.141 3.751 2.461 2.501 3.702 6.086 3.724 10.756a6.199 6.199 0 01-1.274 4.553 4.754 4.754 0 01-3.501 1.218h-16.281a9.174 9.174 0 00.668 3.398 5.913 5.913 0 001.592 2.197 6.15 6.15 0 002.387 1.154c.977.217 1.975.325 2.976.32a16.97 16.97 0 003.756-.449 22.564 22.564 0 003.565-1.154 1.9 1.9 0 011.051-.16c.252.125.446.343.541.609l2.037 4.617a1.038 1.038 0 01.095.897 1.596 1.596 0 01-.668.642 16.015 16.015 0 01-5.475 2.212 27.615 27.615 0 01-5.793.673c-5.57 0-9.693-1.379-12.366-4.168-2.674-2.789-4.027-7.181-4.027-13.224a23.337 23.337 0 011.13-7.534 15.642 15.642 0 013.183-5.627 13.62 13.62 0 014.966-3.495 17.28 17.28 0 016.541-1.186h.032zm.159 7.695a5.422 5.422 0 00-2.349.455c-.74.324-1.4.809-1.932 1.42a8.045 8.045 0 00-1.91 4.809h11.92a11.291 11.291 0 00-.286-2.629 5.805 5.805 0 00-.923-2.084 4.474 4.474 0 00-1.719-1.378 6.42 6.42 0 00-2.801-.529" fill="#A0B5BC"/><path d="M246.385 0h-25.241a5.344 5.344 0 00-3.693 1.459L198.162 19.7a4.092 4.092 0 00-1.308 3.177c.024.594.176 1.175.446 1.703s.651.99 1.117 1.355l23.968 19.14a5.292 5.292 0 005.539.706l18.907-8.496a5.44 5.44 0 002.312-2.007c.564-.878.867-1.9.871-2.947V3.607c0-.957-.377-1.874-1.049-2.55A3.566 3.566 0 00246.433 0" fill="#C0AA82"/><path d="M207.935 1.94a2.964 2.964 0 00-1.089-1.414A2.928 2.928 0 00205.149 0h-58.536a2.837 2.837 0 00-1.621.506 2.888 2.888 0 00-1.151 3.05 2.88 2.88 0 00.878 1.461l27.708 24.911a4.258 4.258 0 005.634.08l28.998-24.766c.467-.392.801-.92.958-1.511a2.993 2.993 0 00-.082-1.791z" fill="#8C7F72"/><path d="M150.734 14.443L138.001 3.671a3.357 3.357 0 00-2.18-.802 3.404 3.404 0 00-2.424.998 3.454 3.454 0 00-1.014 2.433V27.57c.006.556.166 1.098.461 1.567.296.469.715.845 1.211 1.086a2.942 2.942 0 003.103-.328l13.528-10.852a2.876 2.876 0 001.114-2.276 2.96 2.96 0 00-1.05-2.324M247.596 90.297a2.41 2.41 0 00-1.448.497l-19.29 15.116a2.837 2.837 0 00-1.098 2.244v7.374c0 .756.299 1.482.83 2.017a2.823 2.823 0 002.003.836h17.809a3.57 3.57 0 002.517-1.056 3.624 3.624 0 001.048-2.535V92.685c0-.633-.249-1.24-.694-1.689a2.364 2.364 0 00-1.677-.7z" fill="#A0B5BC"/><path d="M247.23 42.784a2.75 2.75 0 00-1.225.289l-17.316 8.624a5.236 5.236 0 00-2.138 1.941 5.283 5.283 0 00-.791 2.788v40.572c.004.686.278 1.342.761 1.825a2.568 2.568 0 001.818.755 2.52 2.52 0 001.591-.593l18.032-14.747a5.457 5.457 0 001.989-4.216v-34.48c0-.732-.288-1.433-.801-1.95a2.73 2.73 0 00-1.936-.808" fill="#9F8574"/><path d="M217.707 95.939h-51.773a4.752 4.752 0 00-2.377.665 4.791 4.791 0 00-1.729 1.771l-8.244 14.892a3.49 3.49 0 00-.44 1.737c.006.607.17 1.202.476 1.726a3.458 3.458 0 002.988 1.715h61.099c.844 0 1.653-.338 2.25-.939a3.218 3.218 0 00.933-2.267v-16.11c0-.85-.336-1.666-.933-2.267a3.17 3.17 0 00-2.25-.94" fill="#8C7F72"/><path d="M168.623 31.115l-10.377-9.281a3.581 3.581 0 00-2.371-.898 3.646 3.646 0 00-2.26.802l-19.449 16.03a4.833 4.833 0 00-1.734 3.687v10.37a4.52 4.52 0 00.636 2.307 4.478 4.478 0 001.719 1.653l18.557 10.163c.397.214.839.33 1.29.337a2.772 2.772 0 001.909-.786c.263-.256.471-.562.613-.9a2.77 2.77 0 00.215-1.072V45.495a1.805 1.805 0 01.716-1.443l10.297-7.694a3.38 3.38 0 001.357-2.564 3.393 3.393 0 00-1.118-2.678z" fill="#9F8574"/><path d="M156.718 72.504l-19.719-10.869a3.325 3.325 0 00-4.51 1.284 3.389 3.389 0 00-.44 1.666v50.382c0 1.003.396 1.966 1.1 2.675a3.742 3.742 0 002.656 1.108h6.908c.893 0 1.771-.237 2.545-.688a5.105 5.105 0 001.863-1.877l10.361-18.05a8.308 8.308 0 001.098-4.151V75.582a3.515 3.515 0 00-.479-1.788 3.483 3.483 0 00-1.319-1.29" fill="#C0AA82"/><path d="M217.962 47.657l-24.383-18.69a3.94 3.94 0 00-4.774 0l-24.303 18.722a5.33 5.33 0 00-1.524 1.873 5.38 5.38 0 00-.545 2.359v36.692c0 .74.292 1.45.811 1.973a2.76 2.76 0 001.958.817h16.314a1.807 1.807 0 001.68-1.14c.091-.223.136-.463.134-.704V71.926c0-.557.22-1.09.611-1.485a2.076 2.076 0 011.474-.615h11.491c.553 0 1.083.222 1.474.615.391.394.611.928.611 1.485V89.56a1.827 1.827 0 001.83 1.844h16.377a2.735 2.735 0 001.952-.818 2.768 2.768 0 00.801-1.972V51.89c0-.818-.186-1.625-.545-2.359a5.331 5.331 0 00-1.524-1.873" fill="#A0B5BC"/></svg><svg fill="none" viewBox="0 0 12 6" id="select-arrow" xmlns="http://www.w3.org/2000/svg"><path d="M1 1l5 4 5-4" stroke="#161615" stroke-linecap="round" stroke-linejoin="round"/></svg></svg>