<?xml version="1.0" encoding="utf-8"?><svg viewBox="0 0 201 201" xmlns="http://www.w3.org/2000/svg" xmlns:xlink="http://www.w3.org/1999/xlink"><style>:root>svg{display:none}:root>svg:target{display:block}</style><svg fill="none" viewBox="0 0 201 7" id="arrow-horizon" xmlns="http://www.w3.org/2000/svg"><path fill-rule="evenodd" clip-rule="evenodd" d="M.095 3.5L4.496.583l.553.834L2.659 3H200.5v1H2.66l2.389 1.583-.553.834L.095 3.5z" fill="#161615"/></svg><svg fill="none" viewBox="0 0 26 8" id="arrow-mask" xmlns="http://www.w3.org/2000/svg"><path d="M25 3.5a.5.5 0 010 1v-1zM.646 4.354a.5.5 0 010-.708L3.828.464a.5.5 0 11.708.708L1.707 4l2.829 2.828a.5.5 0 11-.708.708L.646 4.354zM25 4.5H1v-1h24v1z" fill="#000"/></svg><svg fill="none" viewBox="0 0 7 201" id="arrow-vertical" xmlns="http://www.w3.org/2000/svg"><g clip-path="url(#cclip0)"><path fill-rule="evenodd" clip-rule="evenodd" d="M3.5.095l2.917 4.401-.834.553L4 2.659V200.5H3V2.66L1.417 5.049l-.834-.553L3.5.095z" fill="#161615"/></g><defs><clipPath id="cclip0"><path fill="#fff" transform="rotate(90 3.5 3.5)" d="M0 0h201v7H0z"/></clipPath></defs></svg><svg fill="none" viewBox="0 0 25 8" id="button-arrow" xmlns="http://www.w3.org/2000/svg"><path d="M.646 4.354a.5.5 0 010-.708L3.828.464a.5.5 0 11.708.708L1.707 4l2.829 2.828a.5.5 0 11-.708.708L.646 4.354zM25 4.5H13v-1h12v1zm-12 0H1v-1h12v1z" fill="#4F4F4F"/></svg><svg fill="none" viewBox="0 0 126 90" id="category-stage" xmlns="http://www.w3.org/2000/svg"><path d="M125 17.712L55.075 1 38.314 3.936l.379 10.012-17.898 3.312.454 10.69L1 32.465l1.062 10.84L59.777 89l25.406-13.4.304-14.302 20.249-9.56 1.062-13.776 16.989-6.85 1.213-13.4z" fill="#4F4F4F" fill-opacity=".2"/><path d="M125 17.712L55.075 1 38.314 3.936M125 17.712l-1.213 13.4-16.989 6.85M125 17.712l-17.823 5.796M38.314 3.936l.379 10.012m-.38-10.012l68.864 19.572m-68.484-9.56L20.795 17.26m17.898-3.312l67.347 24.014M20.794 17.26l.456 10.69m-.456-10.69l64.769 29.208M21.249 27.949L1 32.467m20.25-4.517l63.554 33.349M1 32.466l1.062 10.84L59.777 89M1 32.466l58.7 41.102M59.778 89l25.406-13.4.304-14.302M59.777 89L59.7 73.568m25.786-12.27l20.249-9.56 1.062-13.776M85.487 61.297h-.683m.683 0L59.7 73.568m47.097-35.606h-.758m.758 0c-.243.24-14.258 5.77-21.235 8.506m21.614-22.96l-1.137 14.454m-20.477 8.506l-.759 14.83" stroke="#4F4F4F" stroke-opacity=".6"/></svg><svg fill="none" viewBox="0 0 148 60" id="category-table" xmlns="http://www.w3.org/2000/svg"><path d="M1 23.812L92.067 1 147 15.44l-.244 5.338-88.33 36.987a14.079 14.079 0 01-12.84-1.01L1.122 29.271 1 23.812z" fill="#4F4F4F" fill-opacity=".2"/><path d="M1 23.812L92.067 1 147 15.44M1 23.811l.122 5.46 44.464 27.483a14.078 14.078 0 007.901 2.093v0c1.698-.06 3.371-.427 4.938-1.083l88.331-36.987.244-5.339M1 23.812l44.796 26.941a14.391 14.391 0 007.417 2.059v0c1.877 0 3.735-.367 5.47-1.08L147 15.439" stroke="#4F4F4F" stroke-opacity=".6"/></svg><svg fill="none" viewBox="0 0 120 74" id="category-windowsill" xmlns="http://www.w3.org/2000/svg"><path d="M84.978 1C82.9 1.808 29.485 28.139 3.037 41.203l-.4 3.03v2.223c-1.764.757-1.998 1.608-1.199 3.838l42.17 22.02c1.778.926 2.778.903 4.597 0l70.749-60.203c.162-1.105-.073-1.636-1.199-2.424l-1.999-.606-.999-.606L84.978 1z" fill="#4F4F4F" fill-opacity=".2"/><path d="M3.037 41.203C29.485 28.139 82.9 1.808 84.978 1l29.779 7.475M3.037 41.203l-.4 3.03v2.223m.4-5.253c16.236 8.313 25.537 12.852 42.37 20.808m0 0v6.263m0-6.263c27.34-20.762 42.469-32.516 69.35-53.536m0 0l.999.606 1.999.606m0 0S45.406 69.284 45.406 68.274m72.349-58.587c1.126.788 1.361 1.319 1.199 2.424l-70.75 60.204c-1.818.902-2.818.925-4.596 0L1.438 50.294c-.799-2.23-.565-3.081 1.2-3.838m0 0c-.217.23 25.717 13.67 42.768 21.818" stroke="#4F4F4F" stroke-opacity=".6"/></svg><svg fill="none" viewBox="0 0 76 44" id="chamfer-01" xmlns="http://www.w3.org/2000/svg"><path d="M1 12.903L45.672 1l22.05 3.164c1.92.275 4.464 1.515 5.656 3.043C74.907 9.166 75 10.917 75 13.401v11.89L33.727 43 1.583 34.871 1 12.903z" fill="#4F4F4F" fill-opacity=".2"/><path d="M1 12.903L45.672 1l22.05 3.164c1.92.275 4.464 1.515 5.656 3.043v0C74.907 9.166 75 10.917 75 13.401v11.89L33.727 43M1 12.903l.583 21.968L33.727 43M1 12.903l23.098 4.539c2.954.58 6.104 1.519 7.744 4.044v0c1.209 1.863 1.43 4.16 1.488 6.38L33.727 43" stroke="#4F4F4F" stroke-opacity=".6"/></svg><svg fill="none" viewBox="0 0 76 44" id="chamfer-02" xmlns="http://www.w3.org/2000/svg"><path d="M1 13.014L44.738 1l27.779 4L75 7.5V25L34.275 43 1.383 35.023 1 13.013z" fill="#4F4F4F" fill-opacity=".2"/><path d="M1 13.014L44.738 1l27.779 4M1 13.014l.383 22.009L34.275 43M1 13.014L31.792 18M72.517 5L75 7.5M72.517 5L31.792 18M75 7.5V25L34.275 43M75 7.5l-40.725 14m0 21.5V21.5M31.792 18l2.483 3.5" stroke="#4F4F4F" stroke-opacity=".6"/></svg><svg fill="none" viewBox="0 0 10 6" id="icon-arrow-drop" xmlns="http://www.w3.org/2000/svg"><path d="M1 1l4 4 4-4" stroke="#4F4F4F"/></svg><svg fill="inherit" viewBox="0 0 28 28" id="icon-facebook" xmlns="http://www.w3.org/2000/svg"><path d="M14.79 26V15.053h3.536l.53-4.267H14.79V8.062c0-1.235.329-2.077 2.036-2.077L19 5.984V2.167C18.624 2.117 17.333 2 15.831 2c-3.136 0-5.284 1.988-5.284 5.64v3.146H7v4.267h3.547V26h4.243z"/></svg><svg fill="inherit" viewBox="0 0 28 28" id="icon-insta" xmlns="http://www.w3.org/2000/svg"><path fill-rule="evenodd" clip-rule="evenodd" d="M14 2.412c3.909 0 4.372.014 5.915.084 1.427.066 2.202.304 2.718.504.683.266 1.17.583 1.682 1.095.512.513.83 1 1.096 1.684.2.516.439 1.29.504 2.718.07 1.543.085 2.006.085 5.913 0 3.907-.015 4.371-.085 5.914-.066 1.428-.304 2.202-.504 2.718a4.527 4.527 0 01-1.096 1.682c-.512.512-.999.83-1.682 1.095-.515.2-1.29.439-2.718.504-1.543.07-2.006.085-5.915.085-3.908 0-4.372-.015-5.915-.085-1.427-.066-2.202-.304-2.718-.505a4.535 4.535 0 01-1.683-1.095c-.513-.512-.83-.999-1.096-1.682-.2-.516-.439-1.29-.504-2.718C2.014 18.78 2 18.316 2 14.407c0-3.91.014-4.37.084-5.914.065-1.428.304-2.202.504-2.718A4.535 4.535 0 013.684 4.09c.512-.512 1-.83 1.683-1.095.516-.202 1.29-.44 2.718-.505L14 2.412zM20.057 6.6a1.757 1.757 0 113.513 0 1.757 1.757 0 01-3.513 0zM14 6.896a7.518 7.518 0 000 15.034 7.516 7.516 0 007.516-7.516A7.517 7.517 0 0014 6.896z"/><path d="M14 9.534a4.88 4.88 0 110 9.76 4.88 4.88 0 010-9.76z"/></svg><svg fill="none" viewBox="0 0 24 24" id="icon-search" xmlns="http://www.w3.org/2000/svg"><circle cx="10.5" cy="10.5" r="5" stroke="#000"/><path d="M18 18.576L13.5 14" stroke="#000"/></svg><svg fill="none" viewBox="0 0 23 20" id="icon-unload" xmlns="http://www.w3.org/2000/svg"><path d="M20.316 6.89V6.8c.002-3.754-2.915-6.798-6.514-6.8-2.19-.001-4.233 1.144-5.44 3.049-2.414-.84-5.023.519-5.828 3.035-.157.489-.237 1-.237 1.515v.103c-1.64.444-2.624 2.19-2.198 3.9.351 1.408 1.57 2.392 2.965 2.394l4.125-.012c.211 0 .455-.167.455-.387 0-.221-.244-.4-.455-.4H3.064c-1.27-.008-2.295-1.088-2.287-2.413.007-1.188.846-2.192 1.973-2.36a.396.396 0 00.331-.431 4.925 4.925 0 01-.017-.394c.002-2.21 1.723-4 3.843-3.998.503.001 1 .105 1.465.305.176.077.38.007.477-.164 1.617-2.85 5.144-3.795 7.878-2.108 1.75 1.08 2.824 3.044 2.822 5.166 0 .132-.003.26-.013.39a.396.396 0 00.337.43c1.47.19 2.515 1.588 2.333 3.122-.166 1.4-1.304 2.451-2.657 2.455-1.484.002-2.968 0-4.453 0-.212 0-.431.179-.431.4 0 .22.22.387.431.387l4.453.012c1.906 0 3.451-1.61 3.451-3.598 0-1.68-1.114-3.135-2.684-3.508z" fill="#161615"/><path d="M14.669 16.041l-2.633 2.633V7.771a.388.388 0 00-.776 0v10.903l-2.633-2.633a.388.388 0 00-.55.55l3.296 3.295a.388.388 0 00.55 0l3.295-3.295a.388.388 0 00-.549-.55z" fill="#161615"/></svg><svg fill="inherit" viewBox="0 0 28 28" id="icon-vk" xmlns="http://www.w3.org/2000/svg"><path d="M25.786 19.487c-.064-.11-.463-.997-2.384-2.819-2.01-1.908-1.74-1.598.681-4.897 1.475-2.009 2.065-3.236 1.88-3.76-.175-.5-1.26-.368-1.26-.368l-3.606.021s-.267-.037-.467.085c-.193.12-.318.395-.318.395s-.571 1.555-1.333 2.877c-1.607 2.79-2.25 2.937-2.513 2.764-.61-.403-.458-1.623-.458-2.488 0-2.703.4-3.83-.781-4.122-.393-.097-.681-.161-1.685-.172-1.287-.014-2.377.005-2.994.313-.411.206-.728.664-.534.69.238.032.779.149 1.065.548.37.513.357 1.67.357 1.67s.213 3.182-.496 3.578c-.488.271-1.156-.282-2.588-2.814-.734-1.296-1.289-2.73-1.289-2.73s-.106-.267-.297-.41c-.23-.173-.555-.228-.555-.228l-3.43.021s-.514.016-.703.244c-.168.204-.013.624-.013.624s2.685 6.422 5.724 9.66c2.789 2.967 5.954 2.772 5.954 2.772h1.434s.434-.05.654-.293c.204-.224.197-.644.197-.644s-.029-1.968.865-2.258c.881-.285 2.012 1.902 3.21 2.744.907.637 1.595.497 1.595.497l3.206-.046s1.677-.106.882-1.454z"/></svg><svg fill="inherit" viewBox="0 0 28 28" id="icon-yuotube" xmlns="http://www.w3.org/2000/svg"><path fill-rule="evenodd" clip-rule="evenodd" d="M23.39 6.52a3.025 3.025 0 012.116 2.14c.514 1.9.494 5.86.494 5.86s0 3.94-.494 5.84a3.025 3.025 0 01-2.116 2.14C21.512 23 14 23 14 23s-7.493 0-9.39-.52a3.025 3.025 0 01-2.116-2.14C2 18.46 2 14.5 2 14.5s0-3.94.494-5.84C2.771 7.62 3.601 6.78 4.61 6.5 6.488 6 14 6 14 6s7.513 0 9.391.52zm-5.535 7.98l-6.247 3.64v-7.28l6.247 3.64z"/></svg><svg fill="none" viewBox="0 0 160 65" id="logo" xmlns="http://www.w3.org/2000/svg"><path d="M59.04 32.36c0 5.92-.987 11.093-2.96 15.52-1.92 4.373-4.88 7.787-8.88 10.24-4 2.453-9.12 3.68-15.36 3.68-6.187 0-11.307-1.227-15.36-3.68-4-2.453-6.987-5.893-8.96-10.32-1.92-4.427-2.88-9.6-2.88-15.52s.96-11.067 2.88-15.44c1.973-4.373 4.96-7.76 8.96-10.16C20.533 4.227 25.68 3 31.92 3 38.106 3 43.2 4.227 47.2 6.68c4 2.4 6.96 5.813 8.88 10.24 1.973 4.373 2.96 9.52 2.96 15.44zm-41.68 0c0 5.973 1.146 10.693 3.44 14.16 2.293 3.413 5.973 5.12 11.04 5.12 5.173 0 8.88-1.707 11.12-5.12 2.24-3.467 3.36-8.187 3.36-14.16 0-6.027-1.12-10.747-3.36-14.16-2.24-3.413-5.92-5.12-11.04-5.12-5.12 0-8.827 1.707-11.12 5.12-2.294 3.413-3.44 8.133-3.44 14.16z" fill="#161615"/><path d="M86.48 65H71L47.69 32.42V65H34.1V.74h13.59v31.14L70.73.74h14.49l-23.4 30.87L86.48 65z" fill="#926A31"/><path d="M81.064 23.74c1.83 0 3.183.401 4.06 1.204.877.803 1.316 2.081 1.316 3.836V39h-1.792l-.476-2.128h-.112c-.653.821-1.344 1.428-2.072 1.82-.71.392-1.699.588-2.968.588-1.363 0-2.492-.355-3.388-1.064-.896-.728-1.344-1.857-1.344-3.388 0-1.493.588-2.641 1.764-3.444 1.176-.821 2.987-1.27 5.432-1.344l2.548-.084v-.896c0-1.25-.27-2.119-.812-2.604-.541-.485-1.307-.728-2.296-.728-.784 0-1.53.121-2.24.364a14.69 14.69 0 00-1.988.784l-.756-1.848c.653-.355 1.428-.653 2.324-.896a9.95 9.95 0 012.8-.392zm.728 8.008c-1.867.075-3.164.373-3.892.896-.71.523-1.064 1.26-1.064 2.212 0 .84.252 1.456.756 1.848.523.392 1.185.588 1.988.588 1.27 0 2.324-.345 3.164-1.036.84-.71 1.26-1.792 1.26-3.248v-1.344l-2.212.084zM107.175 23.992V39h-2.212v-9.576c0-.392.01-.803.028-1.232l.112-1.26h-.084L100.119 39h-2.072l-4.76-12.068h-.084c.056.84.084 1.699.084 2.576V39h-2.212V23.992h3.276l4.732 12.068 4.816-12.068h3.276zM117.762 23.712c1.288 0 2.389.28 3.304.84.933.56 1.643 1.353 2.128 2.38.504 1.008.756 2.193.756 3.556v1.484h-10.276c.037 1.699.467 2.996 1.288 3.892.84.877 2.007 1.316 3.5 1.316.952 0 1.792-.084 2.52-.252a15.185 15.185 0 002.296-.784V38.3c-.765.336-1.521.579-2.268.728-.747.168-1.633.252-2.66.252-1.419 0-2.679-.29-3.78-.868-1.083-.579-1.932-1.437-2.548-2.576-.597-1.157-.896-2.567-.896-4.228 0-1.643.271-3.052.812-4.228.56-1.176 1.335-2.081 2.324-2.716 1.008-.635 2.175-.952 3.5-.952zm-.028 2.016c-1.176 0-2.109.383-2.8 1.148-.672.747-1.073 1.792-1.204 3.136h7.644c-.019-1.27-.317-2.296-.896-3.08-.579-.803-1.493-1.204-2.744-1.204zM130.235 23.992v6.244h8.148v-6.244h2.464V39h-2.464v-6.692h-8.148V39h-2.464V23.992h2.464zM152.515 30.152c3.901 0 5.852 1.419 5.852 4.256 0 1.4-.476 2.52-1.428 3.36-.952.821-2.464 1.232-4.536 1.232h-6.804V23.992h2.464v6.16h4.452zm3.388 4.396c0-.915-.327-1.53-.98-1.848-.635-.336-1.531-.504-2.688-.504h-4.172v4.816h4.228c1.045 0 1.904-.187 2.576-.56.691-.373 1.036-1.008 1.036-1.904z" fill="#161615"/></svg><svg fill="none" viewBox="0 0 129 57" id="rounding-0" xmlns="http://www.w3.org/2000/svg"><path d="M1 21.05L80.216 1 128 13.692l-.212 4.692L46 53 1.106 25.85 1 21.05z" fill="#4F4F4F" fill-opacity=".2"/><path d="M1 21.05L80.216 1 128 13.692M1 21.05l.106 4.8L46 53l81.788-34.615.212-4.693M1 21.05l45.5 26.851 81.5-34.21" stroke="#4F4F4F" stroke-opacity=".6"/></svg><svg fill="none" viewBox="0 0 129 57" id="rounding-1" xmlns="http://www.w3.org/2000/svg"><path d="M31 48.4c.337.37 4.805 3.503 8.88 6.327 2.783 1.929 6.253 2.274 9.32.945L60 50.99M31 48.4l3.847.647M31 48.401l1.776 3.237M60 50.991l-2.96-.324m2.96.324l-1.776 2.266" stroke="#926A31"/><path d="M1 21.059L80.216 1 128 13.697l-.212 4.694-76.839 32.524a12.129 12.129 0 01-11.155-.883L1.106 25.86 1 21.059z" fill="#4F4F4F" fill-opacity=".2"/><path d="M1 21.059L80.216 1 128 13.697M1 21.059l.106 4.8 38.688 24.173a12.13 12.13 0 006.862 1.835v0a12.129 12.129 0 004.293-.952l76.839-32.524.212-4.694M1 21.059l38.976 23.695a12.4 12.4 0 006.441 1.805v0a12.4 12.4 0 004.757-.95L128 13.698" stroke="#4F4F4F" stroke-opacity=".6"/></svg><svg fill="none" viewBox="0 0 120 57" id="rounding-2" xmlns="http://www.w3.org/2000/svg"><path d="M33 53.333C51.637 57.801 62.29 56.436 78 48m-45 5.333l4.898-.889m-4.898.89L36.673 56M78 48l-5.51.593M78 48l-3.061 3.556" stroke="#926A31"/><path d="M29.48 48.29L1 38.489v-4.43L75.618 1 119 7.134V10.721a1 1 0 01-.405.803l-41.61 30.793c-3.899 2.885-8.164 5.308-12.843 6.586-7.671 2.094-14.367 2.521-24.018 1.717-3.633-.303-7.198-1.143-10.645-2.33z" fill="#4F4F4F" fill-opacity=".2"/><path d="M119 7.134V10.721a1 1 0 01-.405.803l-41.61 30.793c-3.899 2.885-8.164 5.308-12.843 6.586-7.671 2.094-14.367 2.521-24.018 1.717-3.633-.303-7.198-1.143-10.645-2.33L1 38.489v-4.43M119 7.134L75.618 1 1 34.058M119 7.134L76.389 38.062c-3.507 2.546-7.304 4.715-11.445 5.991-9.133 2.814-16.263 3.05-26.76 1.48-2.345-.35-4.651-.936-6.907-1.667L1 34.058" stroke="#4F4F4F" stroke-opacity=".6"/></svg><svg fill="none" viewBox="0 0 12 6" id="select-arrow" xmlns="http://www.w3.org/2000/svg"><path d="M1 1l5 4 5-4" stroke="#161615" stroke-linecap="round" stroke-linejoin="round"/></svg></svg>