<svg width="126" height="90" viewBox="0 0 126 90" fill="none" xmlns="http://www.w3.org/2000/svg">
<path d="M125 17.7117L55.0746 1L38.3138 3.93584L38.693 13.9478L20.7945 17.2601L21.2495 27.9495L1 32.4662L2.06178 43.3062L59.7768 89L85.1835 75.6005L85.4869 61.2977L105.736 51.7374L106.798 37.9615L123.787 31.1112L125 17.7117Z" fill="#4F4F4F" fill-opacity="0.2"/>
<path d="M125 17.7117L55.0746 1L38.3138 3.93584M125 17.7117L123.787 31.1112L106.798 37.9615M125 17.7117L107.177 23.5081M38.3138 3.93584L38.693 13.9478M38.3138 3.93584L107.177 23.5081M38.693 13.9478L20.7945 17.2601M38.693 13.9478L106.04 37.9615M20.7945 17.2601L21.2495 27.9495M20.7945 17.2601L85.5627 46.4679M21.2495 27.9495L0.999998 32.4662M21.2495 27.9495L84.8043 61.2977M0.999998 32.4662L2.06177 43.3062L59.7768 89M0.999998 32.4662L59.7009 73.568M59.7768 89L85.1835 75.6005L85.4868 61.2977M59.7768 89L59.7009 73.568M85.4868 61.2977L105.736 51.7374L106.798 37.9615M85.4868 61.2977H84.8043M85.4868 61.2977L59.7009 73.568M106.798 37.9615H106.04M106.798 37.9615C106.555 38.2024 92.5401 43.7328 85.5627 46.4679M107.177 23.5081L106.04 37.9615M85.5627 46.4679L84.8043 61.2977" stroke="#4F4F4F" stroke-opacity="0.6"/>
</svg>
