<svg width="120" height="74" viewBox="0 0 120 74" fill="none" xmlns="http://www.w3.org/2000/svg">
<path d="M84.9781 1C82.8996 1.8081 29.4845 28.1386 3.03689 41.2028L2.6373 44.2332V46.4555C0.873428 47.2127 0.638977 48.0642 1.43816 50.2939L43.6078 72.3146C45.3857 73.2401 46.3864 73.2168 48.2045 72.3146L118.954 12.1113C119.116 11.0058 118.881 10.4753 117.755 9.68705L115.756 9.08097L114.757 8.4749L84.9781 1Z" fill="#4F4F4F" fill-opacity="0.2"/>
<path d="M3.03689 41.2028C29.4845 28.1386 82.8996 1.8081 84.9781 1L114.757 8.4749M3.03689 41.2028L2.6373 44.2332V46.4555M3.03689 41.2028C19.2734 49.5163 28.5737 54.0553 45.4065 62.0113M45.4065 62.0113V65.6478C45.4065 65.6478 45.4065 67.2485 45.4065 68.2741M45.4065 62.0113C72.7479 41.2488 87.876 29.4951 114.757 8.4749M114.757 8.4749L115.756 9.08097L117.755 9.68705M117.755 9.68705C117.755 9.68705 45.4065 69.2842 45.4065 68.2741M117.755 9.68705C118.881 10.4753 119.116 11.0058 118.954 12.1113L48.2045 72.3146C46.3864 73.2168 45.3857 73.24 43.6078 72.3146C27.1396 63.715 17.9064 58.8935 1.43816 50.2939C0.638977 48.0642 0.873425 47.2127 2.6373 46.4555M2.6373 46.4555C2.4213 46.6864 28.3554 60.1266 45.4065 68.2741" stroke="#4F4F4F" stroke-opacity="0.6"/>
</svg>
