<svg width="50" height="50" viewBox="0 0 50 50" fill="none" xmlns="http://www.w3.org/2000/svg">
<path d="M43.9688 3H29.5938C29.0219 3 28.4734 3.22718 28.0691 3.63155C27.6647 4.03593 27.4375 4.58438 27.4375 5.15625V19.5312C27.4375 20.1031 27.6647 20.6516 28.0691 21.0559C28.4734 21.4603 29.0219 21.6875 29.5938 21.6875H43.9688C44.5406 21.6875 45.0891 21.4603 45.4934 21.0559C45.8978 20.6516 46.125 20.1031 46.125 19.5312V5.15625C46.125 4.58438 45.8978 4.03593 45.4934 3.63155C45.0891 3.22718 44.5406 3 43.9688 3V3ZM38.2188 4.4375V11.0004L37.1802 10.3083C37.062 10.2294 36.9232 10.1874 36.7812 10.1874C36.6393 10.1874 36.5005 10.2294 36.3823 10.3083L35.3438 11.0004V4.4375H38.2188ZM44.6875 19.5312C44.6875 19.7219 44.6118 19.9047 44.477 20.0395C44.3422 20.1743 44.1594 20.25 43.9688 20.25H29.5938C29.4031 20.25 29.2203 20.1743 29.0855 20.0395C28.9507 19.9047 28.875 19.7219 28.875 19.5312V5.15625C28.875 4.96563 28.9507 4.78281 29.0855 4.64802C29.2203 4.51323 29.4031 4.4375 29.5938 4.4375H33.9062V12.3438C33.9062 12.4739 33.9415 12.6016 34.0084 12.7132C34.0753 12.8248 34.1712 12.9162 34.2859 12.9776C34.4007 13.039 34.5299 13.0681 34.6599 13.0618C34.7898 13.0554 34.9157 13.014 35.0239 12.9417L36.7812 11.7687L38.5386 12.9403C38.6467 13.0125 38.7724 13.0539 38.9023 13.0603C39.0321 13.0667 39.1613 13.0377 39.2759 12.9765C39.3906 12.9153 39.4866 12.8241 39.5535 12.7127C39.6205 12.6013 39.656 12.4738 39.6562 12.3438V4.4375H43.9688C44.1594 4.4375 44.3422 4.51323 44.477 4.64802C44.6118 4.78281 44.6875 4.96563 44.6875 5.15625V19.5312Z" fill="#B0894E"/>
<path d="M10.9062 46.125C10.8035 46.125 10.702 46.103 10.6086 46.0605C10.5151 46.018 10.4318 45.9559 10.3643 45.8785C10.0639 45.5335 3 37.3785 3 33.1875C3 31.0906 3.83298 29.0796 5.31569 27.5969C6.7984 26.1142 8.80938 25.2812 10.9062 25.2812C13.0031 25.2812 15.0141 26.1142 16.4968 27.5969C17.9795 29.0796 18.8125 31.0906 18.8125 33.1875C18.8125 37.3785 11.7486 45.5335 11.4482 45.8785C11.3807 45.9559 11.2974 46.018 11.2039 46.0605C11.1105 46.103 11.009 46.125 10.9062 46.125ZM10.9062 26.7188C9.19127 26.7208 7.54714 27.403 6.33446 28.6157C5.12179 29.8284 4.43959 31.4725 4.4375 33.1875C4.4375 35.9727 8.69681 41.6508 10.9062 44.2979C13.115 41.6501 17.375 35.9712 17.375 33.1875C17.3729 31.4725 16.6907 29.8284 15.478 28.6157C14.2654 27.403 12.6212 26.7208 10.9062 26.7188V26.7188Z" fill="#B0894E"/>
<path d="M10.9062 36.7813C10.1955 36.7813 9.50066 36.5705 8.90967 36.1756C8.31868 35.7807 7.85806 35.2195 7.58606 34.5628C7.31406 33.9061 7.24289 33.1835 7.38155 32.4864C7.52022 31.7893 7.86249 31.1489 8.36509 30.6463C8.86768 30.1437 9.50803 29.8015 10.2051 29.6628C10.9023 29.5241 11.6248 29.5953 12.2815 29.8673C12.9382 30.1393 13.4995 30.5999 13.8943 31.1909C14.2892 31.7819 14.5 32.4767 14.5 33.1875C14.4989 34.1403 14.1199 35.0537 13.4462 35.7274C12.7724 36.4011 11.859 36.7801 10.9062 36.7813V36.7813ZM10.9062 31.0313C10.4798 31.0313 10.0629 31.1577 9.7083 31.3946C9.35371 31.6316 9.07734 31.9683 8.91414 32.3623C8.75093 32.7564 8.70823 33.1899 8.79143 33.6082C8.87463 34.0264 9.07999 34.4107 9.38155 34.7122C9.68311 35.0138 10.0673 35.2191 10.4856 35.3023C10.9039 35.3855 11.3374 35.3428 11.7314 35.1796C12.1254 35.0164 12.4622 34.7401 12.6991 34.3855C12.936 34.0309 13.0625 33.614 13.0625 33.1875C13.0625 32.6156 12.8353 32.0672 12.4309 31.6628C12.0266 31.2584 11.4781 31.0313 10.9062 31.0313Z" fill="#B0894E"/>
<path d="M42.5312 46.125H14.5C14.3094 46.125 14.1266 46.0493 13.9918 45.9145C13.857 45.7797 13.7812 45.5969 13.7812 45.4062C13.7812 45.2156 13.857 45.0328 13.9918 44.898C14.1266 44.7632 14.3094 44.6875 14.5 44.6875H42.5312C43.1031 44.6875 43.6516 44.4603 44.0559 44.0559C44.4603 43.6516 44.6875 43.1031 44.6875 42.5312C44.6875 41.9594 44.4603 41.4109 44.0559 41.0066C43.6516 40.6022 43.1031 40.375 42.5312 40.375H24.5625C23.6094 40.375 22.6953 39.9964 22.0213 39.3224C21.3474 38.6485 20.9688 37.7344 20.9688 36.7812C20.9688 35.8281 21.3474 34.914 22.0213 34.2401C22.6953 33.5661 23.6094 33.1875 24.5625 33.1875H35.3438C35.9156 33.1875 36.4641 32.9603 36.8684 32.5559C37.2728 32.1516 37.5 31.6031 37.5 31.0312C37.5 30.4594 37.2728 29.9109 36.8684 29.5066C36.4641 29.1022 35.9156 28.875 35.3438 28.875H24.5625C23.6097 28.8739 22.6963 28.4949 22.0226 27.8212C21.3489 27.1474 20.9699 26.234 20.9688 25.2812V22.4062C20.9687 21.8344 20.7416 21.2859 20.3372 20.8816C19.9328 20.4772 19.3844 20.25 18.8125 20.25H8.03125C6.69688 20.25 5.41716 19.7199 4.47362 18.7764C3.53008 17.8328 3 16.5531 3 15.2188C3 13.8844 3.53008 12.6047 4.47362 11.6611C5.41716 10.7176 6.69688 10.1875 8.03125 10.1875H25.2812C25.4719 10.1875 25.6547 10.2632 25.7895 10.398C25.9243 10.5328 26 10.7156 26 10.9062C26 11.0969 25.9243 11.2797 25.7895 11.4145C25.6547 11.5493 25.4719 11.625 25.2812 11.625H8.03125C7.07813 11.625 6.16404 12.0036 5.49009 12.6776C4.81613 13.3515 4.4375 14.2656 4.4375 15.2188C4.4375 16.1719 4.81613 17.086 5.49009 17.7599C6.16404 18.4339 7.07813 18.8125 8.03125 18.8125H18.8125C19.7653 18.8136 20.6787 19.1926 21.3524 19.8663C22.0261 20.5401 22.4051 21.4535 22.4062 22.4062V25.2812C22.4063 25.8531 22.6334 26.4016 23.0378 26.8059C23.4422 27.2103 23.9906 27.4375 24.5625 27.4375H35.3438C36.2969 27.4375 37.211 27.8161 37.8849 28.4901C38.5589 29.164 38.9375 30.0781 38.9375 31.0312C38.9375 31.9844 38.5589 32.8985 37.8849 33.5724C37.211 34.2464 36.2969 34.625 35.3438 34.625H24.5625C23.9906 34.625 23.4422 34.8522 23.0378 35.2566C22.6334 35.6609 22.4063 36.2094 22.4062 36.7812C22.4063 37.3531 22.6334 37.9016 23.0378 38.3059C23.4422 38.7103 23.9906 38.9375 24.5625 38.9375H42.5312C43.4844 38.9375 44.3985 39.3161 45.0724 39.9901C45.7464 40.664 46.125 41.5781 46.125 42.5312C46.125 43.4844 45.7464 44.3985 45.0724 45.0724C44.3985 45.7464 43.4844 46.125 42.5312 46.125Z" fill="#B0894E"/>
</svg>
