<svg width="50" height="50" viewBox="0 0 50 50" fill="none" xmlns="http://www.w3.org/2000/svg">
<path d="M48.9375 36.875H48.125V27.9375C48.1228 25.9988 47.3517 24.1401 45.9808 22.7692C44.6099 21.3983 42.7512 20.6272 40.8125 20.625H34.3125C34.097 20.625 33.8903 20.7106 33.738 20.863C33.5856 21.0153 33.5 21.222 33.5 21.4375V32H31.7255C31.8217 31.7398 31.8723 31.4649 31.875 31.1875V8.4375C31.875 7.79103 31.6182 7.17105 31.1611 6.71393C30.704 6.25681 30.084 6 29.4375 6H5.0625C4.41603 6 3.79605 6.25681 3.33893 6.71393C2.88181 7.17105 2.625 7.79103 2.625 8.4375V31.1875C2.62769 31.4649 2.67827 31.7398 2.7745 32H1.8125C1.59701 32 1.39035 32.0856 1.23798 32.238C1.0856 32.3904 1 32.597 1 32.8125V37.6875C1 37.903 1.0856 38.1097 1.23798 38.262C1.39035 38.4144 1.59701 38.5 1.8125 38.5H2.625V39.3125C2.625 39.959 2.88181 40.579 3.33893 41.0361C3.79605 41.4932 4.41603 41.75 5.0625 41.75H8.97225C9.39869 42.4909 10.0129 43.1063 10.7529 43.5342C11.4929 43.9621 12.3327 44.1874 13.1875 44.1874C14.0423 44.1874 14.8821 43.9621 15.6221 43.5342C16.3621 43.1063 16.9763 42.4909 17.4027 41.75H36.5973C37.0237 42.4909 37.6379 43.1063 38.3779 43.5342C39.1179 43.9621 39.9577 44.1874 40.8125 44.1874C41.6673 44.1874 42.5071 43.9621 43.2471 43.5342C43.9871 43.1063 44.6013 42.4909 45.0277 41.75H47.3125C47.959 41.75 48.579 41.4932 49.0361 41.0361C49.4932 40.579 49.75 39.959 49.75 39.3125V37.6875C49.75 37.472 49.6644 37.2654 49.512 37.113C49.3597 36.9606 49.153 36.875 48.9375 36.875ZM46.5 27.9375V29.5625H39.1875C38.972 29.5625 38.7653 29.4769 38.613 29.3245C38.4606 29.1722 38.375 28.9655 38.375 28.75V22.25H40.8125C42.3204 22.2517 43.766 22.8515 44.8323 23.9177C45.8985 24.984 46.4983 26.4296 46.5 27.9375V27.9375ZM35.125 22.25H36.75V28.75C36.75 29.3965 37.0068 30.0165 37.4639 30.4736C37.921 30.9307 38.541 31.1875 39.1875 31.1875H46.5V36.875H45.0277C44.6013 36.1341 43.9871 35.5187 43.2471 35.0908C42.5071 34.6629 41.6673 34.4376 40.8125 34.4376C39.9577 34.4376 39.1179 34.6629 38.3779 35.0908C37.6379 35.5187 37.0237 36.1341 36.5973 36.875H35.125V22.25ZM19.6875 7.625V18.1875L17.7375 16.725C17.5969 16.6195 17.4258 16.5625 17.25 16.5625C17.0742 16.5625 16.9031 16.6195 16.7625 16.725L14.8125 18.1875V7.625H19.6875ZM4.25 31.1875V8.4375C4.25 8.22201 4.3356 8.01535 4.48798 7.86298C4.64035 7.7106 4.84701 7.625 5.0625 7.625H13.1875V19.8125C13.1875 19.9634 13.2295 20.1113 13.3088 20.2397C13.3882 20.368 13.5017 20.4717 13.6366 20.5392C13.7716 20.6067 13.9227 20.6353 14.073 20.6217C14.2232 20.6082 14.3668 20.553 14.4875 20.4625L17.25 18.3906L20.0125 20.4625C20.1332 20.553 20.2768 20.6082 20.427 20.6217C20.5773 20.6353 20.7284 20.6067 20.8634 20.5392C20.9983 20.4717 21.1118 20.368 21.1912 20.2397C21.2705 20.1113 21.3125 19.9634 21.3125 19.8125V7.625H29.4375C29.653 7.625 29.8597 7.7106 30.012 7.86298C30.1644 8.01535 30.25 8.22201 30.25 8.4375V31.1875C30.25 31.403 30.1644 31.6097 30.012 31.762C29.8597 31.9144 29.653 32 29.4375 32H5.0625C4.84701 32 4.64035 31.9144 4.48798 31.762C4.3356 31.6097 4.25 31.403 4.25 31.1875ZM2.625 33.625H33.5V36.875H17.4027C16.9763 36.1341 16.3621 35.5187 15.6221 35.0908C14.8821 34.6629 14.0423 34.4376 13.1875 34.4376C12.3327 34.4376 11.4929 34.6629 10.7529 35.0908C10.0129 35.5187 9.39869 36.1341 8.97225 36.875H2.625V33.625ZM5.0625 40.125C4.84701 40.125 4.64035 40.0394 4.48798 39.887C4.3356 39.7347 4.25 39.528 4.25 39.3125V38.5H8.38563C8.28812 39.0373 8.28812 39.5877 8.38563 40.125H5.0625ZM13.1875 42.5625C12.5447 42.5625 11.9164 42.3719 11.3819 42.0148C10.8474 41.6577 10.4309 41.1501 10.1849 40.5562C9.93891 39.9624 9.87455 39.3089 9.99995 38.6785C10.1253 38.048 10.4349 37.4689 10.8894 37.0144C11.3439 36.5599 11.923 36.2504 12.5535 36.1249C13.1839 35.9995 13.8374 36.0639 14.4312 36.3099C15.0251 36.5559 15.5327 36.9724 15.8898 37.5069C16.2469 38.0414 16.4375 38.6697 16.4375 39.3125C16.4375 40.1745 16.0951 41.0011 15.4856 41.6106C14.8761 42.2201 14.0495 42.5625 13.1875 42.5625ZM17.9894 40.125C18.0869 39.5877 18.0869 39.0373 17.9894 38.5H36.0106C35.9131 39.0373 35.9131 39.5877 36.0106 40.125H17.9894ZM40.8125 42.5625C40.1697 42.5625 39.5414 42.3719 39.0069 42.0148C38.4724 41.6577 38.0559 41.1501 37.8099 40.5562C37.5639 39.9624 37.4995 39.3089 37.6249 38.6785C37.7503 38.048 38.0599 37.4689 38.5144 37.0144C38.9689 36.5599 39.548 36.2504 40.1785 36.1249C40.8089 35.9995 41.4624 36.0639 42.0562 36.3099C42.6501 36.5559 43.1577 36.9724 43.5148 37.5069C43.8719 38.0414 44.0625 38.6697 44.0625 39.3125C44.0625 40.1745 43.7201 41.0011 43.1106 41.6106C42.5011 42.2201 41.6745 42.5625 40.8125 42.5625ZM48.125 39.3125C48.125 39.528 48.0394 39.7347 47.887 39.887C47.7347 40.0394 47.528 40.125 47.3125 40.125H45.6144C45.7119 39.5877 45.7119 39.0373 45.6144 38.5H48.125V39.3125Z" fill="#B0894E"/>
</svg>
