<svg width="16" height="16" viewBox="0 0 16 16" xmlns="http://www.w3.org/2000/svg">
<path d="M13.5894 10.1968V13.8517H2.40952V10.1968H0.260742V14.9261C0.260742 15.5191 0.741094 16 1.33673 16H14.6622C15.2573 16 15.7382 15.5196 15.7382 14.9261V10.1968H13.5894Z"/>
<path d="M7.80249 9.83441L4.7261 6.11702C4.7261 6.11702 4.25803 5.6751 4.7656 5.6751C5.27317 5.6751 6.49914 5.6751 6.49914 5.6751C6.49914 5.6751 6.49914 5.37781 6.49914 4.91934C6.49914 3.61225 6.49914 1.23344 6.49914 0.26366C6.49914 0.26366 6.43029 0 6.82738 0C7.22767 0 8.98096 0 9.26757 0C9.55364 0 9.54724 0.222029 9.54724 0.222029C9.54724 1.16245 9.54724 3.62346 9.54724 4.88785C9.54724 5.29775 9.54724 5.56355 9.54724 5.56355C9.54724 5.56355 10.5304 5.56355 11.1473 5.56355C11.7633 5.56355 11.2995 6.02629 11.2995 6.02629C11.2995 6.02629 8.68207 9.50083 8.317 9.86537C8.05441 10.1296 7.80249 9.83441 7.80249 9.83441Z"/>
</svg>
