<svg width="160" height="65" viewBox="0 0 160 65" fill="none" xmlns="http://www.w3.org/2000/svg">
<path d="M59.0396 32.36C59.0396 38.28 58.053 43.4533 56.0797 47.88C54.1597 52.2533 51.1996 55.6667 47.1996 58.12C43.1997 60.5733 38.0797 61.8 31.8397 61.8C25.653 61.8 20.533 60.5733 16.4796 58.12C12.4796 55.6667 9.49298 52.2267 7.51965 47.8C5.59965 43.3733 4.63965 38.2 4.63965 32.28C4.63965 26.36 5.59965 21.2133 7.51965 16.84C9.49298 12.4667 12.4796 9.08 16.4796 6.68C20.533 4.22667 25.6796 3 31.9196 3C38.1063 3 43.1997 4.22667 47.1996 6.68C51.1996 9.08 54.1597 12.4933 56.0797 16.92C58.053 21.2933 59.0396 26.44 59.0396 32.36ZM17.3596 32.36C17.3596 38.3333 18.5063 43.0533 20.7997 46.52C23.093 49.9333 26.773 51.64 31.8397 51.64C37.013 51.64 40.7197 49.9333 42.9596 46.52C45.1997 43.0533 46.3197 38.3333 46.3197 32.36C46.3197 26.3333 45.1997 21.6133 42.9596 18.2C40.7197 14.7867 37.0396 13.08 31.9196 13.08C26.7996 13.08 23.093 14.7867 20.7997 18.2C18.5063 21.6133 17.3596 26.3333 17.3596 32.36Z" fill="#161615"/>
<path d="M86.4796 65.0002H70.9996L47.6896 32.4202V65.0002H34.0996V0.740234H47.6896V31.8802L70.7296 0.740234H85.2196L61.8196 31.6102L86.4796 65.0002Z" fill="#926A31"/>
<path d="M81.0641 23.7399C82.8934 23.7399 84.2468 24.1412 85.1241 24.9439C86.0014 25.7466 86.4401 27.0252 86.4401 28.7799V38.9999H84.6481L84.1721 36.8719H84.0601C83.4068 37.6932 82.7161 38.2999 81.9881 38.6919C81.2788 39.0839 80.2894 39.2799 79.0201 39.2799C77.6574 39.2799 76.5281 38.9252 75.6321 38.2159C74.7361 37.4879 74.2881 36.3586 74.2881 34.8279C74.2881 33.3346 74.8761 32.1866 76.0521 31.3839C77.2281 30.5626 79.0388 30.1146 81.4841 30.0399L84.0321 29.9559V29.0599C84.0321 27.8092 83.7614 26.9412 83.2201 26.4559C82.6788 25.9706 81.9134 25.7279 80.9241 25.7279C80.1401 25.7279 79.3934 25.8492 78.6841 26.0919C77.9748 26.3159 77.3121 26.5772 76.6961 26.8759L75.9401 25.0279C76.5934 24.6732 77.3681 24.3746 78.2641 24.1319C79.1601 23.8706 80.0934 23.7399 81.0641 23.7399ZM81.7921 31.7479C79.9254 31.8226 78.6281 32.1212 77.9001 32.6439C77.1908 33.1666 76.8361 33.9039 76.8361 34.8559C76.8361 35.6959 77.0881 36.3119 77.5921 36.7039C78.1148 37.0959 78.7774 37.2919 79.5801 37.2919C80.8494 37.2919 81.9041 36.9466 82.7441 36.2559C83.5841 35.5466 84.0041 34.4639 84.0041 33.0079V31.6639L81.7921 31.7479Z" fill="#161615"/>
<path d="M107.175 23.9919V38.9999H104.963V29.4239C104.963 29.0319 104.973 28.6212 104.991 28.1919C105.029 27.7626 105.066 27.3426 105.103 26.9319H105.019L100.119 38.9999H98.0474L93.2874 26.9319H93.2034C93.2594 27.7719 93.2874 28.6306 93.2874 29.5079V38.9999H91.0754V23.9919H94.3514L99.0834 36.0599L103.899 23.9919H107.175Z" fill="#161615"/>
<path d="M117.762 23.7119C119.05 23.7119 120.151 23.9919 121.066 24.5519C121.999 25.1119 122.709 25.9052 123.194 26.9319C123.698 27.9399 123.95 29.1252 123.95 30.4879V31.9719H113.674C113.711 33.6706 114.141 34.9679 114.962 35.8639C115.802 36.7412 116.969 37.1799 118.462 37.1799C119.414 37.1799 120.254 37.0959 120.982 36.9279C121.729 36.7412 122.494 36.4799 123.278 36.1439V38.2999C122.513 38.6359 121.757 38.8786 121.01 39.0279C120.263 39.1959 119.377 39.2799 118.35 39.2799C116.931 39.2799 115.671 38.9906 114.57 38.4119C113.487 37.8332 112.638 36.9746 112.022 35.8359C111.425 34.6786 111.126 33.2692 111.126 31.6079C111.126 29.9652 111.397 28.5559 111.938 27.3799C112.498 26.2039 113.273 25.2986 114.262 24.6639C115.27 24.0292 116.437 23.7119 117.762 23.7119ZM117.734 25.7279C116.558 25.7279 115.625 26.1106 114.934 26.8759C114.262 27.6226 113.861 28.6679 113.73 30.0119H121.374C121.355 28.7426 121.057 27.7159 120.478 26.9319C119.899 26.1292 118.985 25.7279 117.734 25.7279Z" fill="#161615"/>
<path d="M130.235 23.9919V30.2359H138.383V23.9919H140.847V38.9999H138.383V32.3079H130.235V38.9999H127.771V23.9919H130.235Z" fill="#161615"/>
<path d="M152.515 30.1519C156.416 30.1519 158.367 31.5706 158.367 34.4079C158.367 35.8079 157.891 36.9279 156.939 37.7679C155.987 38.5892 154.475 38.9999 152.403 38.9999H145.599V23.9919H148.063V30.1519H152.515ZM155.903 34.5479C155.903 33.6332 155.576 33.0172 154.923 32.6999C154.288 32.3639 153.392 32.1959 152.235 32.1959H148.063V37.0119H152.291C153.336 37.0119 154.195 36.8252 154.867 36.4519C155.558 36.0786 155.903 35.4439 155.903 34.5479Z" fill="#161615"/>
</svg>
