<svg width="382" height="190" viewBox="0 0 382 190" fill="none" xmlns="http://www.w3.org/2000/svg">
<path d="M1.71508 155.536C1.70144 153.804 2.01463 152.085 2.6381 150.47C3.23446 148.896 4.182 147.481 5.40745 146.335C6.78157 145.066 8.40971 144.11 10.1821 143.529C12.3638 142.808 14.6503 142.461 16.9461 142.503C18.1238 142.503 19.3652 142.568 20.6702 142.696C21.9523 142.823 23.2272 143.016 24.4899 143.273C25.7472 143.529 26.9409 143.85 28.0868 144.203C29.1815 144.533 30.2463 144.957 31.2699 145.469C31.7951 145.709 32.0816 145.966 32.1452 146.206C32.1757 146.656 32.0993 147.107 31.9224 147.521L30.3308 152.33C30.1239 152.923 29.917 153.276 29.6942 153.356C29.3401 153.455 28.966 153.455 28.612 153.356C26.6225 152.763 24.6331 152.266 22.6596 151.881C20.8253 151.511 18.96 151.317 17.0893 151.304C15.6894 151.163 14.2855 151.527 13.1264 152.33C12.7629 152.635 12.4714 153.017 12.2732 153.45C12.075 153.882 11.975 154.354 11.9805 154.83C11.9669 155.389 12.0986 155.942 12.3625 156.433C12.6757 156.976 13.0986 157.445 13.6038 157.812C14.3221 158.353 15.0957 158.815 15.9115 159.191C16.8665 159.671 18.0442 160.206 19.4448 160.794C21.6093 161.659 23.5986 162.525 25.4289 163.406C27.1164 164.18 28.6908 165.184 30.108 166.388C31.3854 167.468 32.4307 168.799 33.1797 170.299C33.9555 171.985 34.3367 173.828 34.2937 175.685C34.2671 177.687 33.7996 179.658 32.925 181.456C32.1379 183.096 30.9761 184.524 29.5351 185.624C27.9626 186.794 26.1786 187.643 24.283 188.125C22.0694 188.702 19.7897 188.982 17.5031 188.958C16.0731 188.96 14.6439 188.885 13.2218 188.734C11.7346 188.586 10.2573 188.35 8.79743 188.028C7.33876 187.709 5.9031 187.292 4.50027 186.778C3.14827 186.288 1.84753 185.665 0.616919 184.919C0.474056 184.848 0.346776 184.749 0.242835 184.628C0.138893 184.507 0.0604365 184.366 0.0121281 184.213C-0.0321239 183.794 0.0452961 183.371 0.234966 182.995L2.39943 177.849C2.45107 177.66 2.53962 177.484 2.65986 177.33C2.7801 177.175 2.92961 177.047 3.09971 176.952C3.47169 176.884 3.85531 176.953 4.18194 177.144C5.02545 177.497 5.96447 177.849 6.98306 178.218C8.00164 178.587 9.05205 178.891 10.1661 179.18C11.2802 179.468 12.3625 179.693 13.4765 179.885C14.5859 180.076 15.7092 180.173 16.8347 180.174C17.9503 180.197 19.064 180.068 20.145 179.789C20.9174 179.584 21.6494 179.248 22.3095 178.795C22.8214 178.442 23.2196 177.946 23.4554 177.368C23.6676 176.828 23.7756 176.251 23.7737 175.669C23.7858 175.073 23.6663 174.482 23.4236 173.938C23.1397 173.367 22.7508 172.856 22.2777 172.431C21.6238 171.863 20.8955 171.389 20.1132 171.021C19.1901 170.572 18.0601 170.091 16.7073 169.578C14.4473 168.728 12.4102 167.847 10.5799 166.949C8.87745 166.148 7.27482 165.147 5.80534 163.967C4.55751 162.966 3.52806 161.717 2.78138 160.297C2.05489 158.835 1.69431 157.218 1.73101 155.584" fill="#868789"/>
<path d="M62.1128 187.292C62.1128 187.484 61.89 187.661 61.4126 187.837C59.8561 188.299 58.2558 188.594 56.638 188.719C55.057 188.847 53.7201 188.911 52.6273 188.911C48.9667 188.911 46.3566 188.142 44.781 186.571C43.9484 185.64 43.3106 184.55 42.9058 183.366C42.5011 182.182 42.3377 180.927 42.4255 179.678V161.372H37.9692C37.5077 161.372 37.2053 161.259 37.078 161.019C36.9408 160.752 36.875 160.454 36.887 160.153V156.691C36.8588 156.393 36.914 156.093 37.0462 155.825C37.2889 155.609 37.5863 155.465 37.9056 155.408L42.6802 154.318L43.1258 148.291C43.1228 147.888 43.2706 147.499 43.5396 147.201C43.8443 146.948 44.2044 146.773 44.5901 146.688L50.431 144.749C50.5854 144.706 50.747 144.695 50.9057 144.717C51.0644 144.739 51.217 144.793 51.3541 144.877C51.4852 145.01 51.5847 145.172 51.6453 145.35C51.7059 145.527 51.726 145.716 51.7042 145.903V154.511H58.7069C59.1844 154.511 59.4708 154.607 59.5663 154.799C59.6873 155.048 59.7422 155.324 59.7255 155.601V160.153C59.7486 160.469 59.7052 160.786 59.5982 161.083C59.5982 161.275 59.2162 161.372 58.7069 161.372H51.7042V177.738C51.6482 178.211 51.7024 178.69 51.8627 179.138C52.0229 179.586 52.2847 179.991 52.6273 180.319C53.4531 180.843 54.4226 181.09 55.3965 181.024C55.6989 181.024 56.049 181.024 56.4788 181.024L59.0889 180.768L60.1711 180.64C60.8555 180.511 61.2215 180.72 61.2534 181.281L62.0174 186.619C62.0361 186.864 62.0361 187.111 62.0174 187.356" fill="#868789"/>
<path d="M97.8741 171.198C97.8741 176.84 96.5373 181.216 93.8476 184.294C91.1579 187.372 87.0994 188.911 81.6245 188.911C76.1496 188.911 72.0754 187.308 69.513 184.294C66.9506 181.281 65.6934 176.888 65.6934 171.326C65.6558 168.812 66.0322 166.31 66.8074 163.92C67.4593 161.857 68.545 159.96 69.9904 158.358C71.3973 156.85 73.1136 155.668 75.0197 154.895C77.1624 154.047 79.4501 153.633 81.7519 153.677C87.057 153.677 91.0783 155.227 93.8157 158.326C96.5213 161.436 97.8741 165.716 97.8741 171.15V171.198ZM88.3249 171.342C88.3322 170.01 88.2257 168.68 88.0066 167.367C87.8389 166.282 87.4719 165.238 86.9243 164.289C86.4495 163.456 85.7699 162.761 84.9509 162.269C84.0416 161.745 83.006 161.484 81.9588 161.516C80.9671 161.457 79.9779 161.668 79.0956 162.128C78.2133 162.588 77.4705 163.279 76.9454 164.129C75.7731 166.273 75.2217 168.705 75.3539 171.15C75.2113 173.681 75.7269 176.206 76.8499 178.475C77.3685 179.309 78.1043 179.983 78.9772 180.424C79.85 180.865 80.8264 181.056 81.7997 180.976C82.8545 181.003 83.8977 180.749 84.8235 180.239C85.6635 179.732 86.364 179.021 86.8607 178.171C87.4118 177.229 87.7993 176.199 88.0066 175.125C88.2518 173.88 88.3692 172.612 88.3568 171.342" fill="#868789"/>
<path d="M118.453 161.371H116.639C115.795 161.395 114.954 161.486 114.124 161.643V187.003C114.164 187.33 114.085 187.66 113.901 187.932C113.566 188.132 113.173 188.211 112.787 188.157H106.214C105.86 188.19 105.504 188.112 105.196 187.932C105.073 187.814 104.98 187.668 104.925 187.506C104.869 187.345 104.853 187.172 104.877 187.003V159.511C104.817 158.319 105.081 157.133 105.641 156.081C106.028 155.588 106.509 155.177 107.055 154.874C107.602 154.571 108.204 154.382 108.824 154.318C109.425 154.211 110.031 154.136 110.639 154.093L113.138 153.901L115.779 153.741C116.655 153.741 117.371 153.741 118.039 153.741C120.635 153.697 123.225 153.999 125.742 154.638C127.73 155.147 129.568 156.125 131.106 157.492C132.59 158.902 133.686 160.674 134.289 162.637C135.044 165.14 135.398 167.748 135.339 170.364V187.115C135.379 187.442 135.3 187.772 135.117 188.045C134.973 188.205 134.607 188.269 134.018 188.269H127.429C127.075 188.299 126.72 188.221 126.411 188.045C126.288 187.926 126.195 187.78 126.14 187.619C126.085 187.457 126.068 187.284 126.093 187.115V169.722C126.114 168.495 125.996 167.269 125.742 166.068C125.55 165.118 125.135 164.227 124.533 163.471C123.918 162.718 123.1 162.161 122.177 161.868C120.974 161.485 119.715 161.306 118.453 161.339" fill="#868789"/>
<path d="M158.21 153.677C163.186 153.677 166.9 154.928 169.351 157.428C171.802 159.929 173.043 163.514 173.075 168.184C173.171 168.99 173.108 169.807 172.89 170.589C172.671 171.37 172.301 172.1 171.802 172.737C171.328 173.165 170.774 173.493 170.173 173.702C169.572 173.911 168.935 173.997 168.3 173.955H152.035C152.04 175.121 152.267 176.274 152.703 177.353C153.051 178.204 153.597 178.957 154.295 179.55C154.998 180.104 155.813 180.498 156.682 180.704C157.659 180.921 158.658 181.029 159.658 181.024C160.923 181.015 162.183 180.864 163.414 180.575C164.632 180.29 165.824 179.904 166.979 179.421C167.307 179.269 167.672 179.213 168.03 179.261C168.282 179.386 168.476 179.604 168.571 179.87L170.608 184.487C170.69 184.62 170.741 184.769 170.757 184.925C170.774 185.08 170.755 185.237 170.704 185.384C170.549 185.66 170.316 185.883 170.035 186.026C168.36 187.094 166.504 187.844 164.56 188.238C162.653 188.667 160.706 188.893 158.751 188.911C153.197 188.911 149.075 187.532 146.401 184.743C143.727 181.954 142.374 177.562 142.374 171.519C142.336 168.962 142.717 166.416 143.504 163.985C144.163 161.906 145.247 159.989 146.687 158.358C148.058 156.829 149.756 155.634 151.653 154.864C153.731 154.047 155.947 153.644 158.178 153.677H158.21ZM158.369 161.372C157.565 161.349 156.766 161.506 156.029 161.83C155.292 162.154 154.634 162.638 154.104 163.247C152.956 164.593 152.285 166.284 152.194 168.056H164.115C164.122 167.172 164.026 166.289 163.828 165.427C163.661 164.678 163.347 163.969 162.905 163.343C162.455 162.747 161.864 162.273 161.186 161.965C160.298 161.579 159.336 161.399 158.369 161.436" fill="#868789"/>
<path d="M235.223 187.948C234.848 188.168 234.413 188.258 233.982 188.205H227.298C226.894 188.248 226.488 188.146 226.152 187.916C226.027 187.773 225.935 187.604 225.88 187.422C225.825 187.239 225.809 187.047 225.833 186.858V168.889H208.565V186.858C208.592 187.05 208.58 187.245 208.531 187.432C208.482 187.619 208.396 187.795 208.279 187.948C207.898 188.167 207.457 188.257 207.021 188.205H200.273C199.88 188.236 199.488 188.135 199.159 187.916C199.026 187.777 198.926 187.61 198.866 187.427C198.805 187.244 198.786 187.05 198.809 186.858V144.587C198.786 144.396 198.805 144.202 198.866 144.019C198.926 143.836 199.026 143.668 199.159 143.529C199.488 143.311 199.88 143.209 200.273 143.241H207.021C207.457 143.196 207.895 143.286 208.279 143.497C208.511 143.81 208.613 144.2 208.565 144.587V160.617H225.833V144.587C225.809 144.398 225.825 144.206 225.88 144.024C225.935 143.842 226.027 143.673 226.152 143.529C226.488 143.3 226.894 143.198 227.298 143.241H233.982C234.412 143.196 234.846 143.285 235.223 143.497C235.455 143.81 235.558 144.2 235.51 144.587V186.826C235.536 187.018 235.525 187.213 235.475 187.4C235.426 187.587 235.341 187.763 235.223 187.916" fill="#868789"/>
<path d="M275.348 171.198C275.348 176.84 274.011 181.216 271.337 184.294C268.663 187.372 264.573 188.911 259.098 188.911C253.623 188.911 249.549 187.308 246.987 184.294C244.424 181.281 243.167 176.888 243.167 171.326C243.129 168.812 243.506 166.31 244.281 163.92C244.933 161.857 246.019 159.96 247.464 158.358C248.871 156.85 250.587 155.668 252.493 154.895C254.636 154.047 256.924 153.633 259.226 153.677C264.531 153.677 268.557 155.227 271.305 158.326C273.995 161.436 275.348 165.716 275.348 171.15V171.198ZM265.719 171.342C265.726 170.01 265.62 168.68 265.401 167.367C265.233 166.282 264.866 165.238 264.319 164.289C263.844 163.456 263.164 162.761 262.345 162.269C261.436 161.745 260.4 161.484 259.353 161.516C258.361 161.459 257.373 161.671 256.491 162.131C255.609 162.59 254.866 163.28 254.34 164.129C253.167 166.273 252.616 168.705 252.748 171.15C252.605 173.681 253.121 176.206 254.244 178.475C254.764 179.307 255.5 179.98 256.372 180.421C257.245 180.862 258.221 181.054 259.194 180.976C260.249 181.003 261.292 180.749 262.218 180.239C263.058 179.732 263.758 179.021 264.255 178.171C264.806 177.229 265.193 176.199 265.401 175.125C265.646 173.88 265.763 172.612 265.751 171.342" fill="#868789"/>
<path d="M298.711 181.28H300.526C301.321 181.28 302.117 181.152 303.056 181.023V155.664C303.02 155.325 303.105 154.984 303.295 154.702C303.438 154.526 303.804 154.446 304.409 154.446H310.966C311.857 154.446 312.303 154.847 312.303 155.664V183.059C312.367 184.274 312.068 185.48 311.444 186.522C310.683 187.499 309.577 188.142 308.356 188.317C307.847 188.413 307.21 188.493 306.446 188.573C305.682 188.654 304.855 188.734 303.995 188.798C303.136 188.862 302.26 188.91 301.401 188.926H299.173C296.545 188.983 293.922 188.681 291.374 188.028C289.412 187.536 287.608 186.542 286.138 185.143C284.744 183.705 283.746 181.926 283.242 179.981C282.6 177.453 282.3 174.848 282.35 172.239V155.664C282.322 155.328 282.4 154.991 282.573 154.702C282.716 154.526 283.098 154.446 283.687 154.446H290.26C291.151 154.446 291.597 154.847 291.597 155.664V172.864C291.581 174.098 291.666 175.331 291.852 176.551C291.982 177.501 292.33 178.406 292.87 179.196C293.42 179.939 294.18 180.498 295.051 180.799C296.234 181.174 297.471 181.347 298.711 181.312" fill="#868789"/>
<path d="M345.82 178.587C345.916 180.087 345.63 181.587 344.99 182.945C344.349 184.302 343.375 185.473 342.16 186.345C339.313 188.167 335.98 189.062 332.611 188.91C330.269 188.898 327.933 188.651 325.64 188.173C323.361 187.747 321.171 186.933 319.162 185.768C318.888 185.623 318.673 185.385 318.557 185.095C318.517 184.746 318.602 184.393 318.796 184.101L320.642 179.677C320.757 179.318 320.994 179.012 321.311 178.811C321.487 178.761 321.672 178.75 321.853 178.777C322.034 178.805 322.208 178.871 322.361 178.972C323.03 179.26 323.794 179.549 324.653 179.837C325.497 180.11 326.388 180.35 327.295 180.575C328.202 180.799 329.093 180.959 329.937 181.088C330.695 181.207 331.461 181.272 332.229 181.28C333.349 181.375 334.468 181.093 335.412 180.478C335.704 180.231 335.938 179.922 336.097 179.572C336.257 179.223 336.338 178.843 336.335 178.459C336.32 178.011 336.192 177.575 335.964 177.191C335.735 176.807 335.414 176.488 335.03 176.263C333.605 175.403 332.095 174.694 330.526 174.147C328.989 173.582 327.49 172.918 326.038 172.159C324.862 171.554 323.762 170.812 322.759 169.947C321.868 169.191 321.159 168.242 320.685 167.17C320.21 166.098 319.984 164.932 320.022 163.759C320.01 162.401 320.27 161.055 320.786 159.8C321.293 158.567 322.078 157.47 323.077 156.594C324.21 155.631 325.518 154.901 326.929 154.446C328.709 153.879 330.569 153.609 332.436 153.644C334.395 153.646 336.35 153.828 338.277 154.189C340.126 154.509 341.932 155.047 343.656 155.792C344.112 156.017 344.367 156.241 344.42 156.466C344.446 156.85 344.381 157.235 344.229 157.588L342.637 161.691C342.457 162.172 342.266 162.445 342.064 162.509C341.717 162.551 341.364 162.495 341.046 162.349C339.454 161.868 338.022 161.515 336.717 161.243C335.369 160.984 333.999 160.855 332.627 160.858C332.181 160.817 331.731 160.867 331.305 161.005C330.878 161.142 330.483 161.365 330.144 161.659C329.697 162.077 329.423 162.65 329.38 163.262C329.375 163.693 329.479 164.117 329.682 164.496C329.886 164.875 330.181 165.195 330.542 165.426C331.836 166.228 333.22 166.874 334.664 167.35C336.255 167.943 337.624 168.552 338.993 169.177C340.26 169.746 341.448 170.479 342.526 171.357C343.517 172.176 344.329 173.191 344.913 174.339C345.538 175.642 345.844 177.077 345.805 178.523" fill="#868789"/>
<path d="M366.796 153.677C371.761 153.677 375.475 154.928 377.937 157.428C380.398 159.929 381.639 163.514 381.661 168.184C381.757 168.99 381.694 169.807 381.475 170.589C381.257 171.37 380.887 172.1 380.387 172.737C379.914 173.165 379.36 173.493 378.759 173.702C378.158 173.911 377.521 173.997 376.886 173.955H360.605C360.61 175.121 360.837 176.274 361.273 177.353C361.627 178.2 362.172 178.952 362.865 179.55C363.568 180.104 364.383 180.498 365.252 180.704C366.229 180.921 367.227 181.029 368.228 181.024C369.493 181.015 370.752 180.864 371.984 180.575C373.202 180.29 374.394 179.904 375.549 179.421C375.877 179.269 376.241 179.213 376.6 179.261C376.852 179.386 377.046 179.604 377.141 179.87L379.178 184.487C379.26 184.62 379.311 184.769 379.327 184.925C379.344 185.08 379.325 185.237 379.273 185.384C379.118 185.66 378.886 185.883 378.605 186.026C376.931 187.097 375.075 187.847 373.13 188.238C371.228 188.666 369.286 188.892 367.337 188.911C361.767 188.911 357.644 187.532 354.971 184.743C352.297 181.954 350.944 177.562 350.944 171.519C350.906 168.962 351.287 166.416 352.074 163.985C352.733 161.906 353.817 159.989 355.257 158.358C356.631 156.832 358.328 155.638 360.223 154.863C362.307 154.048 364.528 153.645 366.764 153.677H366.796ZM366.955 161.372C366.148 161.347 365.346 161.502 364.606 161.827C363.866 162.151 363.206 162.636 362.674 163.247C361.526 164.593 360.855 166.284 360.764 168.056H372.684C372.692 167.172 372.596 166.289 372.398 165.427C372.231 164.678 371.917 163.969 371.475 163.343C371.025 162.747 370.434 162.273 369.756 161.965C368.873 161.581 367.916 161.4 366.955 161.436" fill="#868789"/>
<path d="M150.734 14.443L138.001 3.67092C137.392 3.15245 136.619 2.86847 135.821 2.86942C135.372 2.86731 134.926 2.95436 134.51 3.12561C134.094 3.29687 133.716 3.54896 133.397 3.8675C133.078 4.18604 132.824 4.56482 132.65 4.98215C132.476 5.39949 132.385 5.84723 132.383 6.29982V27.5715C132.389 28.1267 132.549 28.6691 132.844 29.1379C133.14 29.6066 133.559 29.9829 134.055 30.2245C134.551 30.4661 135.105 30.5634 135.653 30.5053C136.201 30.4472 136.722 30.2362 137.158 29.8959L150.686 19.0436C151.033 18.7756 151.313 18.431 151.506 18.0363C151.7 17.6416 151.8 17.2074 151.8 16.7674C151.809 16.3254 151.719 15.8871 151.538 15.4847C151.356 15.0824 151.086 14.7264 150.75 14.443" fill="#A0B5BC"/>
<path d="M247.596 90.2967C247.072 90.3002 246.564 90.4746 246.148 90.7937L226.858 105.91C226.516 106.174 226.239 106.513 226.048 106.903C225.858 107.292 225.759 107.72 225.76 108.154V115.528C225.76 116.285 226.058 117.01 226.59 117.545C227.121 118.081 227.841 118.381 228.593 118.381H246.402C247.346 118.377 248.251 117.997 248.918 117.325C249.586 116.652 249.963 115.741 249.967 114.79V92.6852C249.967 92.0517 249.717 91.4442 249.273 90.9963C248.828 90.5484 248.225 90.2967 247.596 90.2967Z" fill="#A0B5BC"/>
<path d="M207.935 1.93972C207.725 1.36703 207.345 0.873445 206.846 0.526314C206.348 0.179182 205.755 -0.00460054 205.149 8.75067e-05H146.613C146.034 -0.000954542 145.469 0.175477 144.992 0.50589C144.516 0.836303 144.15 1.30505 143.945 1.84976C143.739 2.39446 143.703 2.98932 143.841 3.55518C143.98 4.12105 144.286 4.63109 144.719 5.01746L172.427 29.928C173.198 30.6257 174.193 31.0184 175.23 31.0331C176.266 31.0479 177.272 30.6837 178.061 30.0081L207.059 5.24188C207.526 4.84967 207.86 4.32178 208.017 3.73058C208.173 3.13939 208.145 2.51384 207.935 1.93972Z" fill="#8C7F72"/>
<path d="M217.707 95.9389H165.934C165.098 95.9472 164.278 96.1766 163.557 96.6042C162.837 97.0318 162.24 97.6426 161.828 98.3754L153.584 113.267C153.289 113.797 153.137 114.396 153.144 115.004C153.15 115.611 153.315 116.206 153.62 116.73C153.926 117.254 154.363 117.688 154.887 117.988C155.411 118.289 156.004 118.447 156.608 118.445H217.707C218.551 118.445 219.36 118.107 219.957 117.506C220.554 116.905 220.89 116.089 220.89 115.239V99.1288C220.89 98.2785 220.554 97.4631 219.957 96.8618C219.36 96.2606 218.551 95.9228 217.707 95.9228" fill="#8C7F72"/>
<path d="M247.23 42.7845C246.805 42.7847 246.385 42.8834 246.004 43.073L228.688 51.6971C227.809 52.1297 227.069 52.8025 226.551 53.6386C226.033 54.4747 225.759 55.4406 225.76 56.426V96.9977C225.764 97.6836 226.038 98.34 226.521 98.8236C227.004 99.3071 227.657 99.5785 228.338 99.5785C228.921 99.5712 229.483 99.3617 229.93 98.9854L247.962 84.2379C248.584 83.7282 249.085 83.0853 249.429 82.356C249.773 81.6268 249.952 80.8295 249.951 80.022V45.5416C249.951 44.8104 249.663 44.1091 249.15 43.5921C248.636 43.075 247.94 42.7845 247.214 42.7845" fill="#9F8574"/>
<path d="M168.623 31.115L158.246 21.8337C157.59 21.2547 156.747 20.9357 155.875 20.936C155.054 20.9403 154.258 21.2226 153.615 21.7375L134.166 37.7674C133.627 38.2163 133.191 38.7793 132.892 39.4164C132.592 40.0535 132.435 40.7493 132.432 41.4543V51.8257C132.433 52.6383 132.653 53.4353 133.068 54.1323C133.482 54.8294 134.076 55.4004 134.787 55.7851L153.344 65.948C153.741 66.1618 154.183 66.2772 154.634 66.2847C155.347 66.2787 156.03 65.9976 156.543 65.4992C156.806 65.2433 157.014 64.9368 157.156 64.5981C157.298 64.2594 157.371 63.8953 157.371 63.5275V45.4939C157.37 45.2138 157.435 44.9375 157.559 44.687C157.683 44.4364 157.864 44.2187 158.087 44.0512L168.384 36.3568C168.785 36.0578 169.115 35.6726 169.35 35.2291C169.585 34.7857 169.718 34.2951 169.741 33.7931C169.764 33.2911 169.676 32.7902 169.482 32.327C169.289 31.8637 168.995 31.4497 168.623 31.115Z" fill="#9F8574"/>
<path d="M246.385 6.58731e-05H221.144C219.773 -0.00674759 218.452 0.515223 217.451 1.45879L198.162 19.7008C197.728 20.1029 197.386 20.5954 197.16 21.1441C196.934 21.6929 196.829 22.2846 196.854 22.8781C196.878 23.4717 197.03 24.0528 197.3 24.581C197.57 25.1092 197.951 25.5717 198.416 25.9365L222.385 45.0762C223.332 45.845 224.511 46.2637 225.727 46.2624C226.485 46.2636 227.235 46.0996 227.924 45.7815L246.831 37.2857C247.776 36.8532 248.579 36.1567 249.143 35.2787C249.707 34.4008 250.01 33.3782 250.014 32.3324V3.6068C250.014 2.65023 249.637 1.73285 248.965 1.05646C248.294 0.380063 247.383 6.58731e-05 246.433 6.58731e-05" fill="#C0AA82"/>
<path d="M156.718 72.5038L136.999 61.6355C136.49 61.3544 135.917 61.2116 135.337 61.2211C134.757 61.2306 134.189 61.3921 133.69 61.6897C133.19 61.9874 132.776 62.4108 132.489 62.9185C132.201 63.4262 132.05 64.0005 132.049 64.585V114.967C132.049 115.97 132.445 116.933 133.149 117.642C133.854 118.352 134.809 118.75 135.805 118.75H142.713C143.606 118.75 144.484 118.513 145.258 118.062C146.032 117.612 146.674 116.965 147.121 116.185L157.482 98.1356C158.205 96.8736 158.584 95.4412 158.58 93.9839V75.5816C158.583 74.9531 158.417 74.3355 158.101 73.7938C157.784 73.2522 157.329 72.8065 156.782 72.5038" fill="#C0AA82"/>
<path d="M217.962 47.6568L193.579 28.9659C192.892 28.4432 192.054 28.1604 191.192 28.1604C190.331 28.1604 189.492 28.4432 188.805 28.9659L164.502 47.6889C163.858 48.1875 163.337 48.8284 162.978 49.5621C162.62 50.2959 162.433 51.1029 162.433 51.9208V88.6133C162.433 89.353 162.725 90.0624 163.244 90.5855C163.764 91.1086 164.468 91.4024 165.202 91.4024H181.516C181.755 91.4025 181.992 91.3547 182.214 91.2618C182.435 91.169 182.636 91.033 182.804 90.8616C182.973 90.6902 183.106 90.4868 183.196 90.2633C183.287 90.0397 183.332 89.8003 183.33 89.559V71.9261C183.33 71.3692 183.55 70.835 183.941 70.4412C184.332 70.0474 184.862 69.8262 185.415 69.8262H196.906C197.459 69.8262 197.989 70.0474 198.38 70.4412C198.771 70.835 198.991 71.3692 198.991 71.9261V89.559C198.989 89.8017 199.034 90.0424 199.126 90.267C199.217 90.4916 199.352 90.6957 199.522 90.8673C199.692 91.0389 199.895 91.1746 200.118 91.2665C200.341 91.3584 200.58 91.4046 200.821 91.4024H217.198C217.561 91.4025 217.92 91.3302 218.255 91.1898C218.59 91.0495 218.894 90.8437 219.15 90.5845C219.406 90.3253 219.609 90.0177 219.746 89.6794C219.884 89.3411 219.953 88.9788 219.951 88.6133V51.8887C219.951 51.0708 219.765 50.2638 219.406 49.5301C219.047 48.7963 218.526 48.1554 217.882 47.6568" fill="#868789"/>
</svg>
