<svg width="50" height="32" viewBox="0 0 50 32" xmlns="http://www.w3.org/2000/svg">
<path d="M20.0203 8.5598L17.4792 23.4718H21.5433L24.0864 8.5598H20.0203Z"/>
<path d="M14.0716 8.57653L10.0911 18.7461L9.66676 17.2106C8.88176 15.3604 6.65322 12.7033 4.03688 11.0288L7.67655 23.4645L11.9768 23.4572L18.3771 8.57339L14.0716 8.57653Z"/>
<path d="M8.12393 9.64376C7.8877 8.73541 7.20304 8.46468 6.35322 8.43228H0.0522641L0 8.72914C4.90342 9.91867 8.14797 12.7848 9.49429 16.2311L8.12393 9.64376Z" />
<path d="M32.3232 11.4186C33.6528 11.3977 34.6166 11.6883 35.365 11.9894L35.7319 12.1618L36.2817 8.92983C35.4769 8.62775 34.2152 8.30371 32.641 8.30371C28.625 8.30371 25.7944 10.3263 25.7725 13.2249C25.7463 15.3667 27.7888 16.5625 29.3316 17.2764C30.9152 18.0081 31.4463 18.4733 31.4389 19.1266C31.4264 20.1248 30.1762 20.5826 29.0087 20.5826C27.3812 20.5826 26.5167 20.3579 25.1819 19.8018L24.6582 19.5635L24.0864 22.9011C25.0376 23.3181 26.7927 23.6767 28.6146 23.6955C32.8866 23.6955 35.6629 21.6969 35.6922 18.5997C35.71 16.9053 34.626 15.6123 32.2772 14.5514C30.8557 13.8594 29.986 13.3995 29.9944 12.7012C29.9944 12.0814 30.7323 11.4186 32.3232 11.4186Z"/>
<path d="M46.7115 8.57653H43.5715C42.5963 8.57653 41.8708 8.84203 41.4423 9.81414L35.4079 23.4802H39.6758C39.6758 23.4802 40.3719 21.6425 40.5298 21.2401C40.997 21.2401 45.1436 21.2464 45.7342 21.2464C45.8555 21.7669 46.2297 23.4802 46.2297 23.4802H50L46.7115 8.57653ZM41.6994 18.1879C42.0339 17.3318 43.3186 14.0204 43.3186 14.0204C43.2966 14.0611 43.6499 13.158 43.86 12.5967L44.1339 13.8824C44.1339 13.8824 44.9126 17.4426 45.0757 18.1879H41.6994Z"/>
</svg>
